<svg width="573" height="255" viewBox="0 0 573 255" fill="none" xmlns="http://www.w3.org/2000/svg">
<path d="M41.184 46V34.8H45.12C45.9093 34.8 46.56 34.928 47.072 35.184C47.5947 35.4293 47.984 35.7707 48.24 36.208C48.496 36.6347 48.624 37.1147 48.624 37.648C48.624 38.3733 48.4267 38.944 48.032 39.36C47.648 39.776 47.184 40.064 46.64 40.224C47.056 40.2987 47.4347 40.464 47.776 40.72C48.1173 40.976 48.384 41.296 48.576 41.68C48.7787 42.064 48.88 42.4853 48.88 42.944C48.88 43.5093 48.7413 44.0267 48.464 44.496C48.1867 44.9547 47.776 45.3227 47.232 45.6C46.688 45.8667 46.0267 46 45.248 46H41.184ZM42.528 39.696H45.024C45.7387 39.696 46.288 39.5307 46.672 39.2C47.056 38.8587 47.248 38.3893 47.248 37.792C47.248 37.2267 47.056 36.7733 46.672 36.432C46.2987 36.0907 45.7333 35.92 44.976 35.92H42.528V39.696ZM42.528 44.88H45.104C45.872 44.88 46.464 44.704 46.88 44.352C47.296 43.9893 47.504 43.488 47.504 42.848C47.504 42.2187 47.2853 41.7173 46.848 41.344C46.4107 40.96 45.8187 40.768 45.072 40.768H42.528V44.88ZM53.625 46.192C52.6863 46.192 51.9397 45.9093 51.385 45.344C50.8303 44.768 50.553 43.888 50.553 42.704V38.064H51.897V42.56C51.897 44.2133 52.5743 45.04 53.929 45.04C54.6223 45.04 55.193 44.7947 55.641 44.304C56.0997 43.8027 56.329 43.0933 56.329 42.176V38.064H57.673V46H56.457L56.361 44.576C56.1157 45.0773 55.7477 45.472 55.257 45.76C54.777 46.048 54.233 46.192 53.625 46.192ZM60.7493 49.52L62.7173 45.232H62.2533L59.1013 38.064H60.5573L63.1813 44.24L65.9653 38.064H67.3573L62.1573 49.52H60.7493ZM75.7143 46V35.904H72.3703V34.8H80.4023V35.904H77.0583V46H75.7143ZM83.4159 46.192C82.7545 46.192 82.2052 46.08 81.7679 45.856C81.3305 45.632 81.0052 45.3333 80.7919 44.96C80.5785 44.5867 80.4719 44.1813 80.4719 43.744C80.4719 42.9333 80.7812 42.3093 81.3999 41.872C82.0185 41.4347 82.8612 41.216 83.9279 41.216H86.0719V41.12C86.0719 40.4267 85.8905 39.904 85.5279 39.552C85.1652 39.1893 84.6799 39.008 84.0719 39.008C83.5492 39.008 83.0959 39.1413 82.7119 39.408C82.3385 39.664 82.1039 40.0427 82.0079 40.544H80.6319C80.6852 39.968 80.8772 39.4827 81.2079 39.088C81.5492 38.6933 81.9705 38.3947 82.4719 38.192C82.9732 37.9787 83.5065 37.872 84.0719 37.872C85.1812 37.872 86.0132 38.1707 86.5679 38.768C87.1332 39.3547 87.4159 40.1387 87.4159 41.12V46H86.2159L86.1359 44.576C85.9119 45.024 85.5812 45.408 85.1439 45.728C84.7172 46.0373 84.1412 46.192 83.4159 46.192ZM83.6239 45.056C84.1359 45.056 84.5732 44.9227 84.9359 44.656C85.3092 44.3893 85.5919 44.0427 85.7839 43.616C85.9759 43.1893 86.0719 42.7413 86.0719 42.272V42.256H84.0399C83.2505 42.256 82.6905 42.3947 82.3599 42.672C82.0399 42.9387 81.8799 43.2747 81.8799 43.68C81.8799 44.096 82.0292 44.432 82.3279 44.688C82.6372 44.9333 83.0692 45.056 83.6239 45.056ZM88.6321 46L91.3841 42.032L88.6321 38.064H90.0881L92.3121 41.344L94.5521 38.064H95.9921L93.2401 42.032L95.9921 46H94.5521L92.3121 42.72L90.0881 46H88.6321Z" fill="#040404" fill-opacity="0.8"/>
<path d="M235.622 46.192C234.812 46.192 234.129 46.0427 233.574 45.744C233.02 45.4347 232.572 45.024 232.23 44.512C231.9 44 231.654 43.4293 231.494 42.8C231.345 42.16 231.27 41.5093 231.27 40.848C231.27 39.6107 231.441 38.528 231.782 37.6C232.124 36.6613 232.614 35.9307 233.254 35.408C233.905 34.8747 234.689 34.608 235.606 34.608C236.31 34.608 236.913 34.7467 237.414 35.024C237.916 35.3013 238.31 35.6747 238.598 36.144C238.897 36.6027 239.084 37.1147 239.158 37.68H237.91C237.793 37.072 237.532 36.6027 237.126 36.272C236.721 35.9413 236.209 35.776 235.59 35.776C234.748 35.776 234.038 36.176 233.462 36.976C232.897 37.7653 232.593 39.0027 232.55 40.688C232.806 40.1867 233.212 39.7547 233.766 39.392C234.332 39.0187 235.009 38.832 235.798 38.832C236.438 38.832 237.036 38.9813 237.59 39.28C238.156 39.5787 238.614 40 238.966 40.544C239.318 41.0773 239.494 41.7067 239.494 42.432C239.494 43.0613 239.34 43.664 239.03 44.24C238.721 44.816 238.273 45.2853 237.686 45.648C237.11 46.0107 236.422 46.192 235.622 46.192ZM235.526 45.008C236.028 45.008 236.476 44.9013 236.87 44.688C237.265 44.4747 237.574 44.1813 237.798 43.808C238.022 43.424 238.134 42.9867 238.134 42.496C238.134 41.7387 237.884 41.136 237.382 40.688C236.892 40.2293 236.273 40 235.526 40C235.025 40 234.577 40.1173 234.182 40.352C233.788 40.576 233.473 40.88 233.238 41.264C233.014 41.648 232.902 42.064 232.902 42.512C232.902 42.992 233.014 43.424 233.238 43.808C233.473 44.1813 233.788 44.4747 234.182 44.688C234.577 44.9013 235.025 45.008 235.526 45.008ZM243.419 40C242.939 40 242.501 39.8933 242.107 39.68C241.723 39.456 241.419 39.1467 241.195 38.752C240.971 38.3467 240.859 37.8667 240.859 37.312C240.859 36.7573 240.971 36.2827 241.195 35.888C241.429 35.4827 241.739 35.1733 242.123 34.96C242.517 34.736 242.955 34.624 243.435 34.624C243.915 34.624 244.347 34.736 244.731 34.96C245.115 35.1733 245.419 35.4827 245.643 35.888C245.867 36.2827 245.979 36.7573 245.979 37.312C245.979 37.8667 245.861 38.3467 245.627 38.752C245.403 39.1467 245.099 39.456 244.715 39.68C244.331 39.8933 243.899 40 243.419 40ZM242.427 46L248.939 34.8H250.283L243.771 46H242.427ZM243.419 38.96C243.792 38.96 244.117 38.8213 244.395 38.544C244.683 38.2667 244.827 37.856 244.827 37.312C244.827 36.7573 244.688 36.3413 244.411 36.064C244.133 35.776 243.808 35.632 243.435 35.632C243.061 35.632 242.725 35.776 242.427 36.064C242.139 36.3413 241.995 36.7573 241.995 37.312C241.995 37.856 242.139 38.2667 242.427 38.544C242.715 38.8213 243.045 38.96 243.419 38.96ZM249.403 46.192C248.923 46.192 248.485 46.0853 248.091 45.872C247.707 45.648 247.403 45.3387 247.179 44.944C246.955 44.5387 246.843 44.0587 246.843 43.504C246.843 42.9493 246.955 42.4747 247.179 42.08C247.413 41.6747 247.723 41.3653 248.107 41.152C248.491 40.928 248.923 40.816 249.403 40.816C249.883 40.816 250.315 40.928 250.699 41.152C251.083 41.3653 251.387 41.6747 251.611 42.08C251.835 42.4747 251.947 42.9493 251.947 43.504C251.947 44.0587 251.835 44.5387 251.611 44.944C251.387 45.3387 251.083 45.648 250.699 45.872C250.315 46.0853 249.883 46.192 249.403 46.192ZM249.387 45.152C249.771 45.152 250.101 45.0133 250.379 44.736C250.667 44.4587 250.811 44.048 250.811 43.504C250.811 42.9493 250.672 42.5333 250.395 42.256C250.117 41.9787 249.787 41.84 249.403 41.84C249.029 41.84 248.699 41.9787 248.411 42.256C248.123 42.5333 247.979 42.9493 247.979 43.504C247.979 44.048 248.117 44.4587 248.395 44.736C248.683 45.0133 249.013 45.152 249.387 45.152Z" fill="#040404"/>
<path d="M41.184 96V84.8H42.752L46.784 92.608L50.784 84.8H52.368V96H51.024V87.2L47.28 94.4H46.272L42.528 87.216V96H41.184ZM57.2909 96.192C56.6295 96.192 56.0802 96.08 55.6429 95.856C55.2055 95.632 54.8802 95.3333 54.6669 94.96C54.4535 94.5867 54.3469 94.1813 54.3469 93.744C54.3469 92.9333 54.6562 92.3093 55.2749 91.872C55.8935 91.4347 56.7362 91.216 57.8029 91.216H59.9469V91.12C59.9469 90.4267 59.7655 89.904 59.4029 89.552C59.0402 89.1893 58.5549 89.008 57.9469 89.008C57.4242 89.008 56.9709 89.1413 56.5869 89.408C56.2135 89.664 55.9789 90.0427 55.8829 90.544H54.5069C54.5602 89.968 54.7522 89.4827 55.0829 89.088C55.4242 88.6933 55.8455 88.3947 56.3469 88.192C56.8482 87.9787 57.3815 87.872 57.9469 87.872C59.0562 87.872 59.8882 88.1707 60.4429 88.768C61.0082 89.3547 61.2909 90.1387 61.2909 91.12V96H60.0909L60.0109 94.576C59.7869 95.024 59.4562 95.408 59.0189 95.728C58.5922 96.0373 58.0162 96.192 57.2909 96.192ZM57.4989 95.056C58.0109 95.056 58.4482 94.9227 58.8109 94.656C59.1842 94.3893 59.4669 94.0427 59.6589 93.616C59.8509 93.1893 59.9469 92.7413 59.9469 92.272V92.256H57.9149C57.1255 92.256 56.5655 92.3947 56.2349 92.672C55.9149 92.9387 55.7549 93.2747 55.7549 93.68C55.7549 94.096 55.9042 94.432 56.2029 94.688C56.5122 94.9333 56.9442 95.056 57.4989 95.056ZM63.3071 96V88.064H64.5231L64.6351 89.584C64.8805 89.0613 65.2538 88.6453 65.7551 88.336C66.2565 88.0267 66.8751 87.872 67.6111 87.872V89.28H67.2431C66.7738 89.28 66.3418 89.3653 65.9471 89.536C65.5525 89.696 65.2378 89.9733 65.0031 90.368C64.7685 90.7627 64.6511 91.3067 64.6511 92V96H63.3071ZM69.1196 96V84.48H70.4636V91.408L73.7116 88.064H75.3596L71.8396 91.648L75.8076 96H74.0956L70.4636 91.888V96H69.1196ZM80.172 96.192C79.4147 96.192 78.7427 96.0213 78.156 95.68C77.5693 95.328 77.1053 94.8427 76.764 94.224C76.4333 93.6053 76.268 92.8747 76.268 92.032C76.268 91.2 76.4333 90.4747 76.764 89.856C77.0947 89.2267 77.5533 88.7413 78.14 88.4C78.7373 88.048 79.4253 87.872 80.204 87.872C80.972 87.872 81.6333 88.048 82.188 88.4C82.7533 88.7413 83.1853 89.1947 83.484 89.76C83.7827 90.3253 83.932 90.9333 83.932 91.584C83.932 91.7013 83.9267 91.8187 83.916 91.936C83.916 92.0533 83.916 92.1867 83.916 92.336H77.596C77.628 92.944 77.7667 93.4507 78.012 93.856C78.268 94.2507 78.5827 94.5493 78.956 94.752C79.34 94.9547 79.7453 95.056 80.172 95.056C80.7267 95.056 81.1907 94.928 81.564 94.672C81.9373 94.416 82.2093 94.0693 82.38 93.632H83.708C83.4947 94.368 83.084 94.9813 82.476 95.472C81.8787 95.952 81.1107 96.192 80.172 96.192ZM80.172 89.008C79.532 89.008 78.9613 89.2053 78.46 89.6C77.9693 89.984 77.6867 90.5493 77.612 91.296H82.604C82.572 90.5813 82.3267 90.0213 81.868 89.616C81.4093 89.2107 80.844 89.008 80.172 89.008ZM88.5838 96C87.8584 96 87.2878 95.824 86.8718 95.472C86.4558 95.12 86.2478 94.4853 86.2478 93.568V89.2H84.8717V88.064H86.2478L86.4238 86.16H87.5918V88.064H89.9278V89.2H87.5918V93.568C87.5918 94.0693 87.6931 94.4107 87.8958 94.592C88.0984 94.7627 88.4558 94.848 88.9678 94.848H89.7998V96H88.5838ZM92.4513 86.304C92.1846 86.304 91.9606 86.2187 91.7793 86.048C91.6086 85.8667 91.5233 85.6427 91.5233 85.376C91.5233 85.12 91.6086 84.9067 91.7793 84.736C91.9606 84.5653 92.1846 84.48 92.4513 84.48C92.7073 84.48 92.9259 84.5653 93.1073 84.736C93.2886 84.9067 93.3793 85.12 93.3793 85.376C93.3793 85.6427 93.2886 85.8667 93.1073 86.048C92.9259 86.2187 92.7073 86.304 92.4513 86.304ZM91.7793 96V88.064H93.1233V96H91.7793ZM95.4634 96V88.064H96.6794L96.7594 89.488C97.0154 88.9867 97.3834 88.592 97.8634 88.304C98.3434 88.016 98.8874 87.872 99.4954 87.872C100.434 87.872 101.181 88.16 101.735 88.736C102.301 89.3013 102.583 90.176 102.583 91.36V96H101.239V91.504C101.239 89.8507 100.557 89.024 99.1914 89.024C98.5087 89.024 97.938 89.2747 97.4794 89.776C97.0314 90.2667 96.8074 90.9707 96.8074 91.888V96H95.4634ZM107.756 93.504C107.308 93.504 106.897 93.4453 106.524 93.328L105.724 94.08C105.841 94.1653 105.985 94.24 106.156 94.304C106.337 94.3573 106.593 94.4107 106.924 94.464C107.254 94.5067 107.718 94.5547 108.316 94.608C109.382 94.6827 110.145 94.928 110.604 95.344C111.062 95.76 111.292 96.304 111.292 96.976C111.292 97.4347 111.164 97.872 110.908 98.288C110.662 98.704 110.278 99.0453 109.756 99.312C109.244 99.5787 108.582 99.712 107.772 99.712C107.057 99.712 106.422 99.616 105.868 99.424C105.313 99.2427 104.881 98.96 104.572 98.576C104.262 98.2027 104.108 97.728 104.108 97.152C104.108 96.8533 104.188 96.528 104.348 96.176C104.508 95.8347 104.806 95.5093 105.244 95.2C105.009 95.104 104.806 95.0027 104.636 94.896C104.476 94.7787 104.326 94.6507 104.188 94.512V94.144L105.548 92.8C104.918 92.2667 104.604 91.5627 104.604 90.688C104.604 90.1653 104.726 89.6907 104.972 89.264C105.217 88.8373 105.574 88.5013 106.044 88.256C106.513 88 107.084 87.872 107.756 87.872C108.214 87.872 108.63 87.936 109.004 88.064H111.932V89.072L110.444 89.136C110.753 89.584 110.908 90.1013 110.908 90.688C110.908 91.2107 110.78 91.6853 110.524 92.112C110.278 92.5387 109.921 92.88 109.452 93.136C108.993 93.3813 108.428 93.504 107.756 93.504ZM107.756 92.4C108.321 92.4 108.769 92.256 109.1 91.968C109.441 91.6693 109.612 91.2427 109.612 90.688C109.612 90.144 109.441 89.728 109.1 89.44C108.769 89.1413 108.321 88.992 107.756 88.992C107.18 88.992 106.721 89.1413 106.38 89.44C106.049 89.728 105.884 90.144 105.884 90.688C105.884 91.2427 106.049 91.6693 106.38 91.968C106.721 92.256 107.18 92.4 107.756 92.4ZM105.42 97.024C105.42 97.5573 105.644 97.952 106.092 98.208C106.54 98.4747 107.1 98.608 107.772 98.608C108.433 98.608 108.961 98.464 109.356 98.176C109.761 97.888 109.964 97.504 109.964 97.024C109.964 96.6827 109.825 96.384 109.548 96.128C109.27 95.8827 108.758 95.7387 108.012 95.696C107.425 95.6533 106.918 95.6 106.492 95.536C106.054 95.7707 105.766 96.0213 105.628 96.288C105.489 96.5653 105.42 96.8107 105.42 97.024Z" fill="#040404" fill-opacity="0.8"/>
<path d="M235.914 96.192C235.2 96.192 234.554 96.064 233.978 95.808C233.402 95.5413 232.938 95.1467 232.586 94.624C232.245 94.1013 232.064 93.4507 232.042 92.672H233.402C233.413 93.312 233.637 93.8667 234.074 94.336C234.512 94.7947 235.125 95.024 235.914 95.024C236.704 95.024 237.296 94.8053 237.69 94.368C238.096 93.9307 238.298 93.4027 238.298 92.784C238.298 92.2613 238.17 91.8347 237.914 91.504C237.669 91.1733 237.333 90.928 236.906 90.768C236.49 90.608 236.032 90.528 235.53 90.528H234.698V89.392H235.53C236.256 89.392 236.821 89.2267 237.226 88.896C237.642 88.5653 237.85 88.1013 237.85 87.504C237.85 87.0027 237.685 86.592 237.354 86.272C237.034 85.9413 236.554 85.776 235.914 85.776C235.296 85.776 234.8 85.9627 234.426 86.336C234.053 86.6987 233.845 87.1573 233.802 87.712H232.442C232.474 87.104 232.634 86.5653 232.922 86.096C233.221 85.6267 233.626 85.264 234.138 85.008C234.65 84.7413 235.242 84.608 235.914 84.608C236.64 84.608 237.242 84.736 237.722 84.992C238.213 85.248 238.581 85.5893 238.826 86.016C239.082 86.4427 239.21 86.912 239.21 87.424C239.21 87.9893 239.056 88.5067 238.746 88.976C238.437 89.4347 237.973 89.744 237.354 89.904C238.016 90.0427 238.565 90.3573 239.002 90.848C239.44 91.3387 239.658 91.984 239.658 92.784C239.658 93.4027 239.514 93.9733 239.226 94.496C238.949 95.008 238.533 95.4187 237.978 95.728C237.424 96.0373 236.736 96.192 235.914 96.192ZM243.583 90C243.103 90 242.665 89.8933 242.271 89.68C241.887 89.456 241.583 89.1467 241.359 88.752C241.135 88.3467 241.023 87.8667 241.023 87.312C241.023 86.7573 241.135 86.2827 241.359 85.888C241.593 85.4827 241.903 85.1733 242.287 84.96C242.681 84.736 243.119 84.624 243.599 84.624C244.079 84.624 244.511 84.736 244.895 84.96C245.279 85.1733 245.583 85.4827 245.807 85.888C246.031 86.2827 246.143 86.7573 246.143 87.312C246.143 87.8667 246.025 88.3467 245.791 88.752C245.567 89.1467 245.263 89.456 244.879 89.68C244.495 89.8933 244.063 90 243.583 90ZM242.591 96L249.103 84.8H250.447L243.935 96H242.591ZM243.583 88.96C243.956 88.96 244.281 88.8213 244.559 88.544C244.847 88.2667 244.991 87.856 244.991 87.312C244.991 86.7573 244.852 86.3413 244.575 86.064C244.297 85.776 243.972 85.632 243.599 85.632C243.225 85.632 242.889 85.776 242.591 86.064C242.303 86.3413 242.159 86.7573 242.159 87.312C242.159 87.856 242.303 88.2667 242.591 88.544C242.879 88.8213 243.209 88.96 243.583 88.96ZM249.567 96.192C249.087 96.192 248.649 96.0853 248.255 95.872C247.871 95.648 247.567 95.3387 247.343 94.944C247.119 94.5387 247.007 94.0587 247.007 93.504C247.007 92.9493 247.119 92.4747 247.343 92.08C247.577 91.6747 247.887 91.3653 248.271 91.152C248.655 90.928 249.087 90.816 249.567 90.816C250.047 90.816 250.479 90.928 250.863 91.152C251.247 91.3653 251.551 91.6747 251.775 92.08C251.999 92.4747 252.111 92.9493 252.111 93.504C252.111 94.0587 251.999 94.5387 251.775 94.944C251.551 95.3387 251.247 95.648 250.863 95.872C250.479 96.0853 250.047 96.192 249.567 96.192ZM249.551 95.152C249.935 95.152 250.265 95.0133 250.543 94.736C250.831 94.4587 250.975 94.048 250.975 93.504C250.975 92.9493 250.836 92.5333 250.559 92.256C250.281 91.9787 249.951 91.84 249.567 91.84C249.193 91.84 248.863 91.9787 248.575 92.256C248.287 92.5333 248.143 92.9493 248.143 93.504C248.143 94.048 248.281 94.4587 248.559 94.736C248.847 95.0133 249.177 95.152 249.551 95.152Z" fill="#040404"/>
<path d="M41.184 146V134.8H44.624C46.5973 134.8 48.048 135.301 48.976 136.304C49.9147 137.307 50.384 138.683 50.384 140.432C50.384 142.149 49.9147 143.509 48.976 144.512C48.048 145.504 46.5973 146 44.624 146H41.184ZM42.528 144.88H44.592C45.68 144.88 46.544 144.704 47.184 144.352C47.8347 143.989 48.2987 143.477 48.576 142.816C48.8533 142.144 48.992 141.349 48.992 140.432C48.992 139.493 48.8533 138.688 48.576 138.016C48.2987 137.344 47.8347 136.827 47.184 136.464C46.544 136.101 45.68 135.92 44.592 135.92H42.528V144.88ZM55.8126 146.192C55.0553 146.192 54.3833 146.021 53.7966 145.68C53.21 145.328 52.746 144.843 52.4046 144.224C52.074 143.605 51.9086 142.875 51.9086 142.032C51.9086 141.2 52.074 140.475 52.4046 139.856C52.7353 139.227 53.194 138.741 53.7806 138.4C54.378 138.048 55.066 137.872 55.8446 137.872C56.6126 137.872 57.274 138.048 57.8286 138.4C58.394 138.741 58.826 139.195 59.1246 139.76C59.4233 140.325 59.5726 140.933 59.5726 141.584C59.5726 141.701 59.5673 141.819 59.5566 141.936C59.5566 142.053 59.5566 142.187 59.5566 142.336H53.2366C53.2686 142.944 53.4073 143.451 53.6526 143.856C53.9086 144.251 54.2233 144.549 54.5966 144.752C54.9806 144.955 55.386 145.056 55.8126 145.056C56.3673 145.056 56.8313 144.928 57.2046 144.672C57.578 144.416 57.85 144.069 58.0206 143.632H59.3486C59.1353 144.368 58.7246 144.981 58.1166 145.472C57.5193 145.952 56.7513 146.192 55.8126 146.192ZM55.8126 139.008C55.1726 139.008 54.602 139.205 54.1006 139.6C53.61 139.984 53.3273 140.549 53.2526 141.296H58.2446C58.2126 140.581 57.9673 140.021 57.5086 139.616C57.05 139.211 56.4846 139.008 55.8126 139.008ZM63.3295 146L60.3215 138.064H61.7295L64.1135 144.704L66.5135 138.064H67.8895L64.8815 146H63.3295ZM72.547 146.192C71.7897 146.192 71.1177 146.021 70.531 145.68C69.9443 145.328 69.4803 144.843 69.139 144.224C68.8083 143.605 68.643 142.875 68.643 142.032C68.643 141.2 68.8083 140.475 69.139 139.856C69.4697 139.227 69.9283 138.741 70.515 138.4C71.1123 138.048 71.8003 137.872 72.579 137.872C73.347 137.872 74.0083 138.048 74.563 138.4C75.1283 138.741 75.5603 139.195 75.859 139.76C76.1577 140.325 76.307 140.933 76.307 141.584C76.307 141.701 76.3017 141.819 76.291 141.936C76.291 142.053 76.291 142.187 76.291 142.336H69.971C70.003 142.944 70.1417 143.451 70.387 143.856C70.643 144.251 70.9577 144.549 71.331 144.752C71.715 144.955 72.1203 145.056 72.547 145.056C73.1017 145.056 73.5657 144.928 73.939 144.672C74.3123 144.416 74.5843 144.069 74.755 143.632H76.083C75.8697 144.368 75.459 144.981 74.851 145.472C74.2537 145.952 73.4857 146.192 72.547 146.192ZM72.547 139.008C71.907 139.008 71.3363 139.205 70.835 139.6C70.3443 139.984 70.0617 140.549 69.987 141.296H74.979C74.947 140.581 74.7017 140.021 74.243 139.616C73.7843 139.211 73.219 139.008 72.547 139.008ZM78.0884 146V134.48H79.4324V146H78.0884ZM85.2513 146.192C84.5046 146.192 83.8326 146.021 83.2353 145.68C82.6379 145.339 82.1633 144.859 81.8113 144.24C81.4699 143.611 81.2993 142.875 81.2993 142.032C81.2993 141.189 81.4753 140.459 81.8273 139.84C82.1793 139.211 82.6539 138.725 83.2513 138.384C83.8593 138.043 84.5366 137.872 85.2833 137.872C86.0299 137.872 86.7019 138.043 87.2993 138.384C87.8966 138.725 88.3659 139.211 88.7073 139.84C89.0593 140.459 89.2353 141.189 89.2353 142.032C89.2353 142.875 89.0593 143.611 88.7073 144.24C88.3553 144.859 87.8753 145.339 87.2673 145.68C86.6699 146.021 85.9979 146.192 85.2513 146.192ZM85.2513 145.04C85.7099 145.04 86.1366 144.928 86.5313 144.704C86.9259 144.48 87.2459 144.144 87.4913 143.696C87.7366 143.248 87.8593 142.693 87.8593 142.032C87.8593 141.371 87.7366 140.816 87.4913 140.368C87.2566 139.92 86.9419 139.584 86.5473 139.36C86.1526 139.136 85.7313 139.024 85.2833 139.024C84.8246 139.024 84.3979 139.136 84.0033 139.36C83.6086 139.584 83.2886 139.92 83.0433 140.368C82.7979 140.816 82.6753 141.371 82.6753 142.032C82.6753 142.693 82.7979 143.248 83.0433 143.696C83.2886 144.144 83.6033 144.48 83.9873 144.704C84.3819 144.928 84.8033 145.04 85.2513 145.04ZM91.104 149.52V138.064H92.32L92.448 139.376C92.704 138.992 93.0667 138.645 93.536 138.336C94.016 138.027 94.624 137.872 95.36 137.872C96.1493 137.872 96.8373 138.053 97.424 138.416C98.0107 138.779 98.464 139.275 98.784 139.904C99.1147 140.533 99.28 141.248 99.28 142.048C99.28 142.848 99.1147 143.563 98.784 144.192C98.464 144.811 98.0053 145.301 97.408 145.664C96.8213 146.016 96.1333 146.192 95.344 146.192C94.6933 146.192 94.112 146.059 93.6 145.792C93.0987 145.525 92.7147 145.152 92.448 144.672V149.52H91.104ZM95.2 145.024C95.7333 145.024 96.2027 144.901 96.608 144.656C97.0133 144.4 97.3333 144.048 97.568 143.6C97.8027 143.152 97.92 142.629 97.92 142.032C97.92 141.435 97.8027 140.912 97.568 140.464C97.3333 140.016 97.0133 139.669 96.608 139.424C96.2027 139.168 95.7333 139.04 95.2 139.04C94.6667 139.04 94.1973 139.168 93.792 139.424C93.3867 139.669 93.0667 140.016 92.832 140.464C92.5973 140.912 92.48 141.435 92.48 142.032C92.48 142.629 92.5973 143.152 92.832 143.6C93.0667 144.048 93.3867 144.4 93.792 144.656C94.1973 144.901 94.6667 145.024 95.2 145.024ZM101.151 146V138.064H102.367L102.463 139.216C102.719 138.789 103.06 138.459 103.487 138.224C103.914 137.989 104.394 137.872 104.927 137.872C105.556 137.872 106.095 138 106.543 138.256C107.002 138.512 107.354 138.901 107.599 139.424C107.876 138.944 108.255 138.565 108.735 138.288C109.226 138.011 109.754 137.872 110.319 137.872C111.268 137.872 112.026 138.16 112.591 138.736C113.156 139.301 113.439 140.176 113.439 141.36V146H112.111V141.504C112.111 140.683 111.946 140.064 111.615 139.648C111.284 139.232 110.81 139.024 110.191 139.024C109.551 139.024 109.018 139.275 108.591 139.776C108.175 140.267 107.967 140.971 107.967 141.888V146H106.623V141.504C106.623 140.683 106.458 140.064 106.127 139.648C105.796 139.232 105.322 139.024 104.703 139.024C104.074 139.024 103.546 139.275 103.119 139.776C102.703 140.267 102.495 140.971 102.495 141.888V146H101.151ZM119.031 146.192C118.274 146.192 117.602 146.021 117.015 145.68C116.429 145.328 115.965 144.843 115.623 144.224C115.293 143.605 115.127 142.875 115.127 142.032C115.127 141.2 115.293 140.475 115.623 139.856C115.954 139.227 116.413 138.741 116.999 138.4C117.597 138.048 118.285 137.872 119.063 137.872C119.831 137.872 120.493 138.048 121.047 138.4C121.613 138.741 122.045 139.195 122.343 139.76C122.642 140.325 122.791 140.933 122.791 141.584C122.791 141.701 122.786 141.819 122.775 141.936C122.775 142.053 122.775 142.187 122.775 142.336H116.455C116.487 142.944 116.626 143.451 116.871 143.856C117.127 144.251 117.442 144.549 117.815 144.752C118.199 144.955 118.605 145.056 119.031 145.056C119.586 145.056 120.05 144.928 120.423 144.672C120.797 144.416 121.069 144.069 121.239 143.632H122.567C122.354 144.368 121.943 144.981 121.335 145.472C120.738 145.952 119.97 146.192 119.031 146.192ZM119.031 139.008C118.391 139.008 117.821 139.205 117.319 139.6C116.829 139.984 116.546 140.549 116.471 141.296H121.463C121.431 140.581 121.186 140.021 120.727 139.616C120.269 139.211 119.703 139.008 119.031 139.008ZM124.573 146V138.064H125.789L125.869 139.488C126.125 138.987 126.493 138.592 126.973 138.304C127.453 138.016 127.997 137.872 128.605 137.872C129.543 137.872 130.29 138.16 130.845 138.736C131.41 139.301 131.693 140.176 131.693 141.36V146H130.349V141.504C130.349 139.851 129.666 139.024 128.301 139.024C127.618 139.024 127.047 139.275 126.589 139.776C126.141 140.267 125.917 140.971 125.917 141.888V146H124.573ZM136.865 146C136.14 146 135.569 145.824 135.153 145.472C134.737 145.12 134.529 144.485 134.529 143.568V139.2H133.153V138.064H134.529L134.705 136.16H135.873V138.064H138.209V139.2H135.873V143.568C135.873 144.069 135.974 144.411 136.177 144.592C136.38 144.763 136.737 144.848 137.249 144.848H138.081V146H136.865Z" fill="#040404" fill-opacity="0.8"/>
<path d="M232.242 146V145.056C233 144.459 233.714 143.856 234.386 143.248C235.069 142.629 235.672 142.021 236.194 141.424C236.728 140.827 237.144 140.24 237.442 139.664C237.752 139.088 237.906 138.533 237.906 138C237.906 137.605 237.837 137.237 237.698 136.896C237.57 136.555 237.357 136.283 237.058 136.08C236.76 135.867 236.354 135.76 235.842 135.76C235.352 135.76 234.941 135.872 234.61 136.096C234.28 136.309 234.029 136.597 233.858 136.96C233.698 137.323 233.618 137.712 233.618 138.128H232.322C232.322 137.392 232.477 136.763 232.786 136.24C233.096 135.707 233.517 135.301 234.05 135.024C234.584 134.747 235.186 134.608 235.858 134.608C236.85 134.608 237.661 134.891 238.29 135.456C238.93 136.011 239.25 136.843 239.25 137.952C239.25 138.613 239.085 139.269 238.754 139.92C238.424 140.56 238.002 141.184 237.49 141.792C236.978 142.389 236.429 142.949 235.842 143.472C235.266 143.995 234.728 144.464 234.226 144.88H239.634V146H232.242ZM243.591 140C243.111 140 242.673 139.893 242.279 139.68C241.895 139.456 241.591 139.147 241.367 138.752C241.143 138.347 241.031 137.867 241.031 137.312C241.031 136.757 241.143 136.283 241.367 135.888C241.601 135.483 241.911 135.173 242.295 134.96C242.689 134.736 243.127 134.624 243.607 134.624C244.087 134.624 244.519 134.736 244.903 134.96C245.287 135.173 245.591 135.483 245.815 135.888C246.039 136.283 246.151 136.757 246.151 137.312C246.151 137.867 246.033 138.347 245.799 138.752C245.575 139.147 245.271 139.456 244.887 139.68C244.503 139.893 244.071 140 243.591 140ZM242.599 146L249.111 134.8H250.455L243.943 146H242.599ZM243.591 138.96C243.964 138.96 244.289 138.821 244.567 138.544C244.855 138.267 244.999 137.856 244.999 137.312C244.999 136.757 244.86 136.341 244.583 136.064C244.305 135.776 243.98 135.632 243.607 135.632C243.233 135.632 242.897 135.776 242.599 136.064C242.311 136.341 242.167 136.757 242.167 137.312C242.167 137.856 242.311 138.267 242.599 138.544C242.887 138.821 243.217 138.96 243.591 138.96ZM249.575 146.192C249.095 146.192 248.657 146.085 248.263 145.872C247.879 145.648 247.575 145.339 247.351 144.944C247.127 144.539 247.015 144.059 247.015 143.504C247.015 142.949 247.127 142.475 247.351 142.08C247.585 141.675 247.895 141.365 248.279 141.152C248.663 140.928 249.095 140.816 249.575 140.816C250.055 140.816 250.487 140.928 250.871 141.152C251.255 141.365 251.559 141.675 251.783 142.08C252.007 142.475 252.119 142.949 252.119 143.504C252.119 144.059 252.007 144.539 251.783 144.944C251.559 145.339 251.255 145.648 250.871 145.872C250.487 146.085 250.055 146.192 249.575 146.192ZM249.559 145.152C249.943 145.152 250.273 145.013 250.551 144.736C250.839 144.459 250.983 144.048 250.983 143.504C250.983 142.949 250.844 142.533 250.567 142.256C250.289 141.979 249.959 141.84 249.575 141.84C249.201 141.84 248.871 141.979 248.583 142.256C248.295 142.533 248.151 142.949 248.151 143.504C248.151 144.048 248.289 144.459 248.567 144.736C248.855 145.013 249.185 145.152 249.559 145.152Z" fill="#040404"/>
<path d="M41.184 196V184.8H42.528V194.928H47.744V196H41.184ZM50.3263 186.304C50.0596 186.304 49.8356 186.219 49.6543 186.048C49.4836 185.867 49.3983 185.643 49.3983 185.376C49.3983 185.12 49.4836 184.907 49.6543 184.736C49.8356 184.565 50.0596 184.48 50.3263 184.48C50.5823 184.48 50.8009 184.565 50.9823 184.736C51.1636 184.907 51.2543 185.12 51.2543 185.376C51.2543 185.643 51.1636 185.867 50.9823 186.048C50.8009 186.219 50.5823 186.304 50.3263 186.304ZM49.6543 196V188.064H50.9983V196H49.6543ZM59.8504 199.52V194.688C59.5944 195.072 59.2264 195.419 58.7464 195.728C58.2664 196.037 57.6637 196.192 56.9384 196.192C56.149 196.192 55.4557 196.011 54.8584 195.648C54.2717 195.285 53.813 194.789 53.4824 194.16C53.1624 193.531 53.0024 192.816 53.0024 192.016C53.0024 191.216 53.1677 190.507 53.4984 189.888C53.829 189.259 54.2877 188.768 54.8744 188.416C55.461 188.053 56.1544 187.872 56.9544 187.872C57.605 187.872 58.181 188.005 58.6824 188.272C59.1837 188.539 59.573 188.912 59.8504 189.392L59.9784 188.064H61.1944V199.52H59.8504ZM57.0824 195.024C57.6157 195.024 58.085 194.901 58.4904 194.656C58.9064 194.4 59.2264 194.048 59.4504 193.6C59.685 193.152 59.8024 192.629 59.8024 192.032C59.8024 191.435 59.685 190.912 59.4504 190.464C59.2264 190.016 58.9064 189.669 58.4904 189.424C58.085 189.168 57.6157 189.04 57.0824 189.04C56.5597 189.04 56.0904 189.168 55.6744 189.424C55.269 189.669 54.949 190.016 54.7144 190.464C54.4904 190.912 54.3784 191.435 54.3784 192.032C54.3784 192.629 54.4904 193.152 54.7144 193.6C54.949 194.048 55.269 194.4 55.6744 194.656C56.0904 194.901 56.5597 195.024 57.0824 195.024ZM66.2812 196.192C65.3426 196.192 64.5959 195.909 64.0413 195.344C63.4866 194.768 63.2093 193.888 63.2093 192.704V188.064H64.5533V192.56C64.5533 194.213 65.2306 195.04 66.5853 195.04C67.2786 195.04 67.8493 194.795 68.2973 194.304C68.7559 193.803 68.9853 193.093 68.9853 192.176V188.064H70.3293V196H69.1133L69.0173 194.576C68.7719 195.077 68.4039 195.472 67.9133 195.76C67.4333 196.048 66.8893 196.192 66.2812 196.192ZM73.3575 186.304C73.0908 186.304 72.8668 186.219 72.6855 186.048C72.5148 185.867 72.4295 185.643 72.4295 185.376C72.4295 185.12 72.5148 184.907 72.6855 184.736C72.8668 184.565 73.0908 184.48 73.3575 184.48C73.6135 184.48 73.8322 184.565 74.0135 184.736C74.1948 184.907 74.2855 185.12 74.2855 185.376C74.2855 185.643 74.1948 185.867 74.0135 186.048C73.8322 186.219 73.6135 186.304 73.3575 186.304ZM72.6855 196V188.064H74.0295V196H72.6855ZM79.9696 196.192C79.1803 196.192 78.487 196.011 77.8896 195.648C77.303 195.285 76.8443 194.789 76.5136 194.16C76.1936 193.531 76.0336 192.816 76.0336 192.016C76.0336 191.216 76.199 190.507 76.5296 189.888C76.8603 189.259 77.319 188.768 77.9056 188.416C78.4923 188.053 79.1856 187.872 79.9856 187.872C80.6363 187.872 81.2123 188.005 81.7136 188.272C82.215 188.539 82.6043 188.912 82.8816 189.392V184.48H84.2256V196H83.0096L82.8816 194.688C82.6256 195.072 82.2576 195.419 81.7776 195.728C81.2976 196.037 80.695 196.192 79.9696 196.192ZM80.1136 195.024C80.647 195.024 81.1163 194.901 81.5216 194.656C81.9376 194.4 82.2576 194.048 82.4816 193.6C82.7163 193.152 82.8336 192.629 82.8336 192.032C82.8336 191.435 82.7163 190.912 82.4816 190.464C82.2576 190.016 81.9376 189.669 81.5216 189.424C81.1163 189.168 80.647 189.04 80.1136 189.04C79.591 189.04 79.1216 189.168 78.7056 189.424C78.3003 189.669 77.9803 190.016 77.7456 190.464C77.5216 190.912 77.4096 191.435 77.4096 192.032C77.4096 192.629 77.5216 193.152 77.7456 193.6C77.9803 194.048 78.3003 194.4 78.7056 194.656C79.1216 194.901 79.591 195.024 80.1136 195.024ZM87.2325 186.304C86.9658 186.304 86.7418 186.219 86.5605 186.048C86.3898 185.867 86.3045 185.643 86.3045 185.376C86.3045 185.12 86.3898 184.907 86.5605 184.736C86.7418 184.565 86.9658 184.48 87.2325 184.48C87.4885 184.48 87.7072 184.565 87.8885 184.736C88.0698 184.907 88.1605 185.12 88.1605 185.376C88.1605 185.643 88.0698 185.867 87.8885 186.048C87.7072 186.219 87.4885 186.304 87.2325 186.304ZM86.5605 196V188.064H87.9045V196H86.5605ZM93.3806 196C92.6553 196 92.0846 195.824 91.6686 195.472C91.2526 195.12 91.0446 194.485 91.0446 193.568V189.2H89.6686V188.064H91.0446L91.2206 186.16H92.3886V188.064H94.7246V189.2H92.3886V193.568C92.3886 194.069 92.49 194.411 92.6926 194.592C92.8953 194.763 93.2526 194.848 93.7646 194.848H94.5966V196H93.3806ZM97.2961 199.52L99.2641 195.232H98.8001L95.6481 188.064H97.1041L99.7281 194.24L102.512 188.064H103.904L98.7041 199.52H97.2961Z" fill="#040404" fill-opacity="0.8"/>
<path d="M237.686 196V186.304L235.878 186.704V185.776L238.134 184.8H239.046V196H237.686ZM243.427 190C242.947 190 242.509 189.893 242.115 189.68C241.731 189.456 241.427 189.147 241.203 188.752C240.979 188.347 240.867 187.867 240.867 187.312C240.867 186.757 240.979 186.283 241.203 185.888C241.437 185.483 241.747 185.173 242.131 184.96C242.525 184.736 242.963 184.624 243.443 184.624C243.923 184.624 244.355 184.736 244.739 184.96C245.123 185.173 245.427 185.483 245.651 185.888C245.875 186.283 245.987 186.757 245.987 187.312C245.987 187.867 245.869 188.347 245.635 188.752C245.411 189.147 245.107 189.456 244.723 189.68C244.339 189.893 243.907 190 243.427 190ZM242.435 196L248.947 184.8H250.291L243.779 196H242.435ZM243.427 188.96C243.8 188.96 244.125 188.821 244.403 188.544C244.691 188.267 244.835 187.856 244.835 187.312C244.835 186.757 244.696 186.341 244.419 186.064C244.141 185.776 243.816 185.632 243.443 185.632C243.069 185.632 242.733 185.776 242.435 186.064C242.147 186.341 242.003 186.757 242.003 187.312C242.003 187.856 242.147 188.267 242.435 188.544C242.723 188.821 243.053 188.96 243.427 188.96ZM249.411 196.192C248.931 196.192 248.493 196.085 248.099 195.872C247.715 195.648 247.411 195.339 247.187 194.944C246.963 194.539 246.851 194.059 246.851 193.504C246.851 192.949 246.963 192.475 247.187 192.08C247.421 191.675 247.731 191.365 248.115 191.152C248.499 190.928 248.931 190.816 249.411 190.816C249.891 190.816 250.323 190.928 250.707 191.152C251.091 191.365 251.395 191.675 251.619 192.08C251.843 192.475 251.955 192.949 251.955 193.504C251.955 194.059 251.843 194.539 251.619 194.944C251.395 195.339 251.091 195.648 250.707 195.872C250.323 196.085 249.891 196.192 249.411 196.192ZM249.395 195.152C249.779 195.152 250.109 195.013 250.387 194.736C250.675 194.459 250.819 194.048 250.819 193.504C250.819 192.949 250.68 192.533 250.403 192.256C250.125 191.979 249.795 191.84 249.411 191.84C249.037 191.84 248.707 191.979 248.419 192.256C248.131 192.533 247.987 192.949 247.987 193.504C247.987 194.048 248.125 194.459 248.403 194.736C248.691 195.013 249.021 195.152 249.395 195.152Z" fill="#040404"/>
<rect y="28" width="24" height="24" rx="6" fill="#F79726"/>
<rect y="78" width="24" height="24" rx="6" fill="#6DB8FF"/>
<rect y="128" width="24" height="24" rx="6" fill="#FF6C76"/>
<rect y="178" width="24" height="24" rx="6" fill="#4BAAB3"/>
<path d="M531.61 64.9633C527.138 57.0172 521.826 49.5739 515.766 42.7609L420.5 127.5L531.61 64.9633Z" fill="#6DB8FF"/>
<path d="M516.365 43.4392C512.583 39.1264 508.514 35.0738 504.187 31.3088L420.5 127.5L516.365 43.4392Z" fill="#FF6C76"/>
<path d="M504.116 31.2468C501.931 29.3487 499.682 27.5255 497.372 25.7804L420.5 127.5L504.116 31.2468Z" fill="#4BAAB3"/>
<path d="M498.74 26.8283C475.986 9.14468 447.913 -0.309297 419.097 0.00771505C390.282 0.324727 362.424 10.394 340.064 28.5739C317.705 46.7538 302.164 71.9719 295.975 100.117C289.786 128.262 293.314 157.673 305.984 183.556C318.653 209.439 339.717 230.266 365.742 242.642C391.766 255.019 421.215 258.214 449.288 251.707C477.361 245.201 502.402 229.376 520.329 206.813C538.255 184.25 548.009 156.279 548 127.462L420.5 127.5L498.74 26.8283Z" fill="#F2F9FF"/>
<path d="M548 127.5C548 105.462 542.288 83.8011 531.421 64.6291L420.5 127.5H548Z" fill="#F79726"/>
<g filter="url(#filter0_f_0_1)">
<path d="M546.729 145.461C549.833 123.643 547.229 101.393 539.172 80.8817L420.5 127.5L546.729 145.461Z" fill="#F79726" fill-opacity="0.5"/>
</g>
<defs>
<filter id="filter0_f_0_1" x="395.5" y="55.8818" width="177.5" height="114.579" filterUnits="userSpaceOnUse" color-interpolation-filters="sRGB">
<feFlood flood-opacity="0" result="BackgroundImageFix"/>
<feBlend mode="normal" in="SourceGraphic" in2="BackgroundImageFix" result="shape"/>
<feGaussianBlur stdDeviation="12.5" result="effect1_foregroundBlur_0_1"/>
</filter>
</defs>
</svg>
