<svg width="616" height="582" viewBox="0 0 616 582" fill="none" xmlns="http://www.w3.org/2000/svg">
<g filter="url(#filter0_d_89_253)">
<rect x="80" y="40" width="456" height="422" rx="20" fill="white"/>
<rect x="100" y="146" width="416" height="1" rx="0.5" fill="#F0F2F9"/>
<rect x="100" y="327" width="416" height="1" rx="0.5" fill="#F0F2F9"/>
<path d="M80 60C80 48.9543 88.9543 40 100 40H516C527.046 40 536 48.9543 536 60V80H80V60Z" fill="#F2F9FF"/>
<path d="M101.88 112V110.26H104.76L105.46 107.04H107.36L106.66 110.26H109.38L110.08 107.04H112L111.3 110.26H113.9V112H110.92L110.28 114.98H112.92V116.72H109.92L109.22 120H107.3L108 116.72H105.28L104.58 120H102.68L103.38 116.72H100.9V114.98H103.74L104.38 112H101.88ZM106.28 112L105.64 114.98H108.36L109 112H106.28ZM129.625 116.26L132.405 105.82H134.885L130.905 120H128.425L124.985 109.28L121.545 120H119.085L115.065 105.82H117.585L120.425 116.18L123.745 105.82H126.245L129.625 116.26ZM138.957 114.28V120H136.637V105.52H138.957V111.2C139.583 110.387 140.51 109.98 141.737 109.98C142.883 109.98 143.763 110.34 144.377 111.06C144.99 111.78 145.297 112.707 145.297 113.84V120H142.977V114.24C142.977 113.587 142.817 113.067 142.497 112.68C142.177 112.28 141.67 112.08 140.977 112.08C140.363 112.08 139.877 112.287 139.517 112.7C139.17 113.113 138.983 113.64 138.957 114.28ZM150.421 120H148.121V110.26H150.421V120ZM148.201 107.9C147.908 107.607 147.761 107.253 147.761 106.84C147.761 106.427 147.908 106.073 148.201 105.78C148.494 105.473 148.848 105.32 149.261 105.32C149.688 105.32 150.048 105.467 150.341 105.76C150.634 106.053 150.781 106.413 150.781 106.84C150.781 107.253 150.634 107.607 150.341 107.9C150.048 108.193 149.688 108.34 149.261 108.34C148.848 108.34 148.494 108.193 148.201 107.9ZM156.354 107.28V110.26H158.374V112.32H156.354V116.84C156.354 117.267 156.454 117.58 156.654 117.78C156.854 117.967 157.167 118.06 157.594 118.06C157.861 118.06 158.127 118.033 158.394 117.98V119.9C158.047 120.047 157.574 120.12 156.974 120.12C156.067 120.12 155.354 119.867 154.834 119.36C154.314 118.84 154.054 118.127 154.054 117.22V112.32H152.254V110.26H152.754C153.247 110.26 153.621 110.12 153.874 109.84C154.127 109.56 154.254 109.193 154.254 108.74V107.28H156.354ZM162.28 114.06H167.06C167.033 113.447 166.813 112.933 166.4 112.52C166 112.107 165.42 111.9 164.66 111.9C163.967 111.9 163.407 112.12 162.98 112.56C162.553 112.987 162.32 113.487 162.28 114.06ZM167.32 116.6L169.28 117.22C169 118.113 168.473 118.853 167.7 119.44C166.94 120.013 166 120.3 164.88 120.3C163.493 120.3 162.313 119.827 161.34 118.88C160.38 117.933 159.9 116.667 159.9 115.08C159.9 113.587 160.367 112.36 161.3 111.4C162.247 110.44 163.36 109.96 164.64 109.96C166.133 109.96 167.3 110.42 168.14 111.34C168.98 112.247 169.4 113.473 169.4 115.02C169.4 115.433 169.38 115.68 169.34 115.76H162.22C162.247 116.493 162.513 117.1 163.02 117.58C163.54 118.06 164.16 118.3 164.88 118.3C166.133 118.3 166.947 117.733 167.32 116.6ZM173.937 120H171.617V105.52H173.937V120ZM179.23 120H176.93V110.26H179.23V120ZM177.01 107.9C176.716 107.607 176.57 107.253 176.57 106.84C176.57 106.427 176.716 106.073 177.01 105.78C177.303 105.473 177.656 105.32 178.07 105.32C178.496 105.32 178.856 105.467 179.15 105.76C179.443 106.053 179.59 106.413 179.59 106.84C179.59 107.253 179.443 107.607 179.15 107.9C178.856 108.193 178.496 108.34 178.07 108.34C177.656 108.34 177.303 108.193 177.01 107.9ZM181.363 117.36L183.383 116.8C183.423 117.267 183.616 117.66 183.963 117.98C184.309 118.3 184.776 118.46 185.363 118.46C185.816 118.46 186.169 118.353 186.423 118.14C186.689 117.927 186.823 117.66 186.823 117.34C186.823 116.78 186.443 116.42 185.683 116.26L184.243 115.94C183.403 115.753 182.756 115.407 182.303 114.9C181.849 114.393 181.623 113.793 181.623 113.1C181.623 112.247 181.969 111.513 182.663 110.9C183.356 110.273 184.203 109.96 185.203 109.96C185.843 109.96 186.409 110.053 186.903 110.24C187.396 110.427 187.776 110.673 188.043 110.98C188.323 111.273 188.536 111.56 188.683 111.84C188.829 112.12 188.923 112.4 188.963 112.68L187.003 113.24C186.949 112.867 186.776 112.533 186.483 112.24C186.203 111.933 185.776 111.78 185.203 111.78C184.803 111.78 184.469 111.893 184.203 112.12C183.936 112.333 183.803 112.593 183.803 112.9C183.803 113.447 184.129 113.787 184.783 113.92L186.263 114.22C187.169 114.42 187.863 114.78 188.343 115.3C188.823 115.82 189.063 116.447 189.063 117.18C189.063 117.993 188.736 118.72 188.083 119.36C187.443 119.987 186.543 120.3 185.383 120.3C184.716 120.3 184.116 120.2 183.583 120C183.063 119.8 182.649 119.547 182.343 119.24C182.049 118.92 181.816 118.607 181.643 118.3C181.483 117.98 181.389 117.667 181.363 117.36ZM194.303 107.28V110.26H196.323V112.32H194.303V116.84C194.303 117.267 194.403 117.58 194.603 117.78C194.803 117.967 195.117 118.06 195.543 118.06C195.81 118.06 196.077 118.033 196.343 117.98V119.9C195.997 120.047 195.523 120.12 194.923 120.12C194.017 120.12 193.303 119.867 192.783 119.36C192.263 118.84 192.003 118.127 192.003 117.22V112.32H190.203V110.26H190.703C191.197 110.26 191.57 110.12 191.823 109.84C192.077 109.56 192.203 109.193 192.203 108.74V107.28H194.303ZM214.009 108.08H209.389V120H206.989V108.08H202.389V105.82H214.009V108.08ZM217.823 120H215.523V110.26H217.823V120ZM215.603 107.9C215.31 107.607 215.163 107.253 215.163 106.84C215.163 106.427 215.31 106.073 215.603 105.78C215.897 105.473 216.25 105.32 216.663 105.32C217.09 105.32 217.45 105.467 217.743 105.76C218.037 106.053 218.183 106.413 218.183 106.84C218.183 107.253 218.037 107.607 217.743 107.9C217.45 108.193 217.09 108.34 216.663 108.34C216.25 108.34 215.897 108.193 215.603 107.9ZM222.436 114.06H227.216C227.19 113.447 226.97 112.933 226.556 112.52C226.156 112.107 225.576 111.9 224.816 111.9C224.123 111.9 223.563 112.12 223.136 112.56C222.71 112.987 222.476 113.487 222.436 114.06ZM227.476 116.6L229.436 117.22C229.156 118.113 228.63 118.853 227.856 119.44C227.096 120.013 226.156 120.3 225.036 120.3C223.65 120.3 222.47 119.827 221.496 118.88C220.536 117.933 220.056 116.667 220.056 115.08C220.056 113.587 220.523 112.36 221.456 111.4C222.403 110.44 223.516 109.96 224.796 109.96C226.29 109.96 227.456 110.42 228.296 111.34C229.136 112.247 229.556 113.473 229.556 115.02C229.556 115.433 229.536 115.68 229.496 115.76H222.376C222.403 116.493 222.67 117.1 223.176 117.58C223.696 118.06 224.316 118.3 225.036 118.3C226.29 118.3 227.103 117.733 227.476 116.6ZM237.473 110.2V112.56C237.207 112.52 236.953 112.5 236.713 112.5C234.967 112.5 234.093 113.453 234.093 115.36V120H231.773V110.26H234.033V111.82C234.26 111.3 234.627 110.893 235.133 110.6C235.64 110.293 236.213 110.14 236.853 110.14C237.067 110.14 237.273 110.16 237.473 110.2ZM248.892 120H246.532V111.12H243.392V109.48C244.299 109.467 245.059 109.233 245.672 108.78C246.285 108.313 246.665 107.733 246.812 107.04H248.892V120ZM259.113 123.8H256.813V110.26H259.053V111.58C259.306 111.14 259.706 110.773 260.253 110.48C260.799 110.187 261.433 110.04 262.153 110.04C263.553 110.04 264.653 110.52 265.453 111.48C266.253 112.427 266.653 113.64 266.653 115.12C266.653 116.6 266.233 117.827 265.393 118.8C264.553 119.76 263.446 120.24 262.073 120.24C261.406 120.24 260.813 120.113 260.293 119.86C259.773 119.607 259.379 119.287 259.113 118.9V123.8ZM264.333 115.12C264.333 114.213 264.093 113.487 263.613 112.94C263.133 112.38 262.499 112.1 261.713 112.1C260.939 112.1 260.306 112.38 259.813 112.94C259.333 113.487 259.093 114.213 259.093 115.12C259.093 116.04 259.333 116.78 259.813 117.34C260.306 117.9 260.939 118.18 261.713 118.18C262.486 118.18 263.113 117.9 263.593 117.34C264.086 116.78 264.333 116.04 264.333 115.12ZM274.583 110.2V112.56C274.316 112.52 274.063 112.5 273.823 112.5C272.076 112.5 271.203 113.453 271.203 115.36V120H268.883V110.26H271.143V111.82C271.369 111.3 271.736 110.893 272.243 110.6C272.749 110.293 273.323 110.14 273.963 110.14C274.176 110.14 274.383 110.16 274.583 110.2ZM278.82 120H276.52V110.26H278.82V120ZM276.6 107.9C276.306 107.607 276.16 107.253 276.16 106.84C276.16 106.427 276.306 106.073 276.6 105.78C276.893 105.473 277.246 105.32 277.66 105.32C278.086 105.32 278.446 105.467 278.74 105.76C279.033 106.053 279.18 106.413 279.18 106.84C279.18 107.253 279.033 107.607 278.74 107.9C278.446 108.193 278.086 108.34 277.66 108.34C277.246 108.34 276.893 108.193 276.6 107.9ZM290.613 110.26L286.793 120H284.473L280.513 110.26H283.073L285.653 117.22L288.173 110.26H290.613ZM291.662 117.36C291.662 116.533 291.928 115.873 292.462 115.38C293.008 114.873 293.722 114.553 294.602 114.42L297.102 114.04C297.582 113.973 297.822 113.74 297.822 113.34C297.822 112.9 297.668 112.547 297.362 112.28C297.055 112 296.595 111.86 295.982 111.86C295.395 111.86 294.928 112.027 294.582 112.36C294.235 112.68 294.035 113.1 293.982 113.62L291.862 113.14C291.955 112.26 292.375 111.513 293.122 110.9C293.868 110.273 294.815 109.96 295.962 109.96C297.375 109.96 298.415 110.3 299.082 110.98C299.762 111.66 300.102 112.533 300.102 113.6V118.44C300.102 119.08 300.142 119.6 300.222 120H298.062C297.995 119.8 297.962 119.387 297.962 118.76C297.322 119.787 296.322 120.3 294.962 120.3C293.975 120.3 293.175 120.013 292.562 119.44C291.962 118.853 291.662 118.16 291.662 117.36ZM295.402 118.48C296.122 118.48 296.702 118.287 297.142 117.9C297.595 117.5 297.822 116.853 297.822 115.96V115.52L295.282 115.9C294.415 116.047 293.982 116.487 293.982 117.22C293.982 117.567 294.108 117.867 294.362 118.12C294.615 118.36 294.962 118.48 295.402 118.48ZM305.807 107.28V110.26H307.827V112.32H305.807V116.84C305.807 117.267 305.907 117.58 306.107 117.78C306.307 117.967 306.621 118.06 307.047 118.06C307.314 118.06 307.581 118.033 307.847 117.98V119.9C307.501 120.047 307.027 120.12 306.427 120.12C305.521 120.12 304.807 119.867 304.287 119.36C303.767 118.84 303.507 118.127 303.507 117.22V112.32H301.707V110.26H302.207C302.701 110.26 303.074 110.12 303.327 109.84C303.581 109.56 303.707 109.193 303.707 108.74V107.28H305.807ZM311.733 114.06H316.513C316.487 113.447 316.267 112.933 315.853 112.52C315.453 112.107 314.873 111.9 314.113 111.9C313.42 111.9 312.86 112.12 312.433 112.56C312.007 112.987 311.773 113.487 311.733 114.06ZM316.773 116.6L318.733 117.22C318.453 118.113 317.927 118.853 317.153 119.44C316.393 120.013 315.453 120.3 314.333 120.3C312.947 120.3 311.767 119.827 310.793 118.88C309.833 117.933 309.353 116.667 309.353 115.08C309.353 113.587 309.82 112.36 310.753 111.4C311.7 110.44 312.813 109.96 314.093 109.96C315.587 109.96 316.753 110.42 317.593 111.34C318.433 112.247 318.853 113.473 318.853 115.02C318.853 115.433 318.833 115.68 318.793 115.76H311.673C311.7 116.493 311.967 117.1 312.473 117.58C312.993 118.06 313.613 118.3 314.333 118.3C315.587 118.3 316.4 117.733 316.773 116.6ZM328.331 123.8H326.031V110.26H328.271V111.58C328.525 111.14 328.925 110.773 329.471 110.48C330.018 110.187 330.651 110.04 331.371 110.04C332.771 110.04 333.871 110.52 334.671 111.48C335.471 112.427 335.871 113.64 335.871 115.12C335.871 116.6 335.451 117.827 334.611 118.8C333.771 119.76 332.665 120.24 331.291 120.24C330.625 120.24 330.031 120.113 329.511 119.86C328.991 119.607 328.598 119.287 328.331 118.9V123.8ZM333.551 115.12C333.551 114.213 333.311 113.487 332.831 112.94C332.351 112.38 331.718 112.1 330.931 112.1C330.158 112.1 329.525 112.38 329.031 112.94C328.551 113.487 328.311 114.213 328.311 115.12C328.311 116.04 328.551 116.78 329.031 117.34C329.525 117.9 330.158 118.18 330.931 118.18C331.705 118.18 332.331 117.9 332.811 117.34C333.305 116.78 333.551 116.04 333.551 115.12ZM343.802 110.2V112.56C343.535 112.52 343.282 112.5 343.042 112.5C341.295 112.5 340.422 113.453 340.422 115.36V120H338.102V110.26H340.362V111.82C340.588 111.3 340.955 110.893 341.462 110.6C341.968 110.293 342.542 110.14 343.182 110.14C343.395 110.14 343.602 110.16 343.802 110.2ZM347.261 114.06H352.041C352.014 113.447 351.794 112.933 351.381 112.52C350.981 112.107 350.401 111.9 349.641 111.9C348.947 111.9 348.387 112.12 347.961 112.56C347.534 112.987 347.301 113.487 347.261 114.06ZM352.301 116.6L354.261 117.22C353.981 118.113 353.454 118.853 352.681 119.44C351.921 120.013 350.981 120.3 349.861 120.3C348.474 120.3 347.294 119.827 346.321 118.88C345.361 117.933 344.881 116.667 344.881 115.08C344.881 113.587 345.347 112.36 346.281 111.4C347.227 110.44 348.341 109.96 349.621 109.96C351.114 109.96 352.281 110.42 353.121 111.34C353.961 112.247 354.381 113.473 354.381 115.02C354.381 115.433 354.361 115.68 354.321 115.76H347.201C347.227 116.493 347.494 117.1 348.001 117.58C348.521 118.06 349.141 118.3 349.861 118.3C351.114 118.3 351.927 117.733 352.301 116.6ZM355.738 117.36L357.758 116.8C357.798 117.267 357.991 117.66 358.338 117.98C358.684 118.3 359.151 118.46 359.738 118.46C360.191 118.46 360.544 118.353 360.798 118.14C361.064 117.927 361.198 117.66 361.198 117.34C361.198 116.78 360.818 116.42 360.058 116.26L358.618 115.94C357.778 115.753 357.131 115.407 356.678 114.9C356.224 114.393 355.998 113.793 355.998 113.1C355.998 112.247 356.344 111.513 357.038 110.9C357.731 110.273 358.578 109.96 359.578 109.96C360.218 109.96 360.784 110.053 361.278 110.24C361.771 110.427 362.151 110.673 362.418 110.98C362.698 111.273 362.911 111.56 363.058 111.84C363.204 112.12 363.298 112.4 363.338 112.68L361.378 113.24C361.324 112.867 361.151 112.533 360.858 112.24C360.578 111.933 360.151 111.78 359.578 111.78C359.178 111.78 358.844 111.893 358.578 112.12C358.311 112.333 358.178 112.593 358.178 112.9C358.178 113.447 358.504 113.787 359.158 113.92L360.638 114.22C361.544 114.42 362.238 114.78 362.718 115.3C363.198 115.82 363.438 116.447 363.438 117.18C363.438 117.993 363.111 118.72 362.458 119.36C361.818 119.987 360.918 120.3 359.758 120.3C359.091 120.3 358.491 120.2 357.958 120C357.438 119.8 357.024 119.547 356.718 119.24C356.424 118.92 356.191 118.607 356.018 118.3C355.858 117.98 355.764 117.667 355.738 117.36ZM365.002 117.36C365.002 116.533 365.268 115.873 365.802 115.38C366.348 114.873 367.062 114.553 367.942 114.42L370.442 114.04C370.922 113.973 371.162 113.74 371.162 113.34C371.162 112.9 371.008 112.547 370.702 112.28C370.395 112 369.935 111.86 369.322 111.86C368.735 111.86 368.268 112.027 367.922 112.36C367.575 112.68 367.375 113.1 367.322 113.62L365.202 113.14C365.295 112.26 365.715 111.513 366.462 110.9C367.208 110.273 368.155 109.96 369.302 109.96C370.715 109.96 371.755 110.3 372.422 110.98C373.102 111.66 373.442 112.533 373.442 113.6V118.44C373.442 119.08 373.482 119.6 373.562 120H371.402C371.335 119.8 371.302 119.387 371.302 118.76C370.662 119.787 369.662 120.3 368.302 120.3C367.315 120.3 366.515 120.013 365.902 119.44C365.302 118.853 365.002 118.16 365.002 117.36ZM368.742 118.48C369.462 118.48 370.042 118.287 370.482 117.9C370.935 117.5 371.162 116.853 371.162 115.96V115.52L368.622 115.9C367.755 116.047 367.322 116.487 367.322 117.22C367.322 117.567 367.448 117.867 367.702 118.12C367.955 118.36 368.302 118.48 368.742 118.48ZM378.566 120H376.246V105.52H378.566V120ZM383.179 114.06H387.959C387.932 113.447 387.712 112.933 387.299 112.52C386.899 112.107 386.319 111.9 385.559 111.9C384.865 111.9 384.305 112.12 383.879 112.56C383.452 112.987 383.219 113.487 383.179 114.06ZM388.219 116.6L390.179 117.22C389.899 118.113 389.372 118.853 388.599 119.44C387.839 120.013 386.899 120.3 385.779 120.3C384.392 120.3 383.212 119.827 382.239 118.88C381.279 117.933 380.799 116.667 380.799 115.08C380.799 113.587 381.265 112.36 382.199 111.4C383.145 110.44 384.259 109.96 385.539 109.96C387.032 109.96 388.199 110.42 389.039 111.34C389.879 112.247 390.299 113.473 390.299 115.02C390.299 115.433 390.279 115.68 390.239 115.76H383.119C383.145 116.493 383.412 117.1 383.919 117.58C384.439 118.06 385.059 118.3 385.779 118.3C387.032 118.3 387.845 117.733 388.219 116.6Z" fill="black"/>
<path d="M155.3 369H152.92V358.56L148.5 369H146.42L142.04 358.6V369H139.7V354.82H142.9L147.5 365.64L152.04 354.82H155.3V369ZM160.804 369H158.504V359.26H160.804V369ZM158.584 356.9C158.291 356.607 158.144 356.253 158.144 355.84C158.144 355.427 158.291 355.073 158.584 354.78C158.877 354.473 159.231 354.32 159.644 354.32C160.071 354.32 160.431 354.467 160.724 354.76C161.017 355.053 161.164 355.413 161.164 355.84C161.164 356.253 161.017 356.607 160.724 356.9C160.431 357.193 160.071 357.34 159.644 357.34C159.231 357.34 158.877 357.193 158.584 356.9ZM166.117 363.38V369H163.797V359.26H166.057V360.56C166.364 360.027 166.77 359.633 167.277 359.38C167.797 359.113 168.35 358.98 168.937 358.98C170.084 358.98 170.957 359.34 171.557 360.06C172.157 360.78 172.457 361.707 172.457 362.84V369H170.137V363.24C170.137 362.587 169.977 362.067 169.657 361.68C169.337 361.28 168.83 361.08 168.137 361.08C167.497 361.08 166.997 361.3 166.637 361.74C166.29 362.167 166.117 362.713 166.117 363.38ZM182.502 369H180.242V354.52H182.522V360.46C182.762 360.047 183.156 359.7 183.702 359.42C184.249 359.14 184.876 359 185.582 359C186.996 359 188.096 359.48 188.882 360.44C189.682 361.387 190.082 362.6 190.082 364.08C190.082 365.587 189.662 366.827 188.822 367.8C187.996 368.76 186.889 369.24 185.502 369.24C184.116 369.24 183.116 368.727 182.502 367.7V369ZM187.002 366.36C187.496 365.8 187.742 365.047 187.742 364.1C187.742 363.153 187.502 362.413 187.022 361.88C186.542 361.333 185.909 361.06 185.122 361.06C184.362 361.06 183.736 361.333 183.242 361.88C182.749 362.413 182.502 363.153 182.502 364.1C182.502 365.033 182.749 365.78 183.242 366.34C183.736 366.9 184.362 367.18 185.122 367.18C185.896 367.18 186.522 366.907 187.002 366.36ZM198.594 367.92C198.367 368.347 197.994 368.68 197.474 368.92C196.967 369.16 196.421 369.28 195.834 369.28C194.701 369.28 193.801 368.913 193.134 368.18C192.481 367.447 192.154 366.52 192.154 365.4V359.26H194.474V364.98C194.474 365.633 194.634 366.167 194.954 366.58C195.274 366.993 195.767 367.2 196.434 367.2C197.087 367.2 197.587 367 197.934 366.6C198.294 366.2 198.474 365.673 198.474 365.02V359.26H200.794V367.22C200.794 367.807 200.827 368.4 200.894 369H198.674C198.621 368.707 198.594 368.347 198.594 367.92ZM206.757 372.94H204.277L206.617 367.84L202.457 359.26H205.077L207.877 365.42L210.497 359.26H212.957L206.757 372.94ZM228.857 362.14H219.357V360.26H228.857V362.14ZM228.857 366.08H219.357V364.18H228.857V366.08Z" fill="black"/>
<path d="M434.241 362.52C434.241 364.2 434.548 365.433 435.161 366.22C435.641 366.86 436.308 367.18 437.161 367.18C437.988 367.18 438.654 366.86 439.161 366.22C439.761 365.447 440.061 364.213 440.061 362.52C440.061 360.827 439.761 359.593 439.161 358.82C438.654 358.18 437.988 357.86 437.161 357.86C436.308 357.86 435.641 358.18 435.161 358.82C434.548 359.58 434.241 360.813 434.241 362.52ZM433.021 367.18C432.248 366.02 431.861 364.467 431.861 362.52C431.861 360.573 432.248 359.02 433.021 357.86C433.968 356.447 435.348 355.74 437.161 355.74C438.961 355.74 440.334 356.447 441.281 357.86C442.054 359.02 442.441 360.573 442.441 362.52C442.441 364.467 442.054 366.02 441.281 367.18C440.334 368.593 438.961 369.3 437.161 369.3C435.348 369.3 433.968 368.593 433.021 367.18ZM444.343 368.66C444.036 368.34 443.883 367.953 443.883 367.5C443.883 367.047 444.036 366.66 444.343 366.34C444.663 366.02 445.05 365.86 445.503 365.86C445.956 365.86 446.343 366.02 446.663 366.34C446.983 366.66 447.143 367.047 447.143 367.5C447.143 367.953 446.983 368.34 446.663 368.66C446.343 368.967 445.956 369.12 445.503 369.12C445.05 369.12 444.663 368.967 444.343 368.66ZM458.71 356.38L458.03 358.34C457.39 357.993 456.65 357.82 455.81 357.82C454.584 357.82 453.564 358.2 452.75 358.96C451.95 359.707 451.497 360.707 451.39 361.96C452.057 360.933 453.157 360.42 454.69 360.42C455.997 360.42 457.057 360.82 457.87 361.62C458.684 362.42 459.09 363.48 459.09 364.8C459.09 366.12 458.617 367.2 457.67 368.04C456.724 368.88 455.557 369.3 454.17 369.3C452.57 369.3 451.304 368.727 450.37 367.58C449.45 366.433 448.99 365 448.99 363.28C448.99 360.973 449.637 359.14 450.93 357.78C452.224 356.42 453.897 355.74 455.95 355.74C457.124 355.74 458.044 355.953 458.71 356.38ZM451.65 364.84C451.65 365.56 451.897 366.147 452.39 366.6C452.897 367.04 453.49 367.26 454.17 367.26C454.877 367.26 455.47 367.04 455.95 366.6C456.444 366.16 456.69 365.573 456.69 364.84C456.69 364.107 456.444 363.52 455.95 363.08C455.47 362.64 454.877 362.42 454.17 362.42C453.464 362.42 452.864 362.64 452.37 363.08C451.89 363.52 451.65 364.107 451.65 364.84ZM461.391 354.82H466.271C467.605 354.82 468.658 355.173 469.431 355.88C470.205 356.587 470.591 357.507 470.591 358.64C470.591 359.373 470.398 360.013 470.011 360.56C469.625 361.093 469.118 361.473 468.491 361.7C469.251 361.9 469.865 362.307 470.331 362.92C470.798 363.533 471.031 364.253 471.031 365.08C471.031 366.227 470.625 367.167 469.811 367.9C468.998 368.633 467.938 369 466.631 369H461.391V354.82ZM463.771 360.82H465.951C466.645 360.82 467.191 360.64 467.591 360.28C467.991 359.92 468.191 359.44 468.191 358.84C468.191 358.227 467.985 357.747 467.571 357.4C467.171 357.04 466.611 356.86 465.891 356.86H463.771V360.82ZM463.771 366.96H466.211C466.931 366.96 467.505 366.78 467.931 366.42C468.371 366.047 468.591 365.547 468.591 364.92C468.591 364.293 468.385 363.793 467.971 363.42C467.571 363.033 467.011 362.84 466.291 362.84H463.771V366.96ZM485.44 369H482.94L475.94 358.26V369H473.54V354.82H476.6L483.04 364.88V354.82H485.44V369ZM488.833 354.82H493.713C495.046 354.82 496.099 355.173 496.873 355.88C497.646 356.587 498.033 357.507 498.033 358.64C498.033 359.373 497.839 360.013 497.453 360.56C497.066 361.093 496.559 361.473 495.933 361.7C496.693 361.9 497.306 362.307 497.773 362.92C498.239 363.533 498.473 364.253 498.473 365.08C498.473 366.227 498.066 367.167 497.253 367.9C496.439 368.633 495.379 369 494.073 369H488.833V354.82ZM491.213 360.82H493.393C494.086 360.82 494.633 360.64 495.033 360.28C495.433 359.92 495.633 359.44 495.633 358.84C495.633 358.227 495.426 357.747 495.013 357.4C494.613 357.04 494.053 356.86 493.333 356.86H491.213V360.82ZM491.213 366.96H493.653C494.373 366.96 494.946 366.78 495.373 366.42C495.813 366.047 496.033 365.547 496.033 364.92C496.033 364.293 495.826 363.793 495.413 363.42C495.013 363.033 494.453 362.84 493.733 362.84H491.213V366.96Z" fill="black"/>
<path d="M155.3 425H152.92V414.56L148.5 425H146.42L142.04 414.6V425H139.7V410.82H142.9L147.5 421.64L152.04 410.82H155.3V425ZM157.845 422.36C157.845 421.533 158.112 420.873 158.645 420.38C159.192 419.873 159.905 419.553 160.785 419.42L163.285 419.04C163.765 418.973 164.005 418.74 164.005 418.34C164.005 417.9 163.852 417.547 163.545 417.28C163.239 417 162.779 416.86 162.165 416.86C161.579 416.86 161.112 417.027 160.765 417.36C160.419 417.68 160.219 418.1 160.165 418.62L158.045 418.14C158.139 417.26 158.559 416.513 159.305 415.9C160.052 415.273 160.999 414.96 162.145 414.96C163.559 414.96 164.599 415.3 165.265 415.98C165.945 416.66 166.285 417.533 166.285 418.6V423.44C166.285 424.08 166.325 424.6 166.405 425H164.245C164.179 424.8 164.145 424.387 164.145 423.76C163.505 424.787 162.505 425.3 161.145 425.3C160.159 425.3 159.359 425.013 158.745 424.44C158.145 423.853 157.845 423.16 157.845 422.36ZM161.585 423.48C162.305 423.48 162.885 423.287 163.325 422.9C163.779 422.5 164.005 421.853 164.005 420.96V420.52L161.465 420.9C160.599 421.047 160.165 421.487 160.165 422.22C160.165 422.567 160.292 422.867 160.545 423.12C160.799 423.36 161.145 423.48 161.585 423.48ZM167.81 425L171.35 420.08L167.87 415.26H170.63C170.697 415.367 171.057 415.9 171.71 416.86C172.377 417.807 172.73 418.313 172.77 418.38L174.89 415.26H177.53L174.11 420.04L177.65 425H174.93L172.67 421.74C172.63 421.793 172.43 422.087 172.07 422.62C171.723 423.14 171.383 423.647 171.05 424.14C170.717 424.62 170.523 424.907 170.47 425H167.81ZM186.565 425H184.305V410.52H186.585V416.46C186.825 416.047 187.218 415.7 187.765 415.42C188.311 415.14 188.938 415 189.645 415C191.058 415 192.158 415.48 192.945 416.44C193.745 417.387 194.145 418.6 194.145 420.08C194.145 421.587 193.725 422.827 192.885 423.8C192.058 424.76 190.951 425.24 189.565 425.24C188.178 425.24 187.178 424.727 186.565 423.7V425ZM191.065 422.36C191.558 421.8 191.805 421.047 191.805 420.1C191.805 419.153 191.565 418.413 191.085 417.88C190.605 417.333 189.971 417.06 189.185 417.06C188.425 417.06 187.798 417.333 187.305 417.88C186.811 418.413 186.565 419.153 186.565 420.1C186.565 421.033 186.811 421.78 187.305 422.34C187.798 422.9 188.425 423.18 189.185 423.18C189.958 423.18 190.585 422.907 191.065 422.36ZM202.656 423.92C202.43 424.347 202.056 424.68 201.536 424.92C201.03 425.16 200.483 425.28 199.896 425.28C198.763 425.28 197.863 424.913 197.196 424.18C196.543 423.447 196.216 422.52 196.216 421.4V415.26H198.536V420.98C198.536 421.633 198.696 422.167 199.016 422.58C199.336 422.993 199.83 423.2 200.496 423.2C201.15 423.2 201.65 423 201.996 422.6C202.356 422.2 202.536 421.673 202.536 421.02V415.26H204.856V423.22C204.856 423.807 204.89 424.4 204.956 425H202.736C202.683 424.707 202.656 424.347 202.656 423.92ZM210.819 428.94H208.339L210.679 423.84L206.519 415.26H209.139L211.939 421.42L214.559 415.26H217.019L210.819 428.94ZM232.92 418.14H223.42V416.26H232.92V418.14ZM232.92 422.08H223.42V420.18H232.92V422.08Z" fill="black"/>
<path d="M458.64 412.38L457.96 414.34C457.32 413.993 456.58 413.82 455.74 413.82C454.513 413.82 453.493 414.2 452.68 414.96C451.88 415.707 451.427 416.707 451.32 417.96C451.987 416.933 453.087 416.42 454.62 416.42C455.927 416.42 456.987 416.82 457.8 417.62C458.613 418.42 459.02 419.48 459.02 420.8C459.02 422.12 458.547 423.2 457.6 424.04C456.653 424.88 455.487 425.3 454.1 425.3C452.5 425.3 451.233 424.727 450.3 423.58C449.38 422.433 448.92 421 448.92 419.28C448.92 416.973 449.567 415.14 450.86 413.78C452.153 412.42 453.827 411.74 455.88 411.74C457.053 411.74 457.973 411.953 458.64 412.38ZM451.58 420.84C451.58 421.56 451.827 422.147 452.32 422.6C452.827 423.04 453.42 423.26 454.1 423.26C454.807 423.26 455.4 423.04 455.88 422.6C456.373 422.16 456.62 421.573 456.62 420.84C456.62 420.107 456.373 419.52 455.88 419.08C455.4 418.64 454.807 418.42 454.1 418.42C453.393 418.42 452.793 418.64 452.3 419.08C451.82 419.52 451.58 420.107 451.58 420.84ZM461.321 410.82H466.201C467.534 410.82 468.588 411.173 469.361 411.88C470.134 412.587 470.521 413.507 470.521 414.64C470.521 415.373 470.328 416.013 469.941 416.56C469.554 417.093 469.048 417.473 468.421 417.7C469.181 417.9 469.794 418.307 470.261 418.92C470.728 419.533 470.961 420.253 470.961 421.08C470.961 422.227 470.554 423.167 469.741 423.9C468.928 424.633 467.868 425 466.561 425H461.321V410.82ZM463.701 416.82H465.881C466.574 416.82 467.121 416.64 467.521 416.28C467.921 415.92 468.121 415.44 468.121 414.84C468.121 414.227 467.914 413.747 467.501 413.4C467.101 413.04 466.541 412.86 465.821 412.86H463.701V416.82ZM463.701 422.96H466.141C466.861 422.96 467.434 422.78 467.861 422.42C468.301 422.047 468.521 421.547 468.521 420.92C468.521 420.293 468.314 419.793 467.901 419.42C467.501 419.033 466.941 418.84 466.221 418.84H463.701V422.96ZM485.37 425H482.87L475.87 414.26V425H473.47V410.82H476.53L482.97 420.88V410.82H485.37V425ZM488.763 410.82H493.643C494.976 410.82 496.029 411.173 496.803 411.88C497.576 412.587 497.963 413.507 497.963 414.64C497.963 415.373 497.769 416.013 497.383 416.56C496.996 417.093 496.489 417.473 495.863 417.7C496.623 417.9 497.236 418.307 497.703 418.92C498.169 419.533 498.403 420.253 498.403 421.08C498.403 422.227 497.996 423.167 497.183 423.9C496.369 424.633 495.309 425 494.003 425H488.763V410.82ZM491.143 416.82H493.323C494.016 416.82 494.563 416.64 494.963 416.28C495.363 415.92 495.563 415.44 495.563 414.84C495.563 414.227 495.356 413.747 494.943 413.4C494.543 413.04 493.983 412.86 493.263 412.86H491.143V416.82ZM491.143 422.96H493.583C494.303 422.96 494.876 422.78 495.303 422.42C495.743 422.047 495.963 421.547 495.963 420.92C495.963 420.293 495.756 419.793 495.343 419.42C494.943 419.033 494.383 418.84 493.663 418.84H491.143V422.96Z" fill="black"/>
</g>
<circle cx="106" cy="60" r="6" fill="#FF1111"/>
<circle cx="128" cy="60" r="6" fill="#FFE344"/>
<circle cx="150" cy="60" r="6" fill="#25B17F"/>
<circle cx="117" cy="185" r="5" fill="#6DB8FF"/>
<path d="M138.48 191L142.608 179.8H144.032L148.144 191H146.72L145.696 188.12H140.928L139.888 191H138.48ZM141.328 187.032H145.296L143.312 181.496L141.328 187.032ZM149.729 191V179.48H151.073V191H149.729ZM153.276 191V179.48H154.62V191H153.276ZM160.439 191.192C159.692 191.192 159.02 191.021 158.423 190.68C157.825 190.339 157.351 189.859 156.999 189.24C156.657 188.611 156.487 187.875 156.487 187.032C156.487 186.189 156.663 185.459 157.015 184.84C157.367 184.211 157.841 183.725 158.439 183.384C159.047 183.043 159.724 182.872 160.471 182.872C161.217 182.872 161.889 183.043 162.487 183.384C163.084 183.725 163.553 184.211 163.895 184.84C164.247 185.459 164.423 186.189 164.423 187.032C164.423 187.875 164.247 188.611 163.895 189.24C163.543 189.859 163.063 190.339 162.455 190.68C161.857 191.021 161.185 191.192 160.439 191.192ZM160.439 190.04C160.897 190.04 161.324 189.928 161.719 189.704C162.113 189.48 162.433 189.144 162.679 188.696C162.924 188.248 163.047 187.693 163.047 187.032C163.047 186.371 162.924 185.816 162.679 185.368C162.444 184.92 162.129 184.584 161.735 184.36C161.34 184.136 160.919 184.024 160.471 184.024C160.012 184.024 159.585 184.136 159.191 184.36C158.796 184.584 158.476 184.92 158.231 185.368C157.985 185.816 157.863 186.371 157.863 187.032C157.863 187.693 157.985 188.248 158.231 188.696C158.476 189.144 158.791 189.48 159.175 189.704C159.569 189.928 159.991 190.04 160.439 190.04ZM169.94 191.192C169.182 191.192 168.5 191.021 167.892 190.68C167.294 190.328 166.82 189.843 166.468 189.224C166.126 188.595 165.956 187.864 165.956 187.032C165.956 186.2 166.126 185.475 166.468 184.856C166.82 184.227 167.294 183.741 167.892 183.4C168.5 183.048 169.182 182.872 169.94 182.872C170.878 182.872 171.668 183.117 172.308 183.608C172.958 184.099 173.369 184.755 173.54 185.576H172.164C172.057 185.085 171.796 184.707 171.38 184.44C170.964 184.163 170.478 184.024 169.924 184.024C169.476 184.024 169.054 184.136 168.66 184.36C168.265 184.584 167.945 184.92 167.7 185.368C167.454 185.816 167.332 186.371 167.332 187.032C167.332 187.693 167.454 188.248 167.7 188.696C167.945 189.144 168.265 189.485 168.66 189.72C169.054 189.944 169.476 190.056 169.924 190.056C170.478 190.056 170.964 189.923 171.38 189.656C171.796 189.379 172.057 188.989 172.164 188.488H173.54C173.38 189.288 172.974 189.939 172.324 190.44C171.673 190.941 170.878 191.192 169.94 191.192ZM178.057 191.192C177.395 191.192 176.846 191.08 176.409 190.856C175.971 190.632 175.646 190.333 175.433 189.96C175.219 189.587 175.113 189.181 175.113 188.744C175.113 187.933 175.422 187.309 176.041 186.872C176.659 186.435 177.502 186.216 178.569 186.216H180.713V186.12C180.713 185.427 180.531 184.904 180.169 184.552C179.806 184.189 179.321 184.008 178.713 184.008C178.19 184.008 177.737 184.141 177.353 184.408C176.979 184.664 176.745 185.043 176.649 185.544H175.273C175.326 184.968 175.518 184.483 175.849 184.088C176.19 183.693 176.611 183.395 177.113 183.192C177.614 182.979 178.147 182.872 178.713 182.872C179.822 182.872 180.654 183.171 181.209 183.768C181.774 184.355 182.057 185.139 182.057 186.12V191H180.857L180.777 189.576C180.553 190.024 180.222 190.408 179.785 190.728C179.358 191.037 178.782 191.192 178.057 191.192ZM178.265 190.056C178.777 190.056 179.214 189.923 179.577 189.656C179.95 189.389 180.233 189.043 180.425 188.616C180.617 188.189 180.713 187.741 180.713 187.272V187.256H178.681C177.891 187.256 177.331 187.395 177.001 187.672C176.681 187.939 176.521 188.275 176.521 188.68C176.521 189.096 176.67 189.432 176.969 189.688C177.278 189.933 177.71 190.056 178.265 190.056ZM186.99 191C186.265 191 185.694 190.824 185.278 190.472C184.862 190.12 184.654 189.485 184.654 188.568V184.2H183.278V183.064H184.654L184.83 181.16H185.998V183.064H188.334V184.2H185.998V188.568C185.998 189.069 186.099 189.411 186.302 189.592C186.505 189.763 186.862 189.848 187.374 189.848H188.206V191H186.99ZM190.858 181.304C190.591 181.304 190.367 181.219 190.186 181.048C190.015 180.867 189.93 180.643 189.93 180.376C189.93 180.12 190.015 179.907 190.186 179.736C190.367 179.565 190.591 179.48 190.858 179.48C191.114 179.48 191.332 179.565 191.514 179.736C191.695 179.907 191.786 180.12 191.786 180.376C191.786 180.643 191.695 180.867 191.514 181.048C191.332 181.219 191.114 181.304 190.858 181.304ZM190.186 191V183.064H191.53V191H190.186ZM197.486 191.192C196.739 191.192 196.067 191.021 195.47 190.68C194.872 190.339 194.398 189.859 194.046 189.24C193.704 188.611 193.534 187.875 193.534 187.032C193.534 186.189 193.71 185.459 194.062 184.84C194.414 184.211 194.888 183.725 195.486 183.384C196.094 183.043 196.771 182.872 197.518 182.872C198.264 182.872 198.936 183.043 199.534 183.384C200.131 183.725 200.6 184.211 200.942 184.84C201.294 185.459 201.47 186.189 201.47 187.032C201.47 187.875 201.294 188.611 200.942 189.24C200.59 189.859 200.11 190.339 199.502 190.68C198.904 191.021 198.232 191.192 197.486 191.192ZM197.486 190.04C197.944 190.04 198.371 189.928 198.766 189.704C199.16 189.48 199.48 189.144 199.726 188.696C199.971 188.248 200.094 187.693 200.094 187.032C200.094 186.371 199.971 185.816 199.726 185.368C199.491 184.92 199.176 184.584 198.782 184.36C198.387 184.136 197.966 184.024 197.518 184.024C197.059 184.024 196.632 184.136 196.238 184.36C195.843 184.584 195.523 184.92 195.278 185.368C195.032 185.816 194.91 186.371 194.91 187.032C194.91 187.693 195.032 188.248 195.278 188.696C195.523 189.144 195.838 189.48 196.222 189.704C196.616 189.928 197.038 190.04 197.486 190.04ZM203.338 191V183.064H204.554L204.634 184.488C204.89 183.987 205.258 183.592 205.738 183.304C206.218 183.016 206.762 182.872 207.37 182.872C208.309 182.872 209.056 183.16 209.61 183.736C210.176 184.301 210.458 185.176 210.458 186.36V191H209.114V186.504C209.114 184.851 208.432 184.024 207.066 184.024C206.384 184.024 205.813 184.275 205.354 184.776C204.906 185.267 204.682 185.971 204.682 186.888V191H203.338ZM219.769 191.192C218.82 191.192 218.03 190.952 217.401 190.472C216.772 189.992 216.404 189.341 216.297 188.52H217.673C217.758 188.936 217.977 189.299 218.329 189.608C218.692 189.907 219.177 190.056 219.785 190.056C220.35 190.056 220.766 189.939 221.033 189.704C221.3 189.459 221.433 189.171 221.433 188.84C221.433 188.36 221.257 188.04 220.905 187.88C220.564 187.72 220.078 187.576 219.449 187.448C219.022 187.363 218.596 187.24 218.169 187.08C217.742 186.92 217.385 186.696 217.097 186.408C216.809 186.109 216.665 185.72 216.665 185.24C216.665 184.547 216.921 183.981 217.433 183.544C217.956 183.096 218.66 182.872 219.545 182.872C220.388 182.872 221.076 183.085 221.609 183.512C222.153 183.928 222.468 184.525 222.553 185.304H221.225C221.172 184.899 220.996 184.584 220.697 184.36C220.409 184.125 220.02 184.008 219.529 184.008C219.049 184.008 218.676 184.109 218.409 184.312C218.153 184.515 218.025 184.781 218.025 185.112C218.025 185.432 218.19 185.683 218.521 185.864C218.862 186.045 219.321 186.2 219.897 186.328C220.388 186.435 220.852 186.568 221.289 186.728C221.737 186.877 222.1 187.107 222.377 187.416C222.665 187.715 222.809 188.152 222.809 188.728C222.82 189.443 222.548 190.035 221.993 190.504C221.449 190.963 220.708 191.192 219.769 191.192ZM227.369 191.192C226.708 191.192 226.158 191.08 225.721 190.856C225.284 190.632 224.958 190.333 224.745 189.96C224.532 189.587 224.425 189.181 224.425 188.744C224.425 187.933 224.734 187.309 225.353 186.872C225.972 186.435 226.814 186.216 227.881 186.216H230.025V186.12C230.025 185.427 229.844 184.904 229.481 184.552C229.118 184.189 228.633 184.008 228.025 184.008C227.502 184.008 227.049 184.141 226.665 184.408C226.292 184.664 226.057 185.043 225.961 185.544H224.585C224.638 184.968 224.83 184.483 225.161 184.088C225.502 183.693 225.924 183.395 226.425 183.192C226.926 182.979 227.46 182.872 228.025 182.872C229.134 182.872 229.966 183.171 230.521 183.768C231.086 184.355 231.369 185.139 231.369 186.12V191H230.169L230.089 189.576C229.865 190.024 229.534 190.408 229.097 190.728C228.67 191.037 228.094 191.192 227.369 191.192ZM227.577 190.056C228.089 190.056 228.526 189.923 228.889 189.656C229.262 189.389 229.545 189.043 229.737 188.616C229.929 188.189 230.025 187.741 230.025 187.272V187.256H227.993C227.204 187.256 226.644 187.395 226.313 187.672C225.993 187.939 225.833 188.275 225.833 188.68C225.833 189.096 225.982 189.432 226.281 189.688C226.59 189.933 227.022 190.056 227.577 190.056ZM233.385 191V183.064H234.601L234.697 184.216C234.953 183.789 235.295 183.459 235.721 183.224C236.148 182.989 236.628 182.872 237.161 182.872C237.791 182.872 238.329 183 238.777 183.256C239.236 183.512 239.588 183.901 239.833 184.424C240.111 183.944 240.489 183.565 240.969 183.288C241.46 183.011 241.988 182.872 242.553 182.872C243.503 182.872 244.26 183.16 244.825 183.736C245.391 184.301 245.673 185.176 245.673 186.36V191H244.345V186.504C244.345 185.683 244.18 185.064 243.849 184.648C243.519 184.232 243.044 184.024 242.425 184.024C241.785 184.024 241.252 184.275 240.825 184.776C240.409 185.267 240.201 185.971 240.201 186.888V191H238.857V186.504C238.857 185.683 238.692 185.064 238.361 184.648C238.031 184.232 237.556 184.024 236.937 184.024C236.308 184.024 235.78 184.275 235.353 184.776C234.937 185.267 234.729 185.971 234.729 186.888V191H233.385ZM251.266 191.192C250.508 191.192 249.836 191.021 249.25 190.68C248.663 190.328 248.199 189.843 247.858 189.224C247.527 188.605 247.362 187.875 247.362 187.032C247.362 186.2 247.527 185.475 247.858 184.856C248.188 184.227 248.647 183.741 249.234 183.4C249.831 183.048 250.519 182.872 251.298 182.872C252.066 182.872 252.727 183.048 253.282 183.4C253.847 183.741 254.279 184.195 254.578 184.76C254.876 185.325 255.026 185.933 255.026 186.584C255.026 186.701 255.02 186.819 255.01 186.936C255.01 187.053 255.01 187.187 255.01 187.336H248.69C248.722 187.944 248.86 188.451 249.106 188.856C249.362 189.251 249.676 189.549 250.05 189.752C250.434 189.955 250.839 190.056 251.266 190.056C251.82 190.056 252.284 189.928 252.658 189.672C253.031 189.416 253.303 189.069 253.474 188.632H254.802C254.588 189.368 254.178 189.981 253.57 190.472C252.972 190.952 252.204 191.192 251.266 191.192ZM251.266 184.008C250.626 184.008 250.055 184.205 249.554 184.6C249.063 184.984 248.78 185.549 248.706 186.296H253.698C253.666 185.581 253.42 185.021 252.962 184.616C252.503 184.211 251.938 184.008 251.266 184.008ZM263.682 191.192C263.02 191.192 262.471 191.08 262.034 190.856C261.596 190.632 261.271 190.333 261.058 189.96C260.844 189.587 260.738 189.181 260.738 188.744C260.738 187.933 261.047 187.309 261.666 186.872C262.284 186.435 263.127 186.216 264.194 186.216H266.338V186.12C266.338 185.427 266.156 184.904 265.794 184.552C265.431 184.189 264.946 184.008 264.338 184.008C263.815 184.008 263.362 184.141 262.978 184.408C262.604 184.664 262.37 185.043 262.274 185.544H260.898C260.951 184.968 261.143 184.483 261.474 184.088C261.815 183.693 262.236 183.395 262.738 183.192C263.239 182.979 263.772 182.872 264.338 182.872C265.447 182.872 266.279 183.171 266.834 183.768C267.399 184.355 267.682 185.139 267.682 186.12V191H266.482L266.402 189.576C266.178 190.024 265.847 190.408 265.41 190.728C264.983 191.037 264.407 191.192 263.682 191.192ZM263.89 190.056C264.402 190.056 264.839 189.923 265.202 189.656C265.575 189.389 265.858 189.043 266.05 188.616C266.242 188.189 266.338 187.741 266.338 187.272V187.256H264.306C263.516 187.256 262.956 187.395 262.626 187.672C262.306 187.939 262.146 188.275 262.146 188.68C262.146 189.096 262.295 189.432 262.594 189.688C262.903 189.933 263.335 190.056 263.89 190.056ZM272.738 191.192C271.788 191.192 270.999 190.952 270.37 190.472C269.74 189.992 269.372 189.341 269.266 188.52H270.642C270.727 188.936 270.946 189.299 271.298 189.608C271.66 189.907 272.146 190.056 272.754 190.056C273.319 190.056 273.735 189.939 274.002 189.704C274.268 189.459 274.402 189.171 274.402 188.84C274.402 188.36 274.226 188.04 273.874 187.88C273.532 187.72 273.047 187.576 272.418 187.448C271.991 187.363 271.564 187.24 271.138 187.08C270.711 186.92 270.354 186.696 270.066 186.408C269.778 186.109 269.634 185.72 269.634 185.24C269.634 184.547 269.89 183.981 270.402 183.544C270.924 183.096 271.628 182.872 272.514 182.872C273.356 182.872 274.044 183.085 274.578 183.512C275.122 183.928 275.436 184.525 275.522 185.304H274.194C274.14 184.899 273.964 184.584 273.666 184.36C273.378 184.125 272.988 184.008 272.498 184.008C272.018 184.008 271.644 184.109 271.378 184.312C271.122 184.515 270.994 184.781 270.994 185.112C270.994 185.432 271.159 185.683 271.49 185.864C271.831 186.045 272.29 186.2 272.866 186.328C273.356 186.435 273.82 186.568 274.258 186.728C274.706 186.877 275.068 187.107 275.346 187.416C275.634 187.715 275.778 188.152 275.778 188.728C275.788 189.443 275.516 190.035 274.962 190.504C274.418 190.963 273.676 191.192 272.738 191.192ZM281.932 194.52V183.064H283.148L283.276 184.376C283.532 183.992 283.895 183.645 284.364 183.336C284.844 183.027 285.452 182.872 286.188 182.872C286.977 182.872 287.665 183.053 288.252 183.416C288.839 183.779 289.292 184.275 289.612 184.904C289.943 185.533 290.108 186.248 290.108 187.048C290.108 187.848 289.943 188.563 289.612 189.192C289.292 189.811 288.833 190.301 288.236 190.664C287.649 191.016 286.961 191.192 286.172 191.192C285.521 191.192 284.94 191.059 284.428 190.792C283.927 190.525 283.543 190.152 283.276 189.672V194.52H281.932ZM286.028 190.024C286.561 190.024 287.031 189.901 287.436 189.656C287.841 189.4 288.161 189.048 288.396 188.6C288.631 188.152 288.748 187.629 288.748 187.032C288.748 186.435 288.631 185.912 288.396 185.464C288.161 185.016 287.841 184.669 287.436 184.424C287.031 184.168 286.561 184.04 286.028 184.04C285.495 184.04 285.025 184.168 284.62 184.424C284.215 184.669 283.895 185.016 283.66 185.464C283.425 185.912 283.308 186.435 283.308 187.032C283.308 187.629 283.425 188.152 283.66 188.6C283.895 189.048 284.215 189.4 284.62 189.656C285.025 189.901 285.495 190.024 286.028 190.024ZM294.875 191.192C293.936 191.192 293.19 190.909 292.635 190.344C292.08 189.768 291.803 188.888 291.803 187.704V183.064H293.147V187.56C293.147 189.213 293.824 190.04 295.179 190.04C295.872 190.04 296.443 189.795 296.891 189.304C297.35 188.803 297.579 188.093 297.579 187.176V183.064H298.923V191H297.707L297.611 189.576C297.366 190.077 296.998 190.472 296.507 190.76C296.027 191.048 295.483 191.192 294.875 191.192ZM305.375 191.192C304.725 191.192 304.143 191.059 303.631 190.792C303.13 190.525 302.746 190.152 302.479 189.672L302.351 191H301.135V179.48H302.479V184.376C302.735 183.992 303.098 183.645 303.567 183.336C304.047 183.027 304.655 182.872 305.391 182.872C306.181 182.872 306.869 183.053 307.455 183.416C308.042 183.779 308.495 184.275 308.815 184.904C309.146 185.533 309.311 186.248 309.311 187.048C309.311 187.848 309.146 188.563 308.815 189.192C308.495 189.811 308.037 190.301 307.439 190.664C306.853 191.016 306.165 191.192 305.375 191.192ZM305.231 190.024C305.765 190.024 306.234 189.901 306.639 189.656C307.045 189.4 307.365 189.048 307.599 188.6C307.834 188.152 307.951 187.629 307.951 187.032C307.951 186.435 307.834 185.912 307.599 185.464C307.365 185.016 307.045 184.669 306.639 184.424C306.234 184.168 305.765 184.04 305.231 184.04C304.698 184.04 304.229 184.168 303.823 184.424C303.418 184.669 303.098 185.016 302.863 185.464C302.629 185.912 302.511 186.435 302.511 187.032C302.511 187.629 302.629 188.152 302.863 188.6C303.098 189.048 303.418 189.4 303.823 189.656C304.229 189.901 304.698 190.024 305.231 190.024ZM311.182 191V179.48H312.526V191H311.182ZM315.545 181.304C315.278 181.304 315.054 181.219 314.873 181.048C314.702 180.867 314.617 180.643 314.617 180.376C314.617 180.12 314.702 179.907 314.873 179.736C315.054 179.565 315.278 179.48 315.545 179.48C315.801 179.48 316.02 179.565 316.201 179.736C316.382 179.907 316.473 180.12 316.473 180.376C316.473 180.643 316.382 180.867 316.201 181.048C316.02 181.219 315.801 181.304 315.545 181.304ZM314.873 191V183.064H316.217V191H314.873ZM322.205 191.192C321.448 191.192 320.765 191.021 320.157 190.68C319.56 190.328 319.085 189.843 318.733 189.224C318.392 188.595 318.221 187.864 318.221 187.032C318.221 186.2 318.392 185.475 318.733 184.856C319.085 184.227 319.56 183.741 320.157 183.4C320.765 183.048 321.448 182.872 322.205 182.872C323.144 182.872 323.933 183.117 324.573 183.608C325.224 184.099 325.634 184.755 325.805 185.576H324.429C324.322 185.085 324.061 184.707 323.645 184.44C323.229 184.163 322.744 184.024 322.189 184.024C321.741 184.024 321.32 184.136 320.925 184.36C320.53 184.584 320.21 184.92 319.965 185.368C319.72 185.816 319.597 186.371 319.597 187.032C319.597 187.693 319.72 188.248 319.965 188.696C320.21 189.144 320.53 189.485 320.925 189.72C321.32 189.944 321.741 190.056 322.189 190.056C322.744 190.056 323.229 189.923 323.645 189.656C324.061 189.379 324.322 188.989 324.429 188.488H325.805C325.645 189.288 325.24 189.939 324.589 190.44C323.938 190.941 323.144 191.192 322.205 191.192ZM331.917 194.52V183.064H333.133L333.261 184.376C333.517 183.992 333.879 183.645 334.349 183.336C334.829 183.027 335.437 182.872 336.173 182.872C336.962 182.872 337.65 183.053 338.237 183.416C338.823 183.779 339.277 184.275 339.597 184.904C339.927 185.533 340.093 186.248 340.093 187.048C340.093 187.848 339.927 188.563 339.597 189.192C339.277 189.811 338.818 190.301 338.221 190.664C337.634 191.016 336.946 191.192 336.157 191.192C335.506 191.192 334.925 191.059 334.413 190.792C333.911 190.525 333.527 190.152 333.261 189.672V194.52H331.917ZM336.013 190.024C336.546 190.024 337.015 189.901 337.421 189.656C337.826 189.4 338.146 189.048 338.381 188.6C338.615 188.152 338.733 187.629 338.733 187.032C338.733 186.435 338.615 185.912 338.381 185.464C338.146 185.016 337.826 184.669 337.421 184.424C337.015 184.168 336.546 184.04 336.013 184.04C335.479 184.04 335.01 184.168 334.605 184.424C334.199 184.669 333.879 185.016 333.645 185.464C333.41 185.912 333.293 186.435 333.293 187.032C333.293 187.629 333.41 188.152 333.645 188.6C333.879 189.048 334.199 189.4 334.605 189.656C335.01 189.901 335.479 190.024 336.013 190.024ZM341.963 191V183.064H343.179L343.291 184.584C343.537 184.061 343.91 183.645 344.411 183.336C344.913 183.027 345.531 182.872 346.267 182.872V184.28H345.899C345.43 184.28 344.998 184.365 344.603 184.536C344.209 184.696 343.894 184.973 343.659 185.368C343.425 185.763 343.307 186.307 343.307 187V191H341.963ZM351.047 191.192C350.29 191.192 349.618 191.021 349.031 190.68C348.444 190.328 347.98 189.843 347.639 189.224C347.308 188.605 347.143 187.875 347.143 187.032C347.143 186.2 347.308 185.475 347.639 184.856C347.97 184.227 348.428 183.741 349.015 183.4C349.612 183.048 350.3 182.872 351.079 182.872C351.847 182.872 352.508 183.048 353.063 183.4C353.628 183.741 354.06 184.195 354.359 184.76C354.658 185.325 354.807 185.933 354.807 186.584C354.807 186.701 354.802 186.819 354.791 186.936C354.791 187.053 354.791 187.187 354.791 187.336H348.471C348.503 187.944 348.642 188.451 348.887 188.856C349.143 189.251 349.458 189.549 349.831 189.752C350.215 189.955 350.62 190.056 351.047 190.056C351.602 190.056 352.066 189.928 352.439 189.672C352.812 189.416 353.084 189.069 353.255 188.632H354.583C354.37 189.368 353.959 189.981 353.351 190.472C352.754 190.952 351.986 191.192 351.047 191.192ZM351.047 184.008C350.407 184.008 349.836 184.205 349.335 184.6C348.844 184.984 348.562 185.549 348.487 186.296H353.479C353.447 185.581 353.202 185.021 352.743 184.616C352.284 184.211 351.719 184.008 351.047 184.008ZM359.628 191.192C358.679 191.192 357.89 190.952 357.26 190.472C356.631 189.992 356.263 189.341 356.156 188.52H357.532C357.618 188.936 357.836 189.299 358.188 189.608C358.551 189.907 359.036 190.056 359.644 190.056C360.21 190.056 360.626 189.939 360.892 189.704C361.159 189.459 361.292 189.171 361.292 188.84C361.292 188.36 361.116 188.04 360.764 187.88C360.423 187.72 359.938 187.576 359.308 187.448C358.882 187.363 358.455 187.24 358.028 187.08C357.602 186.92 357.244 186.696 356.956 186.408C356.668 186.109 356.524 185.72 356.524 185.24C356.524 184.547 356.78 183.981 357.292 183.544C357.815 183.096 358.519 182.872 359.404 182.872C360.247 182.872 360.935 183.085 361.468 183.512C362.012 183.928 362.327 184.525 362.412 185.304H361.084C361.031 184.899 360.855 184.584 360.556 184.36C360.268 184.125 359.879 184.008 359.388 184.008C358.908 184.008 358.535 184.109 358.268 184.312C358.012 184.515 357.884 184.781 357.884 185.112C357.884 185.432 358.05 185.683 358.38 185.864C358.722 186.045 359.18 186.2 359.756 186.328C360.247 186.435 360.711 186.568 361.148 186.728C361.596 186.877 361.959 187.107 362.236 187.416C362.524 187.715 362.668 188.152 362.668 188.728C362.679 189.443 362.407 190.035 361.852 190.504C361.308 190.963 360.567 191.192 359.628 191.192ZM367.228 191.192C366.567 191.192 366.018 191.08 365.58 190.856C365.143 190.632 364.818 190.333 364.604 189.96C364.391 189.587 364.284 189.181 364.284 188.744C364.284 187.933 364.594 187.309 365.212 186.872C365.831 186.435 366.674 186.216 367.74 186.216H369.884V186.12C369.884 185.427 369.703 184.904 369.34 184.552C368.978 184.189 368.492 184.008 367.884 184.008C367.362 184.008 366.908 184.141 366.524 184.408C366.151 184.664 365.916 185.043 365.82 185.544H364.444C364.498 184.968 364.69 184.483 365.02 184.088C365.362 183.693 365.783 183.395 366.284 183.192C366.786 182.979 367.319 182.872 367.884 182.872C368.994 182.872 369.826 183.171 370.38 183.768C370.946 184.355 371.228 185.139 371.228 186.12V191H370.028L369.948 189.576C369.724 190.024 369.394 190.408 368.956 190.728C368.53 191.037 367.954 191.192 367.228 191.192ZM367.436 190.056C367.948 190.056 368.386 189.923 368.748 189.656C369.122 189.389 369.404 189.043 369.596 188.616C369.788 188.189 369.884 187.741 369.884 187.272V187.256H367.852C367.063 187.256 366.503 187.395 366.172 187.672C365.852 187.939 365.692 188.275 365.692 188.68C365.692 189.096 365.842 189.432 366.14 189.688C366.45 189.933 366.882 190.056 367.436 190.056ZM373.245 191V179.48H374.589V191H373.245ZM380.36 191.192C379.602 191.192 378.93 191.021 378.344 190.68C377.757 190.328 377.293 189.843 376.952 189.224C376.621 188.605 376.456 187.875 376.456 187.032C376.456 186.2 376.621 185.475 376.952 184.856C377.282 184.227 377.741 183.741 378.328 183.4C378.925 183.048 379.613 182.872 380.391 182.872C381.16 182.872 381.821 183.048 382.376 183.4C382.941 183.741 383.373 184.195 383.672 184.76C383.97 185.325 384.12 185.933 384.12 186.584C384.12 186.701 384.114 186.819 384.104 186.936C384.104 187.053 384.104 187.187 384.104 187.336H377.784C377.816 187.944 377.954 188.451 378.2 188.856C378.456 189.251 378.77 189.549 379.144 189.752C379.528 189.955 379.933 190.056 380.36 190.056C380.914 190.056 381.378 189.928 381.752 189.672C382.125 189.416 382.397 189.069 382.568 188.632H383.896C383.682 189.368 383.272 189.981 382.664 190.472C382.066 190.952 381.298 191.192 380.36 191.192ZM380.36 184.008C379.72 184.008 379.149 184.205 378.648 184.6C378.157 184.984 377.874 185.549 377.799 186.296H382.792C382.76 185.581 382.514 185.021 382.056 184.616C381.597 184.211 381.032 184.008 380.36 184.008ZM394.375 191.192C393.725 191.192 393.143 191.059 392.631 190.792C392.13 190.525 391.746 190.152 391.479 189.672L391.351 191H390.135V179.48H391.479V184.376C391.735 183.992 392.098 183.645 392.567 183.336C393.047 183.027 393.655 182.872 394.391 182.872C395.181 182.872 395.869 183.053 396.455 183.416C397.042 183.779 397.495 184.275 397.815 184.904C398.146 185.533 398.311 186.248 398.311 187.048C398.311 187.848 398.146 188.563 397.815 189.192C397.495 189.811 397.037 190.301 396.439 190.664C395.853 191.016 395.165 191.192 394.375 191.192ZM394.231 190.024C394.765 190.024 395.234 189.901 395.639 189.656C396.045 189.4 396.365 189.048 396.599 188.6C396.834 188.152 396.951 187.629 396.951 187.032C396.951 186.435 396.834 185.912 396.599 185.464C396.365 185.016 396.045 184.669 395.639 184.424C395.234 184.168 394.765 184.04 394.231 184.04C393.698 184.04 393.229 184.168 392.823 184.424C392.418 184.669 392.098 185.016 391.863 185.464C391.629 185.912 391.511 186.435 391.511 187.032C391.511 187.629 391.629 188.152 391.863 188.6C392.098 189.048 392.418 189.4 392.823 189.656C393.229 189.901 393.698 190.024 394.231 190.024ZM403.078 191.192C402.139 191.192 401.393 190.909 400.838 190.344C400.283 189.768 400.006 188.888 400.006 187.704V183.064H401.35V187.56C401.35 189.213 402.027 190.04 403.382 190.04C404.075 190.04 404.646 189.795 405.094 189.304C405.553 188.803 405.782 188.093 405.782 187.176V183.064H407.126V191H405.91L405.814 189.576C405.569 190.077 405.201 190.472 404.71 190.76C404.23 191.048 403.686 191.192 403.078 191.192ZM412.474 191C411.749 191 411.178 190.824 410.762 190.472C410.346 190.12 410.138 189.485 410.138 188.568V184.2H408.762V183.064H410.138L410.314 181.16H411.482V183.064H413.818V184.2H411.482V188.568C411.482 189.069 411.584 189.411 411.786 189.592C411.989 189.763 412.346 189.848 412.858 189.848H413.69V191H412.474ZM142.24 214.504C141.792 214.504 141.381 214.445 141.008 214.328L140.208 215.08C140.325 215.165 140.469 215.24 140.64 215.304C140.821 215.357 141.077 215.411 141.408 215.464C141.739 215.507 142.203 215.555 142.8 215.608C143.867 215.683 144.629 215.928 145.088 216.344C145.547 216.76 145.776 217.304 145.776 217.976C145.776 218.435 145.648 218.872 145.392 219.288C145.147 219.704 144.763 220.045 144.24 220.312C143.728 220.579 143.067 220.712 142.256 220.712C141.541 220.712 140.907 220.616 140.352 220.424C139.797 220.243 139.365 219.96 139.056 219.576C138.747 219.203 138.592 218.728 138.592 218.152C138.592 217.853 138.672 217.528 138.832 217.176C138.992 216.835 139.291 216.509 139.728 216.2C139.493 216.104 139.291 216.003 139.12 215.896C138.96 215.779 138.811 215.651 138.672 215.512V215.144L140.032 213.8C139.403 213.267 139.088 212.563 139.088 211.688C139.088 211.165 139.211 210.691 139.456 210.264C139.701 209.837 140.059 209.501 140.528 209.256C140.997 209 141.568 208.872 142.24 208.872C142.699 208.872 143.115 208.936 143.488 209.064H146.416V210.072L144.928 210.136C145.237 210.584 145.392 211.101 145.392 211.688C145.392 212.211 145.264 212.685 145.008 213.112C144.763 213.539 144.405 213.88 143.936 214.136C143.477 214.381 142.912 214.504 142.24 214.504ZM142.24 213.4C142.805 213.4 143.253 213.256 143.584 212.968C143.925 212.669 144.096 212.243 144.096 211.688C144.096 211.144 143.925 210.728 143.584 210.44C143.253 210.141 142.805 209.992 142.24 209.992C141.664 209.992 141.205 210.141 140.864 210.44C140.533 210.728 140.368 211.144 140.368 211.688C140.368 212.243 140.533 212.669 140.864 212.968C141.205 213.256 141.664 213.4 142.24 213.4ZM139.904 218.024C139.904 218.557 140.128 218.952 140.576 219.208C141.024 219.475 141.584 219.608 142.256 219.608C142.917 219.608 143.445 219.464 143.84 219.176C144.245 218.888 144.448 218.504 144.448 218.024C144.448 217.683 144.309 217.384 144.032 217.128C143.755 216.883 143.243 216.739 142.496 216.696C141.909 216.653 141.403 216.6 140.976 216.536C140.539 216.771 140.251 217.021 140.112 217.288C139.973 217.565 139.904 217.811 139.904 218.024ZM150.828 217.192C149.889 217.192 149.143 216.909 148.588 216.344C148.033 215.768 147.756 214.888 147.756 213.704V209.064H149.1V213.56C149.1 215.213 149.777 216.04 151.132 216.04C151.825 216.04 152.396 215.795 152.844 215.304C153.303 214.803 153.532 214.093 153.532 213.176V209.064H154.876V217H153.66L153.564 215.576C153.319 216.077 152.951 216.472 152.46 216.76C151.98 217.048 151.436 217.192 150.828 217.192ZM159.728 217.192C159.067 217.192 158.518 217.08 158.08 216.856C157.643 216.632 157.318 216.333 157.104 215.96C156.891 215.587 156.784 215.181 156.784 214.744C156.784 213.933 157.094 213.309 157.712 212.872C158.331 212.435 159.174 212.216 160.24 212.216H162.384V212.12C162.384 211.427 162.203 210.904 161.84 210.552C161.478 210.189 160.992 210.008 160.384 210.008C159.862 210.008 159.408 210.141 159.024 210.408C158.651 210.664 158.416 211.043 158.32 211.544H156.944C156.998 210.968 157.19 210.483 157.52 210.088C157.862 209.693 158.283 209.395 158.784 209.192C159.286 208.979 159.819 208.872 160.384 208.872C161.494 208.872 162.326 209.171 162.88 209.768C163.446 210.355 163.728 211.139 163.728 212.12V217H162.528L162.448 215.576C162.224 216.024 161.894 216.408 161.456 216.728C161.03 217.037 160.454 217.192 159.728 217.192ZM159.936 216.056C160.448 216.056 160.886 215.923 161.248 215.656C161.622 215.389 161.904 215.043 162.096 214.616C162.288 214.189 162.384 213.741 162.384 213.272V213.256H160.352C159.563 213.256 159.003 213.395 158.672 213.672C158.352 213.939 158.192 214.275 158.192 214.68C158.192 215.096 158.342 215.432 158.64 215.688C158.95 215.933 159.382 216.056 159.936 216.056ZM165.745 217V209.064H166.961L167.073 210.584C167.318 210.061 167.691 209.645 168.193 209.336C168.694 209.027 169.313 208.872 170.049 208.872V210.28H169.681C169.211 210.28 168.779 210.365 168.385 210.536C167.99 210.696 167.675 210.973 167.441 211.368C167.206 211.763 167.089 212.307 167.089 213V217H165.745ZM174.197 217.192C173.536 217.192 172.986 217.08 172.549 216.856C172.112 216.632 171.786 216.333 171.573 215.96C171.36 215.587 171.253 215.181 171.253 214.744C171.253 213.933 171.562 213.309 172.181 212.872C172.8 212.435 173.642 212.216 174.709 212.216H176.853V212.12C176.853 211.427 176.672 210.904 176.309 210.552C175.946 210.189 175.461 210.008 174.853 210.008C174.33 210.008 173.877 210.141 173.493 210.408C173.12 210.664 172.885 211.043 172.789 211.544H171.413C171.466 210.968 171.658 210.483 171.989 210.088C172.33 209.693 172.752 209.395 173.253 209.192C173.754 208.979 174.288 208.872 174.853 208.872C175.962 208.872 176.794 209.171 177.349 209.768C177.914 210.355 178.197 211.139 178.197 212.12V217H176.997L176.917 215.576C176.693 216.024 176.362 216.408 175.925 216.728C175.498 217.037 174.922 217.192 174.197 217.192ZM174.405 216.056C174.917 216.056 175.354 215.923 175.717 215.656C176.09 215.389 176.373 215.043 176.565 214.616C176.757 214.189 176.853 213.741 176.853 213.272V213.256H174.821C174.032 213.256 173.472 213.395 173.141 213.672C172.821 213.939 172.661 214.275 172.661 214.68C172.661 215.096 172.81 215.432 173.109 215.688C173.418 215.933 173.85 216.056 174.405 216.056ZM180.213 217V209.064H181.429L181.509 210.488C181.765 209.987 182.133 209.592 182.613 209.304C183.093 209.016 183.637 208.872 184.245 208.872C185.184 208.872 185.931 209.16 186.485 209.736C187.051 210.301 187.333 211.176 187.333 212.36V217H185.989V212.504C185.989 210.851 185.307 210.024 183.941 210.024C183.259 210.024 182.688 210.275 182.229 210.776C181.781 211.267 181.557 211.971 181.557 212.888V217H180.213ZM192.506 217C191.78 217 191.21 216.824 190.794 216.472C190.378 216.12 190.17 215.485 190.17 214.568V210.2H188.794V209.064H190.17L190.346 207.16H191.514V209.064H193.85V210.2H191.514V214.568C191.514 215.069 191.615 215.411 191.818 215.592C192.02 215.763 192.378 215.848 192.89 215.848H193.722V217H192.506ZM198.906 217.192C198.149 217.192 197.477 217.021 196.89 216.68C196.304 216.328 195.84 215.843 195.498 215.224C195.168 214.605 195.002 213.875 195.002 213.032C195.002 212.2 195.168 211.475 195.498 210.856C195.829 210.227 196.288 209.741 196.874 209.4C197.472 209.048 198.16 208.872 198.938 208.872C199.706 208.872 200.368 209.048 200.922 209.4C201.488 209.741 201.92 210.195 202.218 210.76C202.517 211.325 202.666 211.933 202.666 212.584C202.666 212.701 202.661 212.819 202.65 212.936C202.65 213.053 202.65 213.187 202.65 213.336H196.33C196.362 213.944 196.501 214.451 196.746 214.856C197.002 215.251 197.317 215.549 197.69 215.752C198.074 215.955 198.48 216.056 198.906 216.056C199.461 216.056 199.925 215.928 200.298 215.672C200.672 215.416 200.944 215.069 201.114 214.632H202.442C202.229 215.368 201.818 215.981 201.21 216.472C200.613 216.952 199.845 217.192 198.906 217.192ZM198.906 210.008C198.266 210.008 197.696 210.205 197.194 210.6C196.704 210.984 196.421 211.549 196.346 212.296H201.338C201.306 211.581 201.061 211.021 200.602 210.616C200.144 210.211 199.578 210.008 198.906 210.008ZM208.016 217.192C207.258 217.192 206.586 217.021 206 216.68C205.413 216.328 204.949 215.843 204.608 215.224C204.277 214.605 204.112 213.875 204.112 213.032C204.112 212.2 204.277 211.475 204.608 210.856C204.938 210.227 205.397 209.741 205.984 209.4C206.581 209.048 207.269 208.872 208.048 208.872C208.816 208.872 209.477 209.048 210.032 209.4C210.597 209.741 211.029 210.195 211.328 210.76C211.626 211.325 211.776 211.933 211.776 212.584C211.776 212.701 211.77 212.819 211.76 212.936C211.76 213.053 211.76 213.187 211.76 213.336H205.44C205.472 213.944 205.61 214.451 205.856 214.856C206.112 215.251 206.426 215.549 206.8 215.752C207.184 215.955 207.589 216.056 208.016 216.056C208.57 216.056 209.034 215.928 209.408 215.672C209.781 215.416 210.053 215.069 210.224 214.632H211.552C211.338 215.368 210.928 215.981 210.32 216.472C209.722 216.952 208.954 217.192 208.016 217.192ZM208.016 210.008C207.376 210.008 206.805 210.205 206.304 210.6C205.813 210.984 205.53 211.549 205.456 212.296H210.448C210.416 211.581 210.17 211.021 209.712 210.616C209.253 210.211 208.688 210.008 208.016 210.008ZM217.157 217.192C216.368 217.192 215.674 217.011 215.077 216.648C214.49 216.285 214.032 215.789 213.701 215.16C213.381 214.531 213.221 213.816 213.221 213.016C213.221 212.216 213.386 211.507 213.717 210.888C214.048 210.259 214.506 209.768 215.093 209.416C215.68 209.053 216.373 208.872 217.173 208.872C217.824 208.872 218.4 209.005 218.901 209.272C219.402 209.539 219.792 209.912 220.069 210.392V205.48H221.413V217H220.197L220.069 215.688C219.813 216.072 219.445 216.419 218.965 216.728C218.485 217.037 217.882 217.192 217.157 217.192ZM217.301 216.024C217.834 216.024 218.304 215.901 218.709 215.656C219.125 215.4 219.445 215.048 219.669 214.6C219.904 214.152 220.021 213.629 220.021 213.032C220.021 212.435 219.904 211.912 219.669 211.464C219.445 211.016 219.125 210.669 218.709 210.424C218.304 210.168 217.834 210.04 217.301 210.04C216.778 210.04 216.309 210.168 215.893 210.424C215.488 210.669 215.168 211.016 214.933 211.464C214.709 211.912 214.597 212.435 214.597 213.032C214.597 213.629 214.709 214.152 214.933 214.6C215.168 215.048 215.488 215.4 215.893 215.656C216.309 215.901 216.778 216.024 217.301 216.024ZM230.878 217.192C229.929 217.192 229.14 216.952 228.51 216.472C227.881 215.992 227.513 215.341 227.406 214.52H228.782C228.868 214.936 229.086 215.299 229.438 215.608C229.801 215.907 230.286 216.056 230.894 216.056C231.46 216.056 231.876 215.939 232.142 215.704C232.409 215.459 232.542 215.171 232.542 214.84C232.542 214.36 232.366 214.04 232.014 213.88C231.673 213.72 231.188 213.576 230.558 213.448C230.132 213.363 229.705 213.24 229.278 213.08C228.852 212.92 228.494 212.696 228.206 212.408C227.918 212.109 227.774 211.72 227.774 211.24C227.774 210.547 228.03 209.981 228.542 209.544C229.065 209.096 229.769 208.872 230.654 208.872C231.497 208.872 232.185 209.085 232.718 209.512C233.262 209.928 233.577 210.525 233.662 211.304H232.334C232.281 210.899 232.105 210.584 231.806 210.36C231.518 210.125 231.129 210.008 230.638 210.008C230.158 210.008 229.785 210.109 229.518 210.312C229.262 210.515 229.134 210.781 229.134 211.112C229.134 211.432 229.3 211.683 229.63 211.864C229.972 212.045 230.43 212.2 231.006 212.328C231.497 212.435 231.961 212.568 232.398 212.728C232.846 212.877 233.209 213.107 233.486 213.416C233.774 213.715 233.918 214.152 233.918 214.728C233.929 215.443 233.657 216.035 233.102 216.504C232.558 216.963 231.817 217.192 230.878 217.192ZM235.838 220.52V209.064H237.054L237.182 210.376C237.438 209.992 237.801 209.645 238.27 209.336C238.75 209.027 239.358 208.872 240.094 208.872C240.884 208.872 241.572 209.053 242.158 209.416C242.745 209.779 243.198 210.275 243.518 210.904C243.849 211.533 244.014 212.248 244.014 213.048C244.014 213.848 243.849 214.563 243.518 215.192C243.198 215.811 242.74 216.301 242.142 216.664C241.556 217.016 240.868 217.192 240.078 217.192C239.428 217.192 238.846 217.059 238.334 216.792C237.833 216.525 237.449 216.152 237.182 215.672V220.52H235.838ZM239.934 216.024C240.468 216.024 240.937 215.901 241.342 215.656C241.748 215.4 242.068 215.048 242.302 214.6C242.537 214.152 242.654 213.629 242.654 213.032C242.654 212.435 242.537 211.912 242.302 211.464C242.068 211.016 241.748 210.669 241.342 210.424C240.937 210.168 240.468 210.04 239.934 210.04C239.401 210.04 238.932 210.168 238.526 210.424C238.121 210.669 237.801 211.016 237.566 211.464C237.332 211.912 237.214 212.435 237.214 213.032C237.214 213.629 237.332 214.152 237.566 214.6C237.801 215.048 238.121 215.4 238.526 215.656C238.932 215.901 239.401 216.024 239.934 216.024ZM249.501 217.192C248.755 217.192 248.083 217.021 247.485 216.68C246.888 216.339 246.413 215.859 246.061 215.24C245.72 214.611 245.549 213.875 245.549 213.032C245.549 212.189 245.725 211.459 246.077 210.84C246.429 210.211 246.904 209.725 247.501 209.384C248.109 209.043 248.787 208.872 249.533 208.872C250.28 208.872 250.952 209.043 251.549 209.384C252.147 209.725 252.616 210.211 252.957 210.84C253.309 211.459 253.485 212.189 253.485 213.032C253.485 213.875 253.309 214.611 252.957 215.24C252.605 215.859 252.125 216.339 251.517 216.68C250.92 217.021 250.248 217.192 249.501 217.192ZM249.501 216.04C249.96 216.04 250.387 215.928 250.781 215.704C251.176 215.48 251.496 215.144 251.741 214.696C251.987 214.248 252.109 213.693 252.109 213.032C252.109 212.371 251.987 211.816 251.741 211.368C251.507 210.92 251.192 210.584 250.797 210.36C250.403 210.136 249.981 210.024 249.533 210.024C249.075 210.024 248.648 210.136 248.253 210.36C247.859 210.584 247.539 210.92 247.293 211.368C247.048 211.816 246.925 212.371 246.925 213.032C246.925 213.693 247.048 214.248 247.293 214.696C247.539 215.144 247.853 215.48 248.237 215.704C248.632 215.928 249.053 216.04 249.501 216.04ZM258.178 217C257.452 217 256.882 216.824 256.466 216.472C256.05 216.12 255.842 215.485 255.842 214.568V210.2H254.465V209.064H255.842L256.018 207.16H257.186V209.064H259.522V210.2H257.186V214.568C257.186 215.069 257.287 215.411 257.49 215.592C257.692 215.763 258.05 215.848 258.562 215.848H259.394V217H258.178Z" fill="#040404" fill-opacity="0.8"/>
<defs>
<filter id="filter0_d_89_253" x="0" y="0" width="616" height="582" filterUnits="userSpaceOnUse" color-interpolation-filters="sRGB">
<feFlood flood-opacity="0" result="BackgroundImageFix"/>
<feColorMatrix in="SourceAlpha" type="matrix" values="0 0 0 0 0 0 0 0 0 0 0 0 0 0 0 0 0 0 127 0" result="hardAlpha"/>
<feOffset dy="40"/>
<feGaussianBlur stdDeviation="40"/>
<feColorMatrix type="matrix" values="0 0 0 0 0.9625 0 0 0 0 0.9625 0 0 0 0 0.9625 0 0 0 1 0"/>
<feBlend mode="normal" in2="BackgroundImageFix" result="effect1_dropShadow_89_253"/>
<feBlend mode="normal" in="SourceGraphic" in2="effect1_dropShadow_89_253" result="shape"/>
</filter>
</defs>
</svg>
