<svg width="575" height="255" viewBox="0 0 575 255" fill="none" xmlns="http://www.w3.org/2000/svg">
<path d="M229.991 46V36.304L228.183 36.704V35.776L230.439 34.8H231.351V46H229.991ZM238.083 46.192C237.091 46.192 236.233 45.952 235.507 45.472C234.793 44.9813 234.243 44.304 233.859 43.44C233.475 42.5653 233.283 41.552 233.283 40.4C233.283 39.248 233.475 38.24 233.859 37.376C234.243 36.5013 234.793 35.824 235.507 35.344C236.233 34.8533 237.091 34.608 238.083 34.608C239.075 34.608 239.929 34.8533 240.643 35.344C241.358 35.824 241.907 36.5013 242.291 37.376C242.675 38.24 242.867 39.248 242.867 40.4C242.867 41.552 242.675 42.5653 242.291 43.44C241.907 44.304 241.358 44.9813 240.643 45.472C239.929 45.952 239.075 46.192 238.083 46.192ZM238.083 45.008C238.734 45.008 239.315 44.8267 239.827 44.464C240.35 44.0907 240.755 43.5627 241.043 42.88C241.342 42.1867 241.491 41.36 241.491 40.4C241.491 39.44 241.342 38.6187 241.043 37.936C240.755 37.2533 240.35 36.7307 239.827 36.368C239.315 35.9947 238.734 35.808 238.083 35.808C237.422 35.808 236.835 35.9947 236.323 36.368C235.811 36.7307 235.406 37.2533 235.107 37.936C234.809 38.6187 234.659 39.44 234.659 40.4C234.659 41.36 234.809 42.1867 235.107 42.88C235.406 43.5627 235.811 44.0907 236.323 44.464C236.835 44.8267 237.422 45.008 238.083 45.008ZM246.825 40C246.345 40 245.908 39.8933 245.513 39.68C245.129 39.456 244.825 39.1467 244.601 38.752C244.377 38.3467 244.265 37.8667 244.265 37.312C244.265 36.7573 244.377 36.2827 244.601 35.888C244.836 35.4827 245.145 35.1733 245.529 34.96C245.924 34.736 246.361 34.624 246.841 34.624C247.321 34.624 247.753 34.736 248.137 34.96C248.521 35.1733 248.825 35.4827 249.049 35.888C249.273 36.2827 249.385 36.7573 249.385 37.312C249.385 37.8667 249.268 38.3467 249.033 38.752C248.809 39.1467 248.505 39.456 248.121 39.68C247.737 39.8933 247.305 40 246.825 40ZM245.833 46L252.345 34.8H253.689L247.177 46H245.833ZM246.825 38.96C247.198 38.96 247.524 38.8213 247.801 38.544C248.089 38.2667 248.233 37.856 248.233 37.312C248.233 36.7573 248.094 36.3413 247.817 36.064C247.54 35.776 247.214 35.632 246.841 35.632C246.468 35.632 246.132 35.776 245.833 36.064C245.545 36.3413 245.401 36.7573 245.401 37.312C245.401 37.856 245.545 38.2667 245.833 38.544C246.121 38.8213 246.452 38.96 246.825 38.96ZM252.809 46.192C252.329 46.192 251.892 46.0853 251.497 45.872C251.113 45.648 250.809 45.3387 250.585 44.944C250.361 44.5387 250.249 44.0587 250.249 43.504C250.249 42.9493 250.361 42.4747 250.585 42.08C250.82 41.6747 251.129 41.3653 251.513 41.152C251.897 40.928 252.329 40.816 252.809 40.816C253.289 40.816 253.721 40.928 254.105 41.152C254.489 41.3653 254.793 41.6747 255.017 42.08C255.241 42.4747 255.353 42.9493 255.353 43.504C255.353 44.0587 255.241 44.5387 255.017 44.944C254.793 45.3387 254.489 45.648 254.105 45.872C253.721 46.0853 253.289 46.192 252.809 46.192ZM252.793 45.152C253.177 45.152 253.508 45.0133 253.785 44.736C254.073 44.4587 254.217 44.048 254.217 43.504C254.217 42.9493 254.078 42.5333 253.801 42.256C253.524 41.9787 253.193 41.84 252.809 41.84C252.436 41.84 252.105 41.9787 251.817 42.256C251.529 42.5333 251.385 42.9493 251.385 43.504C251.385 44.048 251.524 44.4587 251.801 44.736C252.089 45.0133 252.42 45.152 252.793 45.152Z" fill="#040404" fill-opacity="0.8"/>
<path d="M236.82 96.192C236.052 96.192 235.385 96.0533 234.82 95.776C234.255 95.4987 233.801 95.12 233.46 94.64C233.129 94.1493 232.927 93.5947 232.852 92.976H234.164C234.292 93.5947 234.591 94.096 235.06 94.48C235.529 94.8533 236.121 95.04 236.836 95.04C237.369 95.04 237.828 94.9173 238.212 94.672C238.596 94.416 238.889 94.0747 239.092 93.648C239.305 93.2213 239.412 92.7467 239.412 92.224C239.412 91.392 239.177 90.72 238.708 90.208C238.239 89.696 237.631 89.44 236.884 89.44C236.265 89.44 235.737 89.5787 235.3 89.856C234.863 90.1333 234.543 90.496 234.34 90.944H233.06L234.02 84.8H239.892V85.968H235.06L234.404 89.376C234.66 89.0667 235.012 88.8107 235.46 88.608C235.919 88.4053 236.441 88.304 237.028 88.304C237.764 88.304 238.404 88.4747 238.948 88.816C239.503 89.1573 239.935 89.6213 240.244 90.208C240.553 90.7947 240.708 91.4613 240.708 92.208C240.708 92.9227 240.553 93.584 240.244 94.192C239.945 94.8 239.503 95.2853 238.916 95.648C238.34 96.0107 237.641 96.192 236.82 96.192ZM244.825 90C244.345 90 243.908 89.8933 243.513 89.68C243.129 89.456 242.825 89.1467 242.601 88.752C242.377 88.3467 242.265 87.8667 242.265 87.312C242.265 86.7573 242.377 86.2827 242.601 85.888C242.836 85.4827 243.145 85.1733 243.529 84.96C243.924 84.736 244.361 84.624 244.841 84.624C245.321 84.624 245.753 84.736 246.137 84.96C246.521 85.1733 246.825 85.4827 247.049 85.888C247.273 86.2827 247.385 86.7573 247.385 87.312C247.385 87.8667 247.268 88.3467 247.033 88.752C246.809 89.1467 246.505 89.456 246.121 89.68C245.737 89.8933 245.305 90 244.825 90ZM243.833 96L250.345 84.8H251.689L245.177 96H243.833ZM244.825 88.96C245.198 88.96 245.524 88.8213 245.801 88.544C246.089 88.2667 246.233 87.856 246.233 87.312C246.233 86.7573 246.094 86.3413 245.817 86.064C245.54 85.776 245.214 85.632 244.841 85.632C244.468 85.632 244.132 85.776 243.833 86.064C243.545 86.3413 243.401 86.7573 243.401 87.312C243.401 87.856 243.545 88.2667 243.833 88.544C244.121 88.8213 244.452 88.96 244.825 88.96ZM250.809 96.192C250.329 96.192 249.892 96.0853 249.497 95.872C249.113 95.648 248.809 95.3387 248.585 94.944C248.361 94.5387 248.249 94.0587 248.249 93.504C248.249 92.9493 248.361 92.4747 248.585 92.08C248.82 91.6747 249.129 91.3653 249.513 91.152C249.897 90.928 250.329 90.816 250.809 90.816C251.289 90.816 251.721 90.928 252.105 91.152C252.489 91.3653 252.793 91.6747 253.017 92.08C253.241 92.4747 253.353 92.9493 253.353 93.504C253.353 94.0587 253.241 94.5387 253.017 94.944C252.793 95.3387 252.489 95.648 252.105 95.872C251.721 96.0853 251.289 96.192 250.809 96.192ZM250.793 95.152C251.177 95.152 251.508 95.0133 251.785 94.736C252.073 94.4587 252.217 94.048 252.217 93.504C252.217 92.9493 252.078 92.5333 251.801 92.256C251.524 91.9787 251.193 91.84 250.809 91.84C250.436 91.84 250.105 91.9787 249.817 92.256C249.529 92.5333 249.385 92.9493 249.385 93.504C249.385 94.048 249.524 94.4587 249.801 94.736C250.089 95.0133 250.42 95.152 250.793 95.152Z" fill="#040404" fill-opacity="0.8"/>
<path d="M236.156 146.192C235.442 146.192 234.796 146.064 234.22 145.808C233.644 145.541 233.18 145.147 232.828 144.624C232.487 144.101 232.306 143.451 232.284 142.672H233.644C233.655 143.312 233.879 143.867 234.316 144.336C234.754 144.795 235.367 145.024 236.156 145.024C236.946 145.024 237.538 144.805 237.932 144.368C238.338 143.931 238.54 143.403 238.54 142.784C238.54 142.261 238.412 141.835 238.156 141.504C237.911 141.173 237.575 140.928 237.148 140.768C236.732 140.608 236.274 140.528 235.772 140.528H234.94V139.392H235.772C236.498 139.392 237.063 139.227 237.468 138.896C237.884 138.565 238.092 138.101 238.092 137.504C238.092 137.003 237.927 136.592 237.596 136.272C237.276 135.941 236.796 135.776 236.156 135.776C235.538 135.776 235.042 135.963 234.668 136.336C234.295 136.699 234.087 137.157 234.044 137.712H232.684C232.716 137.104 232.876 136.565 233.164 136.096C233.463 135.627 233.868 135.264 234.38 135.008C234.892 134.741 235.484 134.608 236.156 134.608C236.882 134.608 237.484 134.736 237.964 134.992C238.455 135.248 238.823 135.589 239.068 136.016C239.324 136.443 239.452 136.912 239.452 137.424C239.452 137.989 239.298 138.507 238.988 138.976C238.679 139.435 238.215 139.744 237.596 139.904C238.258 140.043 238.807 140.357 239.244 140.848C239.682 141.339 239.9 141.984 239.9 142.784C239.9 143.403 239.756 143.973 239.468 144.496C239.191 145.008 238.775 145.419 238.22 145.728C237.666 146.037 236.978 146.192 236.156 146.192ZM243.825 140C243.345 140 242.908 139.893 242.513 139.68C242.129 139.456 241.825 139.147 241.601 138.752C241.377 138.347 241.265 137.867 241.265 137.312C241.265 136.757 241.377 136.283 241.601 135.888C241.836 135.483 242.145 135.173 242.529 134.96C242.924 134.736 243.361 134.624 243.841 134.624C244.321 134.624 244.753 134.736 245.137 134.96C245.521 135.173 245.825 135.483 246.049 135.888C246.273 136.283 246.385 136.757 246.385 137.312C246.385 137.867 246.268 138.347 246.033 138.752C245.809 139.147 245.505 139.456 245.121 139.68C244.737 139.893 244.305 140 243.825 140ZM242.833 146L249.345 134.8H250.689L244.177 146H242.833ZM243.825 138.96C244.198 138.96 244.524 138.821 244.801 138.544C245.089 138.267 245.233 137.856 245.233 137.312C245.233 136.757 245.094 136.341 244.817 136.064C244.54 135.776 244.214 135.632 243.841 135.632C243.468 135.632 243.132 135.776 242.833 136.064C242.545 136.341 242.401 136.757 242.401 137.312C242.401 137.856 242.545 138.267 242.833 138.544C243.121 138.821 243.452 138.96 243.825 138.96ZM249.809 146.192C249.329 146.192 248.892 146.085 248.497 145.872C248.113 145.648 247.809 145.339 247.585 144.944C247.361 144.539 247.249 144.059 247.249 143.504C247.249 142.949 247.361 142.475 247.585 142.08C247.82 141.675 248.129 141.365 248.513 141.152C248.897 140.928 249.329 140.816 249.809 140.816C250.289 140.816 250.721 140.928 251.105 141.152C251.489 141.365 251.793 141.675 252.017 142.08C252.241 142.475 252.353 142.949 252.353 143.504C252.353 144.059 252.241 144.539 252.017 144.944C251.793 145.339 251.489 145.648 251.105 145.872C250.721 146.085 250.289 146.192 249.809 146.192ZM249.793 145.152C250.177 145.152 250.508 145.013 250.785 144.736C251.073 144.459 251.217 144.048 251.217 143.504C251.217 142.949 251.078 142.533 250.801 142.256C250.524 141.979 250.193 141.84 249.809 141.84C249.436 141.84 249.105 141.979 248.817 142.256C248.529 142.533 248.385 142.949 248.385 143.504C248.385 144.048 248.524 144.459 248.801 144.736C249.089 145.013 249.42 145.152 249.793 145.152Z" fill="#040404" fill-opacity="0.8"/>
<path d="M234.477 196V195.056C235.234 194.459 235.949 193.856 236.621 193.248C237.303 192.629 237.906 192.021 238.429 191.424C238.962 190.827 239.378 190.24 239.677 189.664C239.986 189.088 240.141 188.533 240.141 188C240.141 187.605 240.071 187.237 239.933 186.896C239.805 186.555 239.591 186.283 239.293 186.08C238.994 185.867 238.589 185.76 238.077 185.76C237.586 185.76 237.175 185.872 236.845 186.096C236.514 186.309 236.263 186.597 236.093 186.96C235.933 187.323 235.853 187.712 235.853 188.128H234.557C234.557 187.392 234.711 186.763 235.021 186.24C235.33 185.707 235.751 185.301 236.285 185.024C236.818 184.747 237.421 184.608 238.093 184.608C239.085 184.608 239.895 184.891 240.525 185.456C241.165 186.011 241.485 186.843 241.485 187.952C241.485 188.613 241.319 189.269 240.989 189.92C240.658 190.56 240.237 191.184 239.725 191.792C239.213 192.389 238.663 192.949 238.077 193.472C237.501 193.995 236.962 194.464 236.461 194.88H241.869V196H234.477ZM245.825 190C245.345 190 244.908 189.893 244.513 189.68C244.129 189.456 243.825 189.147 243.601 188.752C243.377 188.347 243.265 187.867 243.265 187.312C243.265 186.757 243.377 186.283 243.601 185.888C243.836 185.483 244.145 185.173 244.529 184.96C244.924 184.736 245.361 184.624 245.841 184.624C246.321 184.624 246.753 184.736 247.137 184.96C247.521 185.173 247.825 185.483 248.049 185.888C248.273 186.283 248.385 186.757 248.385 187.312C248.385 187.867 248.268 188.347 248.033 188.752C247.809 189.147 247.505 189.456 247.121 189.68C246.737 189.893 246.305 190 245.825 190ZM244.833 196L251.345 184.8H252.689L246.177 196H244.833ZM245.825 188.96C246.198 188.96 246.524 188.821 246.801 188.544C247.089 188.267 247.233 187.856 247.233 187.312C247.233 186.757 247.094 186.341 246.817 186.064C246.54 185.776 246.214 185.632 245.841 185.632C245.468 185.632 245.132 185.776 244.833 186.064C244.545 186.341 244.401 186.757 244.401 187.312C244.401 187.856 244.545 188.267 244.833 188.544C245.121 188.821 245.452 188.96 245.825 188.96ZM251.809 196.192C251.329 196.192 250.892 196.085 250.497 195.872C250.113 195.648 249.809 195.339 249.585 194.944C249.361 194.539 249.249 194.059 249.249 193.504C249.249 192.949 249.361 192.475 249.585 192.08C249.82 191.675 250.129 191.365 250.513 191.152C250.897 190.928 251.329 190.816 251.809 190.816C252.289 190.816 252.721 190.928 253.105 191.152C253.489 191.365 253.793 191.675 254.017 192.08C254.241 192.475 254.353 192.949 254.353 193.504C254.353 194.059 254.241 194.539 254.017 194.944C253.793 195.339 253.489 195.648 253.105 195.872C252.721 196.085 252.289 196.192 251.809 196.192ZM251.793 195.152C252.177 195.152 252.508 195.013 252.785 194.736C253.073 194.459 253.217 194.048 253.217 193.504C253.217 192.949 253.078 192.533 252.801 192.256C252.524 191.979 252.193 191.84 251.809 191.84C251.436 191.84 251.105 191.979 250.817 192.256C250.529 192.533 250.385 192.949 250.385 193.504C250.385 194.048 250.524 194.459 250.801 194.736C251.089 195.013 251.42 195.152 251.793 195.152Z" fill="#040404" fill-opacity="0.8"/>
<path d="M44.752 46.192C43.9307 46.192 43.216 46.0427 42.608 45.744C42 45.4453 41.5307 45.0293 41.2 44.496C40.8693 43.9627 40.704 43.344 40.704 42.64H42.112C42.112 43.0773 42.2133 43.4827 42.416 43.856C42.6187 44.2187 42.912 44.512 43.296 44.736C43.6907 44.9493 44.176 45.056 44.752 45.056C45.5093 45.056 46.096 44.8747 46.512 44.512C46.928 44.1493 47.136 43.696 47.136 43.152C47.136 42.704 47.04 42.3467 46.848 42.08C46.656 41.8027 46.3947 41.5787 46.064 41.408C45.744 41.2373 45.3707 41.088 44.944 40.96C44.528 40.832 44.0907 40.688 43.632 40.528C42.768 40.2293 42.128 39.8613 41.712 39.424C41.296 38.976 41.088 38.3947 41.088 37.68C41.0773 37.0827 41.216 36.5547 41.504 36.096C41.792 35.6267 42.1973 35.264 42.72 35.008C43.2533 34.7413 43.8827 34.608 44.608 34.608C45.3227 34.608 45.9413 34.7413 46.464 35.008C46.9973 35.2747 47.408 35.6427 47.696 36.112C47.9947 36.5813 48.1493 37.1147 48.16 37.712H46.752C46.752 37.4027 46.672 37.0987 46.512 36.8C46.352 36.4907 46.1067 36.24 45.776 36.048C45.456 35.856 45.0507 35.76 44.56 35.76C43.952 35.7493 43.4507 35.904 43.056 36.224C42.672 36.544 42.48 36.9867 42.48 37.552C42.48 38.032 42.6133 38.4 42.88 38.656C43.1573 38.912 43.5413 39.1253 44.032 39.296C44.5227 39.456 45.088 39.6427 45.728 39.856C46.2613 40.048 46.7413 40.272 47.168 40.528C47.5947 40.784 47.9253 41.1147 48.16 41.52C48.4053 41.9253 48.528 42.4427 48.528 43.072C48.528 43.6053 48.3893 44.112 48.112 44.592C47.8347 45.0613 47.4133 45.4453 46.848 45.744C46.2933 46.0427 45.5947 46.192 44.752 46.192ZM53.922 46.192C53.1647 46.192 52.4927 46.0213 51.906 45.68C51.3193 45.328 50.8553 44.8427 50.514 44.224C50.1833 43.6053 50.018 42.8747 50.018 42.032C50.018 41.2 50.1833 40.4747 50.514 39.856C50.8447 39.2267 51.3033 38.7413 51.89 38.4C52.4873 38.048 53.1753 37.872 53.954 37.872C54.722 37.872 55.3833 38.048 55.938 38.4C56.5033 38.7413 56.9353 39.1947 57.234 39.76C57.5327 40.3253 57.682 40.9333 57.682 41.584C57.682 41.7013 57.6767 41.8187 57.666 41.936C57.666 42.0533 57.666 42.1867 57.666 42.336H51.346C51.378 42.944 51.5167 43.4507 51.762 43.856C52.018 44.2507 52.3327 44.5493 52.706 44.752C53.09 44.9547 53.4953 45.056 53.922 45.056C54.4767 45.056 54.9407 44.928 55.314 44.672C55.6873 44.416 55.9593 44.0693 56.13 43.632H57.458C57.2447 44.368 56.834 44.9813 56.226 45.472C55.6287 45.952 54.8607 46.192 53.922 46.192ZM53.922 39.008C53.282 39.008 52.7113 39.2053 52.21 39.6C51.7193 39.984 51.4367 40.5493 51.362 41.296H56.354C56.322 40.5813 56.0767 40.0213 55.618 39.616C55.1593 39.2107 54.594 39.008 53.922 39.008ZM59.4634 46V34.48H60.8074V46H59.4634ZM63.0103 46V34.48H64.3543V46H63.0103ZM73.4955 46V35.904H70.1515V34.8H78.1835V35.904H74.8395V46H73.4955ZM81.1971 46.192C80.5358 46.192 79.9865 46.08 79.5491 45.856C79.1118 45.632 78.7865 45.3333 78.5731 44.96C78.3598 44.5867 78.2531 44.1813 78.2531 43.744C78.2531 42.9333 78.5625 42.3093 79.1811 41.872C79.7998 41.4347 80.6425 41.216 81.7091 41.216H83.8531V41.12C83.8531 40.4267 83.6718 39.904 83.3091 39.552C82.9465 39.1893 82.4611 39.008 81.8531 39.008C81.3305 39.008 80.8771 39.1413 80.4931 39.408C80.1198 39.664 79.8851 40.0427 79.7891 40.544H78.4131C78.4665 39.968 78.6585 39.4827 78.9891 39.088C79.3305 38.6933 79.7518 38.3947 80.2531 38.192C80.7545 37.9787 81.2878 37.872 81.8531 37.872C82.9625 37.872 83.7945 38.1707 84.3491 38.768C84.9145 39.3547 85.1971 40.1387 85.1971 41.12V46H83.9971L83.9171 44.576C83.6931 45.024 83.3625 45.408 82.9251 45.728C82.4985 46.0373 81.9225 46.192 81.1971 46.192ZM81.4051 45.056C81.9171 45.056 82.3545 44.9227 82.7171 44.656C83.0905 44.3893 83.3731 44.0427 83.5651 43.616C83.7571 43.1893 83.8531 42.7413 83.8531 42.272V42.256H81.8211C81.0318 42.256 80.4718 42.3947 80.1411 42.672C79.8211 42.9387 79.6611 43.2747 79.6611 43.68C79.6611 44.096 79.8105 44.432 80.1091 44.688C80.4185 44.9333 80.8505 45.056 81.4051 45.056ZM86.4134 46L89.1654 42.032L86.4134 38.064H87.8694L90.0934 41.344L92.3334 38.064H93.7734L91.0214 42.032L93.7734 46H92.3334L90.0934 42.72L87.8694 46H86.4134Z" fill="#040404" fill-opacity="0.8"/>
<path d="M41.184 96V84.8H42.752L46.784 92.608L50.784 84.8H52.368V96H51.024V87.2L47.28 94.4H46.272L42.528 87.216V96H41.184ZM57.2909 96.192C56.6295 96.192 56.0802 96.08 55.6429 95.856C55.2055 95.632 54.8802 95.3333 54.6669 94.96C54.4535 94.5867 54.3469 94.1813 54.3469 93.744C54.3469 92.9333 54.6562 92.3093 55.2749 91.872C55.8935 91.4347 56.7362 91.216 57.8029 91.216H59.9469V91.12C59.9469 90.4267 59.7655 89.904 59.4029 89.552C59.0402 89.1893 58.5549 89.008 57.9469 89.008C57.4242 89.008 56.9709 89.1413 56.5869 89.408C56.2135 89.664 55.9789 90.0427 55.8829 90.544H54.5069C54.5602 89.968 54.7522 89.4827 55.0829 89.088C55.4242 88.6933 55.8455 88.3947 56.3469 88.192C56.8482 87.9787 57.3815 87.872 57.9469 87.872C59.0562 87.872 59.8882 88.1707 60.4429 88.768C61.0082 89.3547 61.2909 90.1387 61.2909 91.12V96H60.0909L60.0109 94.576C59.7869 95.024 59.4562 95.408 59.0189 95.728C58.5922 96.0373 58.0162 96.192 57.2909 96.192ZM57.4989 95.056C58.0109 95.056 58.4482 94.9227 58.8109 94.656C59.1842 94.3893 59.4669 94.0427 59.6589 93.616C59.8509 93.1893 59.9469 92.7413 59.9469 92.272V92.256H57.9149C57.1255 92.256 56.5655 92.3947 56.2349 92.672C55.9149 92.9387 55.7549 93.2747 55.7549 93.68C55.7549 94.096 55.9042 94.432 56.2029 94.688C56.5122 94.9333 56.9442 95.056 57.4989 95.056ZM63.3071 96V88.064H64.5231L64.6351 89.584C64.8805 89.0613 65.2538 88.6453 65.7551 88.336C66.2565 88.0267 66.8751 87.872 67.6111 87.872V89.28H67.2431C66.7738 89.28 66.3418 89.3653 65.9471 89.536C65.5525 89.696 65.2378 89.9733 65.0031 90.368C64.7685 90.7627 64.6511 91.3067 64.6511 92V96H63.3071ZM69.1196 96V84.48H70.4636V91.408L73.7116 88.064H75.3596L71.8396 91.648L75.8076 96H74.0956L70.4636 91.888V96H69.1196ZM80.172 96.192C79.4147 96.192 78.7427 96.0213 78.156 95.68C77.5693 95.328 77.1053 94.8427 76.764 94.224C76.4333 93.6053 76.268 92.8747 76.268 92.032C76.268 91.2 76.4333 90.4747 76.764 89.856C77.0947 89.2267 77.5533 88.7413 78.14 88.4C78.7373 88.048 79.4253 87.872 80.204 87.872C80.972 87.872 81.6333 88.048 82.188 88.4C82.7533 88.7413 83.1853 89.1947 83.484 89.76C83.7827 90.3253 83.932 90.9333 83.932 91.584C83.932 91.7013 83.9267 91.8187 83.916 91.936C83.916 92.0533 83.916 92.1867 83.916 92.336H77.596C77.628 92.944 77.7667 93.4507 78.012 93.856C78.268 94.2507 78.5827 94.5493 78.956 94.752C79.34 94.9547 79.7453 95.056 80.172 95.056C80.7267 95.056 81.1907 94.928 81.564 94.672C81.9373 94.416 82.2093 94.0693 82.38 93.632H83.708C83.4947 94.368 83.084 94.9813 82.476 95.472C81.8787 95.952 81.1107 96.192 80.172 96.192ZM80.172 89.008C79.532 89.008 78.9613 89.2053 78.46 89.6C77.9693 89.984 77.6867 90.5493 77.612 91.296H82.604C82.572 90.5813 82.3267 90.0213 81.868 89.616C81.4093 89.2107 80.844 89.008 80.172 89.008ZM88.5838 96C87.8584 96 87.2878 95.824 86.8718 95.472C86.4558 95.12 86.2478 94.4853 86.2478 93.568V89.2H84.8717V88.064H86.2478L86.4238 86.16H87.5918V88.064H89.9278V89.2H87.5918V93.568C87.5918 94.0693 87.6931 94.4107 87.8958 94.592C88.0984 94.7627 88.4558 94.848 88.9678 94.848H89.7998V96H88.5838ZM92.4513 86.304C92.1846 86.304 91.9606 86.2187 91.7793 86.048C91.6086 85.8667 91.5233 85.6427 91.5233 85.376C91.5233 85.12 91.6086 84.9067 91.7793 84.736C91.9606 84.5653 92.1846 84.48 92.4513 84.48C92.7073 84.48 92.9259 84.5653 93.1073 84.736C93.2886 84.9067 93.3793 85.12 93.3793 85.376C93.3793 85.6427 93.2886 85.8667 93.1073 86.048C92.9259 86.2187 92.7073 86.304 92.4513 86.304ZM91.7793 96V88.064H93.1233V96H91.7793ZM95.4634 96V88.064H96.6794L96.7594 89.488C97.0154 88.9867 97.3834 88.592 97.8634 88.304C98.3434 88.016 98.8874 87.872 99.4954 87.872C100.434 87.872 101.181 88.16 101.735 88.736C102.301 89.3013 102.583 90.176 102.583 91.36V96H101.239V91.504C101.239 89.8507 100.557 89.024 99.1914 89.024C98.5087 89.024 97.938 89.2747 97.4794 89.776C97.0314 90.2667 96.8074 90.9707 96.8074 91.888V96H95.4634ZM107.756 93.504C107.308 93.504 106.897 93.4453 106.524 93.328L105.724 94.08C105.841 94.1653 105.985 94.24 106.156 94.304C106.337 94.3573 106.593 94.4107 106.924 94.464C107.254 94.5067 107.718 94.5547 108.316 94.608C109.382 94.6827 110.145 94.928 110.604 95.344C111.062 95.76 111.292 96.304 111.292 96.976C111.292 97.4347 111.164 97.872 110.908 98.288C110.662 98.704 110.278 99.0453 109.756 99.312C109.244 99.5787 108.582 99.712 107.772 99.712C107.057 99.712 106.422 99.616 105.868 99.424C105.313 99.2427 104.881 98.96 104.572 98.576C104.262 98.2027 104.108 97.728 104.108 97.152C104.108 96.8533 104.188 96.528 104.348 96.176C104.508 95.8347 104.806 95.5093 105.244 95.2C105.009 95.104 104.806 95.0027 104.636 94.896C104.476 94.7787 104.326 94.6507 104.188 94.512V94.144L105.548 92.8C104.918 92.2667 104.604 91.5627 104.604 90.688C104.604 90.1653 104.726 89.6907 104.972 89.264C105.217 88.8373 105.574 88.5013 106.044 88.256C106.513 88 107.084 87.872 107.756 87.872C108.214 87.872 108.63 87.936 109.004 88.064H111.932V89.072L110.444 89.136C110.753 89.584 110.908 90.1013 110.908 90.688C110.908 91.2107 110.78 91.6853 110.524 92.112C110.278 92.5387 109.921 92.88 109.452 93.136C108.993 93.3813 108.428 93.504 107.756 93.504ZM107.756 92.4C108.321 92.4 108.769 92.256 109.1 91.968C109.441 91.6693 109.612 91.2427 109.612 90.688C109.612 90.144 109.441 89.728 109.1 89.44C108.769 89.1413 108.321 88.992 107.756 88.992C107.18 88.992 106.721 89.1413 106.38 89.44C106.049 89.728 105.884 90.144 105.884 90.688C105.884 91.2427 106.049 91.6693 106.38 91.968C106.721 92.256 107.18 92.4 107.756 92.4ZM105.42 97.024C105.42 97.5573 105.644 97.952 106.092 98.208C106.54 98.4747 107.1 98.608 107.772 98.608C108.433 98.608 108.961 98.464 109.356 98.176C109.761 97.888 109.964 97.504 109.964 97.024C109.964 96.6827 109.825 96.384 109.548 96.128C109.27 95.8827 108.758 95.7387 108.012 95.696C107.425 95.6533 106.918 95.6 106.492 95.536C106.054 95.7707 105.766 96.0213 105.628 96.288C105.489 96.5653 105.42 96.8107 105.42 97.024Z" fill="#040404" fill-opacity="0.8"/>
<path d="M41.184 146V134.8H44.624C46.5973 134.8 48.048 135.301 48.976 136.304C49.9147 137.307 50.384 138.683 50.384 140.432C50.384 142.149 49.9147 143.509 48.976 144.512C48.048 145.504 46.5973 146 44.624 146H41.184ZM42.528 144.88H44.592C45.68 144.88 46.544 144.704 47.184 144.352C47.8347 143.989 48.2987 143.477 48.576 142.816C48.8533 142.144 48.992 141.349 48.992 140.432C48.992 139.493 48.8533 138.688 48.576 138.016C48.2987 137.344 47.8347 136.827 47.184 136.464C46.544 136.101 45.68 135.92 44.592 135.92H42.528V144.88ZM55.8126 146.192C55.0553 146.192 54.3833 146.021 53.7966 145.68C53.21 145.328 52.746 144.843 52.4046 144.224C52.074 143.605 51.9086 142.875 51.9086 142.032C51.9086 141.2 52.074 140.475 52.4046 139.856C52.7353 139.227 53.194 138.741 53.7806 138.4C54.378 138.048 55.066 137.872 55.8446 137.872C56.6126 137.872 57.274 138.048 57.8286 138.4C58.394 138.741 58.826 139.195 59.1246 139.76C59.4233 140.325 59.5726 140.933 59.5726 141.584C59.5726 141.701 59.5673 141.819 59.5566 141.936C59.5566 142.053 59.5566 142.187 59.5566 142.336H53.2366C53.2686 142.944 53.4073 143.451 53.6526 143.856C53.9086 144.251 54.2233 144.549 54.5966 144.752C54.9806 144.955 55.386 145.056 55.8126 145.056C56.3673 145.056 56.8313 144.928 57.2046 144.672C57.578 144.416 57.85 144.069 58.0206 143.632H59.3486C59.1353 144.368 58.7246 144.981 58.1166 145.472C57.5193 145.952 56.7513 146.192 55.8126 146.192ZM55.8126 139.008C55.1726 139.008 54.602 139.205 54.1006 139.6C53.61 139.984 53.3273 140.549 53.2526 141.296H58.2446C58.2126 140.581 57.9673 140.021 57.5086 139.616C57.05 139.211 56.4846 139.008 55.8126 139.008ZM63.3295 146L60.3215 138.064H61.7295L64.1135 144.704L66.5135 138.064H67.8895L64.8815 146H63.3295ZM72.547 146.192C71.7897 146.192 71.1177 146.021 70.531 145.68C69.9443 145.328 69.4803 144.843 69.139 144.224C68.8083 143.605 68.643 142.875 68.643 142.032C68.643 141.2 68.8083 140.475 69.139 139.856C69.4697 139.227 69.9283 138.741 70.515 138.4C71.1123 138.048 71.8003 137.872 72.579 137.872C73.347 137.872 74.0083 138.048 74.563 138.4C75.1283 138.741 75.5603 139.195 75.859 139.76C76.1577 140.325 76.307 140.933 76.307 141.584C76.307 141.701 76.3017 141.819 76.291 141.936C76.291 142.053 76.291 142.187 76.291 142.336H69.971C70.003 142.944 70.1417 143.451 70.387 143.856C70.643 144.251 70.9577 144.549 71.331 144.752C71.715 144.955 72.1203 145.056 72.547 145.056C73.1017 145.056 73.5657 144.928 73.939 144.672C74.3123 144.416 74.5843 144.069 74.755 143.632H76.083C75.8697 144.368 75.459 144.981 74.851 145.472C74.2537 145.952 73.4857 146.192 72.547 146.192ZM72.547 139.008C71.907 139.008 71.3363 139.205 70.835 139.6C70.3443 139.984 70.0617 140.549 69.987 141.296H74.979C74.947 140.581 74.7017 140.021 74.243 139.616C73.7843 139.211 73.219 139.008 72.547 139.008ZM78.0884 146V134.48H79.4324V146H78.0884ZM85.2513 146.192C84.5046 146.192 83.8326 146.021 83.2353 145.68C82.6379 145.339 82.1633 144.859 81.8113 144.24C81.4699 143.611 81.2993 142.875 81.2993 142.032C81.2993 141.189 81.4753 140.459 81.8273 139.84C82.1793 139.211 82.6539 138.725 83.2513 138.384C83.8593 138.043 84.5366 137.872 85.2833 137.872C86.0299 137.872 86.7019 138.043 87.2993 138.384C87.8966 138.725 88.3659 139.211 88.7073 139.84C89.0593 140.459 89.2353 141.189 89.2353 142.032C89.2353 142.875 89.0593 143.611 88.7073 144.24C88.3553 144.859 87.8753 145.339 87.2673 145.68C86.6699 146.021 85.9979 146.192 85.2513 146.192ZM85.2513 145.04C85.7099 145.04 86.1366 144.928 86.5313 144.704C86.9259 144.48 87.2459 144.144 87.4913 143.696C87.7366 143.248 87.8593 142.693 87.8593 142.032C87.8593 141.371 87.7366 140.816 87.4913 140.368C87.2566 139.92 86.9419 139.584 86.5473 139.36C86.1526 139.136 85.7313 139.024 85.2833 139.024C84.8246 139.024 84.3979 139.136 84.0033 139.36C83.6086 139.584 83.2886 139.92 83.0433 140.368C82.7979 140.816 82.6753 141.371 82.6753 142.032C82.6753 142.693 82.7979 143.248 83.0433 143.696C83.2886 144.144 83.6033 144.48 83.9873 144.704C84.3819 144.928 84.8033 145.04 85.2513 145.04ZM91.104 149.52V138.064H92.32L92.448 139.376C92.704 138.992 93.0667 138.645 93.536 138.336C94.016 138.027 94.624 137.872 95.36 137.872C96.1493 137.872 96.8373 138.053 97.424 138.416C98.0107 138.779 98.464 139.275 98.784 139.904C99.1147 140.533 99.28 141.248 99.28 142.048C99.28 142.848 99.1147 143.563 98.784 144.192C98.464 144.811 98.0053 145.301 97.408 145.664C96.8213 146.016 96.1333 146.192 95.344 146.192C94.6933 146.192 94.112 146.059 93.6 145.792C93.0987 145.525 92.7147 145.152 92.448 144.672V149.52H91.104ZM95.2 145.024C95.7333 145.024 96.2027 144.901 96.608 144.656C97.0133 144.4 97.3333 144.048 97.568 143.6C97.8027 143.152 97.92 142.629 97.92 142.032C97.92 141.435 97.8027 140.912 97.568 140.464C97.3333 140.016 97.0133 139.669 96.608 139.424C96.2027 139.168 95.7333 139.04 95.2 139.04C94.6667 139.04 94.1973 139.168 93.792 139.424C93.3867 139.669 93.0667 140.016 92.832 140.464C92.5973 140.912 92.48 141.435 92.48 142.032C92.48 142.629 92.5973 143.152 92.832 143.6C93.0667 144.048 93.3867 144.4 93.792 144.656C94.1973 144.901 94.6667 145.024 95.2 145.024ZM101.151 146V138.064H102.367L102.463 139.216C102.719 138.789 103.06 138.459 103.487 138.224C103.914 137.989 104.394 137.872 104.927 137.872C105.556 137.872 106.095 138 106.543 138.256C107.002 138.512 107.354 138.901 107.599 139.424C107.876 138.944 108.255 138.565 108.735 138.288C109.226 138.011 109.754 137.872 110.319 137.872C111.268 137.872 112.026 138.16 112.591 138.736C113.156 139.301 113.439 140.176 113.439 141.36V146H112.111V141.504C112.111 140.683 111.946 140.064 111.615 139.648C111.284 139.232 110.81 139.024 110.191 139.024C109.551 139.024 109.018 139.275 108.591 139.776C108.175 140.267 107.967 140.971 107.967 141.888V146H106.623V141.504C106.623 140.683 106.458 140.064 106.127 139.648C105.796 139.232 105.322 139.024 104.703 139.024C104.074 139.024 103.546 139.275 103.119 139.776C102.703 140.267 102.495 140.971 102.495 141.888V146H101.151ZM119.031 146.192C118.274 146.192 117.602 146.021 117.015 145.68C116.429 145.328 115.965 144.843 115.623 144.224C115.293 143.605 115.127 142.875 115.127 142.032C115.127 141.2 115.293 140.475 115.623 139.856C115.954 139.227 116.413 138.741 116.999 138.4C117.597 138.048 118.285 137.872 119.063 137.872C119.831 137.872 120.493 138.048 121.047 138.4C121.613 138.741 122.045 139.195 122.343 139.76C122.642 140.325 122.791 140.933 122.791 141.584C122.791 141.701 122.786 141.819 122.775 141.936C122.775 142.053 122.775 142.187 122.775 142.336H116.455C116.487 142.944 116.626 143.451 116.871 143.856C117.127 144.251 117.442 144.549 117.815 144.752C118.199 144.955 118.605 145.056 119.031 145.056C119.586 145.056 120.05 144.928 120.423 144.672C120.797 144.416 121.069 144.069 121.239 143.632H122.567C122.354 144.368 121.943 144.981 121.335 145.472C120.738 145.952 119.97 146.192 119.031 146.192ZM119.031 139.008C118.391 139.008 117.821 139.205 117.319 139.6C116.829 139.984 116.546 140.549 116.471 141.296H121.463C121.431 140.581 121.186 140.021 120.727 139.616C120.269 139.211 119.703 139.008 119.031 139.008ZM124.573 146V138.064H125.789L125.869 139.488C126.125 138.987 126.493 138.592 126.973 138.304C127.453 138.016 127.997 137.872 128.605 137.872C129.543 137.872 130.29 138.16 130.845 138.736C131.41 139.301 131.693 140.176 131.693 141.36V146H130.349V141.504C130.349 139.851 129.666 139.024 128.301 139.024C127.618 139.024 127.047 139.275 126.589 139.776C126.141 140.267 125.917 140.971 125.917 141.888V146H124.573ZM136.865 146C136.14 146 135.569 145.824 135.153 145.472C134.737 145.12 134.529 144.485 134.529 143.568V139.2H133.153V138.064H134.529L134.705 136.16H135.873V138.064H138.209V139.2H135.873V143.568C135.873 144.069 135.974 144.411 136.177 144.592C136.38 144.763 136.737 144.848 137.249 144.848H138.081V146H136.865Z" fill="#040404" fill-opacity="0.8"/>
<path d="M41.184 196V184.8H42.528V194.928H47.744V196H41.184ZM50.3263 186.304C50.0596 186.304 49.8356 186.219 49.6543 186.048C49.4836 185.867 49.3983 185.643 49.3983 185.376C49.3983 185.12 49.4836 184.907 49.6543 184.736C49.8356 184.565 50.0596 184.48 50.3263 184.48C50.5823 184.48 50.8009 184.565 50.9823 184.736C51.1636 184.907 51.2543 185.12 51.2543 185.376C51.2543 185.643 51.1636 185.867 50.9823 186.048C50.8009 186.219 50.5823 186.304 50.3263 186.304ZM49.6543 196V188.064H50.9983V196H49.6543ZM59.8504 199.52V194.688C59.5944 195.072 59.2264 195.419 58.7464 195.728C58.2664 196.037 57.6637 196.192 56.9384 196.192C56.149 196.192 55.4557 196.011 54.8584 195.648C54.2717 195.285 53.813 194.789 53.4824 194.16C53.1624 193.531 53.0024 192.816 53.0024 192.016C53.0024 191.216 53.1677 190.507 53.4984 189.888C53.829 189.259 54.2877 188.768 54.8744 188.416C55.461 188.053 56.1544 187.872 56.9544 187.872C57.605 187.872 58.181 188.005 58.6824 188.272C59.1837 188.539 59.573 188.912 59.8504 189.392L59.9784 188.064H61.1944V199.52H59.8504ZM57.0824 195.024C57.6157 195.024 58.085 194.901 58.4904 194.656C58.9064 194.4 59.2264 194.048 59.4504 193.6C59.685 193.152 59.8024 192.629 59.8024 192.032C59.8024 191.435 59.685 190.912 59.4504 190.464C59.2264 190.016 58.9064 189.669 58.4904 189.424C58.085 189.168 57.6157 189.04 57.0824 189.04C56.5597 189.04 56.0904 189.168 55.6744 189.424C55.269 189.669 54.949 190.016 54.7144 190.464C54.4904 190.912 54.3784 191.435 54.3784 192.032C54.3784 192.629 54.4904 193.152 54.7144 193.6C54.949 194.048 55.269 194.4 55.6744 194.656C56.0904 194.901 56.5597 195.024 57.0824 195.024ZM66.2812 196.192C65.3426 196.192 64.5959 195.909 64.0413 195.344C63.4866 194.768 63.2093 193.888 63.2093 192.704V188.064H64.5533V192.56C64.5533 194.213 65.2306 195.04 66.5853 195.04C67.2786 195.04 67.8493 194.795 68.2973 194.304C68.7559 193.803 68.9853 193.093 68.9853 192.176V188.064H70.3293V196H69.1133L69.0173 194.576C68.7719 195.077 68.4039 195.472 67.9133 195.76C67.4333 196.048 66.8893 196.192 66.2812 196.192ZM73.3575 186.304C73.0908 186.304 72.8668 186.219 72.6855 186.048C72.5148 185.867 72.4295 185.643 72.4295 185.376C72.4295 185.12 72.5148 184.907 72.6855 184.736C72.8668 184.565 73.0908 184.48 73.3575 184.48C73.6135 184.48 73.8322 184.565 74.0135 184.736C74.1948 184.907 74.2855 185.12 74.2855 185.376C74.2855 185.643 74.1948 185.867 74.0135 186.048C73.8322 186.219 73.6135 186.304 73.3575 186.304ZM72.6855 196V188.064H74.0295V196H72.6855ZM79.9696 196.192C79.1803 196.192 78.487 196.011 77.8896 195.648C77.303 195.285 76.8443 194.789 76.5136 194.16C76.1936 193.531 76.0336 192.816 76.0336 192.016C76.0336 191.216 76.199 190.507 76.5296 189.888C76.8603 189.259 77.319 188.768 77.9056 188.416C78.4923 188.053 79.1856 187.872 79.9856 187.872C80.6363 187.872 81.2123 188.005 81.7136 188.272C82.215 188.539 82.6043 188.912 82.8816 189.392V184.48H84.2256V196H83.0096L82.8816 194.688C82.6256 195.072 82.2576 195.419 81.7776 195.728C81.2976 196.037 80.695 196.192 79.9696 196.192ZM80.1136 195.024C80.647 195.024 81.1163 194.901 81.5216 194.656C81.9376 194.4 82.2576 194.048 82.4816 193.6C82.7163 193.152 82.8336 192.629 82.8336 192.032C82.8336 191.435 82.7163 190.912 82.4816 190.464C82.2576 190.016 81.9376 189.669 81.5216 189.424C81.1163 189.168 80.647 189.04 80.1136 189.04C79.591 189.04 79.1216 189.168 78.7056 189.424C78.3003 189.669 77.9803 190.016 77.7456 190.464C77.5216 190.912 77.4096 191.435 77.4096 192.032C77.4096 192.629 77.5216 193.152 77.7456 193.6C77.9803 194.048 78.3003 194.4 78.7056 194.656C79.1216 194.901 79.591 195.024 80.1136 195.024ZM87.2325 186.304C86.9658 186.304 86.7418 186.219 86.5605 186.048C86.3898 185.867 86.3045 185.643 86.3045 185.376C86.3045 185.12 86.3898 184.907 86.5605 184.736C86.7418 184.565 86.9658 184.48 87.2325 184.48C87.4885 184.48 87.7072 184.565 87.8885 184.736C88.0698 184.907 88.1605 185.12 88.1605 185.376C88.1605 185.643 88.0698 185.867 87.8885 186.048C87.7072 186.219 87.4885 186.304 87.2325 186.304ZM86.5605 196V188.064H87.9045V196H86.5605ZM93.3806 196C92.6553 196 92.0846 195.824 91.6686 195.472C91.2526 195.12 91.0446 194.485 91.0446 193.568V189.2H89.6686V188.064H91.0446L91.2206 186.16H92.3886V188.064H94.7246V189.2H92.3886V193.568C92.3886 194.069 92.49 194.411 92.6926 194.592C92.8953 194.763 93.2526 194.848 93.7646 194.848H94.5966V196H93.3806ZM97.2961 199.52L99.2641 195.232H98.8001L95.6481 188.064H97.1041L99.7281 194.24L102.512 188.064H103.904L98.7041 199.52H97.2961Z" fill="#040404" fill-opacity="0.8"/>
<rect y="28" width="24" height="24" rx="6" fill="#25B17F"/>
<rect y="78" width="24" height="24" rx="6" fill="#6DB8FF"/>
<rect y="128" width="24" height="24" rx="6" fill="#FF6C76"/>
<rect y="178" width="24" height="24" rx="6" fill="#4BAAB3"/>
<path d="M533.61 64.9633C529.138 57.0172 523.826 49.5739 517.766 42.7609L422.5 127.5L533.61 64.9633Z" fill="#6DB8FF"/>
<path d="M518.365 43.4392C514.583 39.1264 510.514 35.0738 506.187 31.3088L422.5 127.5L518.365 43.4392Z" fill="#FF6C76"/>
<path d="M506.116 31.2468C503.931 29.3487 501.682 27.5255 499.372 25.7804L422.5 127.5L506.116 31.2468Z" fill="#4BAAB3"/>
<path d="M500.74 26.8283C477.986 9.14468 449.913 -0.309297 421.097 0.00771505C392.282 0.324727 364.424 10.394 342.064 28.5739C319.705 46.7538 304.164 71.9719 297.975 100.117C291.786 128.262 295.314 157.673 307.984 183.556C320.653 209.439 341.717 230.266 367.742 242.642C393.766 255.019 423.215 258.214 451.288 251.707C479.361 245.201 504.402 229.376 522.329 206.813C540.255 184.25 550.009 156.279 550 127.462L422.5 127.5L500.74 26.8283Z" fill="#F2F9FF"/>
<path d="M550 127.5C550 105.462 544.288 83.8011 533.421 64.6291L422.5 127.5H550Z" fill="#25B17F"/>
<g filter="url(#filter0_f_0_1)">
<path d="M548.729 145.461C551.833 123.643 549.229 101.393 541.172 80.8817L422.5 127.5L548.729 145.461Z" fill="#26B17F" fill-opacity="0.5"/>
</g>
<defs>
<filter id="filter0_f_0_1" x="397.5" y="55.8817" width="177.5" height="114.579" filterUnits="userSpaceOnUse" color-interpolation-filters="sRGB">
<feFlood flood-opacity="0" result="BackgroundImageFix"/>
<feBlend mode="normal" in="SourceGraphic" in2="BackgroundImageFix" result="shape"/>
<feGaussianBlur stdDeviation="12.5" result="effect1_foregroundBlur_0_1"/>
</filter>
</defs>
</svg>
