<svg width="89" height="89" viewBox="0 0 89 89" fill="none" xmlns="http://www.w3.org/2000/svg">
<rect x="-6" y="36.9189" width="72" height="72" rx="16" transform="rotate(-36.5909 -6 36.9189)" fill="white"/>
<path d="M66.9802 44.2702L53.0317 25.5651C51.039 22.8929 48.7066 22.5531 46.0345 24.5458L40.6901 28.5311C38.018 30.5237 37.6782 32.8561 39.6709 35.5283L53.6194 54.2334C55.612 56.9056 57.9444 57.2454 60.6166 55.2527L65.9609 51.2674C68.6331 49.2748 68.9728 46.9424 66.9802 44.2702Z" stroke="#2F7DC7" stroke-width="2.5" stroke-linecap="round"/>
<path d="M40.6672 36.8647L47.3476 31.8831" stroke="#2F7DC7" stroke-width="2.5" stroke-linecap="round"/>
<path d="M52.623 52.8975L57.9674 48.9122" stroke="#2F7DC7" stroke-width="2.5" stroke-linecap="round"/>
<path d="M48.588 47.4863L55.3182 42.5715" stroke="#2F7DC7" stroke-width="2.5" stroke-linecap="round"/>
<path d="M44.6525 42.209L48.6607 39.22" stroke="#2F7DC7" stroke-width="2.5" stroke-linecap="round"/>
<path d="M28.6921 37.4781C26.5143 39.1021 26.0624 42.2042 27.6765 44.3687L40.5888 61.6843C41.0371 62.2856 41.9685 63.0048 42.6644 63.2967L45.1149 64.2968C47.9351 65.4579 50.006 63.9136 49.6977 60.8794L49.4383 58.2454C49.357 57.4952 48.9334 56.3973 48.485 55.7961L35.5727 38.4804C33.9587 36.316 30.8566 35.8641 28.6921 37.4781Z" stroke="#2F7DC7" stroke-width="2.5" stroke-linecap="round"/>
<path d="M37.6152 41.2196L29.7189 47.1079" stroke="#2F7DC7" stroke-width="2.5" stroke-linecap="round"/>
</svg>
