<svg width="72" height="72" viewBox="0 0 72 72" fill="none" xmlns="http://www.w3.org/2000/svg">
<rect width="72" height="72" rx="16" fill="white"/>
<path d="M33.9167 53.5H38.1167C39.7167 53.5 40.75 52.3667 40.45 50.9834L39.7667 47.9668H32.2667L31.5834 50.9834C31.2834 52.2834 32.4167 53.5 33.9167 53.5Z" stroke="#F79726" stroke-width="2.5" stroke-linecap="round" stroke-linejoin="round"/>
<path d="M39.7667 47.9503L42.65 45.3836C44.2667 43.9502 44.3334 42.9502 43.05 41.3335L37.9667 34.8836C36.9 33.5336 35.15 33.5336 34.0834 34.8836L29 41.3335C27.7167 42.9502 27.7167 44.0002 29.4 45.3836L32.2834 47.9503" stroke="#F79726" stroke-width="2.5" stroke-linecap="round" stroke-linejoin="round"/>
<path d="M36.0167 34.5337V38.7504" stroke="#F79726" stroke-width="2.5" stroke-linecap="round" stroke-linejoin="round"/>
<path d="M34.5834 24.6502L33.2834 23.3502C32.5 22.5669 32.5 21.3003 33.2834 20.5169L34.5834 19.2169C35.3667 18.4336 36.6334 18.4336 37.4167 19.2169L38.7167 20.5169C39.5 21.3003 39.5 22.5669 38.7167 23.3502L37.4167 24.6502C36.6334 25.4336 35.3667 25.4336 34.5834 24.6502Z" stroke="#F79726" stroke-width="2.5" stroke-linecap="round" stroke-linejoin="round"/>
<path d="M48.4167 32.3501H50.25C51.35 32.3501 52.25 33.2501 52.25 34.3501V36.1834C52.25 37.2834 51.35 38.1835 50.25 38.1835H48.4167C47.3167 38.1835 46.4167 37.2834 46.4167 36.1834V34.3501C46.4167 33.2501 47.3167 32.3501 48.4167 32.3501Z" stroke="#F79726" stroke-width="2.5" stroke-linecap="round" stroke-linejoin="round"/>
<path d="M23.5833 32.3501H21.75C20.65 32.3501 19.75 33.2501 19.75 34.3501V36.1834C19.75 37.2834 20.65 38.1835 21.75 38.1835H23.5833C24.6833 38.1835 25.5833 37.2834 25.5833 36.1834V34.3501C25.5833 33.2501 24.6833 32.3501 23.5833 32.3501Z" stroke="#F79726" stroke-width="2.5" stroke-linecap="round" stroke-linejoin="round"/>
<path d="M46.9 32.8333L38.0667 24" stroke="#F79726" stroke-width="2.5" stroke-linecap="round" stroke-linejoin="round"/>
<path d="M25.1 32.8333L33.9333 24" stroke="#F79726" stroke-width="2.5" stroke-linecap="round" stroke-linejoin="round"/>
</svg>
