<svg width="109" height="41" viewBox="0 0 109 41" fill="none" xmlns="http://www.w3.org/2000/svg">
<rect x="0.265625" y="0.753906" width="108.733" height="39.3119" rx="19.6559" fill="black"/>
<path d="M30.3575 19.5775C30.3394 17.4394 32.1175 16.4002 32.1956 16.3524C31.1864 14.8951 29.6246 14.6921 29.078 14.6741C27.7685 14.5368 26.495 15.4565 25.8282 15.4565C25.1494 15.4565 24.1162 14.6921 23.0109 14.71C21.5873 14.7339 20.2477 15.5521 19.5209 16.8302C18.0131 19.4282 19.1364 23.2505 20.5841 25.3528C21.311 26.3801 22.1519 27.5328 23.2632 27.491C24.3445 27.4492 24.753 26.8041 26.0565 26.8041C27.354 26.8041 27.7324 27.491 28.8617 27.4671C30.0271 27.4492 30.7539 26.4338 31.4567 25.3946C32.2917 24.2181 32.6281 23.0535 32.6401 22.9937C32.6101 22.9818 30.3815 22.1337 30.3575 19.5775Z" fill="white"/>
<path d="M28.2239 13.2935C28.8067 12.5708 29.2033 11.5854 29.0951 10.582C28.254 10.6179 27.1965 11.1614 26.5896 11.8721C26.0549 12.4992 25.5742 13.5205 25.6944 14.482C26.6437 14.5537 27.6171 14.0042 28.2239 13.2935Z" fill="white"/>
<path d="M46.0504 27.3408H44.5366L43.7076 24.7488H40.8243L40.0374 27.3408H38.5657L41.419 18.5195H43.185L46.0504 27.3408ZM43.4614 23.6618L42.7105 21.3624C42.6324 21.1235 42.4822 20.574 42.266 19.7021H42.2359C42.1458 20.0783 42.0077 20.6338 41.8154 21.3624L41.0766 23.6618H43.4614Z" fill="white"/>
<path d="M53.3819 24.0847C53.3819 25.1657 53.0876 26.0198 52.4929 26.6469C51.9643 27.2083 51.3035 27.483 50.5226 27.483C49.6756 27.483 49.0689 27.1844 48.6965 26.5812V29.9198H47.2728V23.0694C47.2728 22.3885 47.2548 21.6957 47.2188 20.979H48.4682L48.5463 21.9884H48.5703C49.0449 21.2299 49.7657 20.8477 50.7268 20.8477C51.4837 20.8477 52.1084 21.1463 52.613 21.7375C53.1296 22.3348 53.3819 23.1112 53.3819 24.0847ZM51.9342 24.1325C51.9342 23.5114 51.7961 23.0037 51.5137 22.6035C51.2074 22.1855 50.7929 21.9764 50.2763 21.9764C49.9279 21.9764 49.6095 22.0959 49.3212 22.3228C49.0389 22.5558 48.8466 22.8544 48.7625 23.2307C48.7205 23.4039 48.6965 23.5472 48.6965 23.6607V24.7238C48.6965 25.1836 48.8406 25.5778 49.123 25.8944C49.4053 26.2109 49.7777 26.3721 50.2343 26.3721C50.7689 26.3721 51.1834 26.1631 51.4837 25.757C51.784 25.3449 51.9342 24.8074 51.9342 24.1325Z" fill="white"/>
<path d="M60.7368 24.0847C60.7368 25.1657 60.4425 26.0198 59.8478 26.6469C59.3192 27.2083 58.6584 27.483 57.8775 27.483C57.0305 27.483 56.4238 27.1844 56.0514 26.5812V29.9198H54.6277V23.0694C54.6277 22.3885 54.6097 21.6957 54.5737 20.979H55.8231L55.9012 21.9884H55.9252C56.3998 21.2299 57.1206 20.8477 58.0817 20.8477C58.8386 20.8477 59.4633 21.1463 59.9679 21.7375C60.4845 22.3348 60.7368 23.1112 60.7368 24.0847ZM59.2891 24.1325C59.2891 23.5114 59.151 23.0037 58.8687 22.6035C58.5623 22.1855 58.1478 21.9764 57.6312 21.9764C57.2828 21.9764 56.9644 22.0959 56.6761 22.3228C56.3938 22.5558 56.2076 22.8544 56.1175 23.2307C56.0754 23.4039 56.0514 23.5472 56.0514 23.6607V24.7238C56.0514 25.1836 56.1956 25.5778 56.4779 25.8944C56.7602 26.2109 57.1326 26.3721 57.5892 26.3721C58.1238 26.3721 58.5443 26.1631 58.8386 25.757C59.145 25.3449 59.2891 24.8074 59.2891 24.1325Z" fill="white"/>
<path d="M68.969 24.8686C68.969 25.6212 68.7047 26.2304 68.1821 26.7022C67.6055 27.2158 66.8005 27.4726 65.7673 27.4726C64.8122 27.4726 64.0493 27.2875 63.4727 26.9232L63.803 25.7466C64.4278 26.1109 65.1126 26.296 65.8574 26.296C66.392 26.296 66.8125 26.1766 67.1069 25.9377C67.4072 25.6988 67.5574 25.3763 67.5574 24.9761C67.5574 24.6178 67.4313 24.3192 67.191 24.0743C66.9447 23.8294 66.5362 23.6025 65.9656 23.3935C64.3977 22.8141 63.6228 21.972 63.6228 20.8671C63.6228 20.1445 63.8992 19.5532 64.4458 19.0873C64.9924 18.6275 65.7193 18.3945 66.6263 18.3945C67.4313 18.3945 68.104 18.5319 68.6387 18.8126L68.2782 19.9593C67.7736 19.6905 67.209 19.5532 66.5723 19.5532C66.0737 19.5532 65.6772 19.6786 65.3949 19.9175C65.1606 20.1385 65.0405 20.4013 65.0405 20.7178C65.0405 21.0642 65.1786 21.3569 65.449 21.5778C65.6832 21.7869 66.1157 22.0138 66.7404 22.2587C67.5033 22.5633 68.062 22.9216 68.4224 23.3337C68.7888 23.7458 68.969 24.2595 68.969 24.8686Z" fill="white"/>
<path d="M73.6705 22.0442H72.1023V25.132C72.1023 25.9144 72.3787 26.3085 72.9315 26.3085C73.1839 26.3085 73.3941 26.2846 73.5624 26.2428L73.6044 27.3179C73.322 27.4194 72.9555 27.4732 72.4989 27.4732C71.9341 27.4732 71.5015 27.3 71.1831 26.9595C70.8646 26.6191 70.7084 26.0457 70.7084 25.2454V22.0382H69.7771V20.9811H70.7084V19.8165L72.1023 19.3984V20.9811H73.6705V22.0442Z" fill="white"/>
<path d="M80.7301 24.1104C80.7301 25.0899 80.4478 25.8902 79.8891 26.5173C79.3005 27.1623 78.5196 27.4849 77.5464 27.4849C76.6093 27.4849 75.8585 27.1743 75.2998 26.5591C74.7412 25.944 74.4648 25.1616 74.4648 24.2179C74.4648 23.2325 74.7532 22.4262 75.3238 21.7991C75.9005 21.172 76.6754 20.8555 77.6485 20.8555C78.5856 20.8555 79.3425 21.166 79.9132 21.7872C80.4598 22.3844 80.7301 23.1608 80.7301 24.1104ZM79.2584 24.1403C79.2584 23.555 79.1323 23.0593 78.88 22.6412C78.5796 22.1336 78.1531 21.8827 77.6005 21.8827C77.0298 21.8827 76.5913 22.1336 76.297 22.6412C76.0387 23.0593 75.9185 23.5669 75.9185 24.1702C75.9185 24.7555 76.0447 25.2571 76.297 25.6692C76.6033 26.1769 77.0358 26.4277 77.5885 26.4277C78.1291 26.4277 78.5556 26.1709 78.868 25.6573C79.1263 25.2273 79.2584 24.7256 79.2584 24.1403Z" fill="white"/>
<path d="M85.3535 22.2213C85.2153 22.1974 85.0651 22.1855 84.9029 22.1855C84.4042 22.1855 84.0136 22.3706 83.7433 22.7469C83.5089 23.0754 83.3888 23.4994 83.3888 24.0011V27.3397H81.9648V22.9798C81.9648 22.2452 81.9528 21.5763 81.9227 20.979H83.1605L83.2145 22.1974H83.2566C83.4068 21.7794 83.6411 21.4389 83.9656 21.1881C84.284 20.9611 84.6265 20.8477 84.993 20.8477C85.1252 20.8477 85.2454 20.8596 85.3475 20.8715L85.3535 22.2213Z" fill="white"/>
<path d="M91.7041 23.8561C91.7041 24.107 91.6861 24.322 91.65 24.4952H87.3851C87.4031 25.1223 87.6073 25.6061 88.0038 25.9345C88.3642 26.2272 88.8268 26.3765 89.3974 26.3765C90.0282 26.3765 90.6048 26.275 91.1214 26.0779L91.3437 27.0574C90.737 27.3201 90.0222 27.4515 89.1992 27.4515C88.208 27.4515 87.4271 27.1589 86.8625 26.5796C86.2978 26.0002 86.0155 25.2179 86.0155 24.2444C86.0155 23.2888 86.2798 22.4885 86.8084 21.8494C87.3611 21.1686 88.1059 20.8281 89.043 20.8281C89.9621 20.8281 90.6649 21.1686 91.1334 21.8494C91.5119 22.3989 91.7041 23.0618 91.7041 23.8561ZM90.3465 23.4918C90.3585 23.0738 90.2624 22.7094 90.0702 22.4048C89.8239 22.0107 89.4455 21.8136 88.9409 21.8136C88.4784 21.8136 88.0999 22.0047 87.8116 22.3869C87.5773 22.6915 87.4331 23.0618 87.3911 23.4859L90.3465 23.4918Z" fill="white"/>
<path d="M42.776 15.3633H42.031L41.6224 14.0912H40.2044L39.8139 15.3633H39.0929L40.4928 11.0273H41.3581L42.776 15.3633ZM41.4962 13.5537L41.1297 12.4189C41.0937 12.3054 41.0216 12.0307 40.9074 11.6007H40.8954C40.8473 11.7858 40.7873 12.0546 40.6851 12.4189L40.3246 13.5537H41.4962Z" fill="white"/>
<path d="M46.2839 12.2305L45.0943 15.36H44.4153L43.2617 12.2305H44.0128L44.5475 13.8848C44.6376 14.1596 44.7157 14.4223 44.7758 14.6732H44.7939C44.8479 14.4462 44.926 14.1835 45.0222 13.8848L45.5509 12.2305H46.2839Z" fill="white"/>
<path d="M48.816 15.363L48.7619 15.0046H48.7439C48.5276 15.2913 48.2212 15.4347 47.8246 15.4347C47.2598 15.4347 46.8633 15.0405 46.8633 14.5149C46.8633 13.7445 47.5362 13.3443 48.7018 13.3443V13.2846C48.7018 12.8725 48.4795 12.6694 48.0469 12.6694C47.7345 12.6694 47.4641 12.7471 47.2238 12.9024L47.0796 12.4484C47.368 12.2693 47.7345 12.1797 48.1611 12.1797C48.9842 12.1797 49.3988 12.6097 49.3988 13.4757V14.6284C49.3988 14.9449 49.4108 15.1898 49.4469 15.3749L48.816 15.363ZM48.7199 13.8042C47.9448 13.8042 47.5542 13.9893 47.5542 14.4373C47.5542 14.7657 47.7525 14.927 48.0349 14.927C48.3894 14.927 48.7199 14.6582 48.7199 14.288V13.8042Z" fill="white"/>
<path d="M50.9579 11.7208C50.7236 11.7208 50.5433 11.5416 50.5433 11.3027C50.5433 11.0638 50.7296 10.8906 50.9699 10.8906C51.2103 10.8906 51.4025 11.0638 51.3965 11.3027C51.3965 11.5536 51.2163 11.7208 50.9579 11.7208ZM50.6214 12.2344H51.3184V15.358H50.6214V12.2344Z" fill="white"/>
<path d="M52.5585 10.8047H53.2554V15.3616H52.5585V10.8047Z" fill="white"/>
<path d="M56.2218 15.3651L56.1677 15.0067H56.1497C55.9334 15.2934 55.6269 15.4367 55.2304 15.4367C54.6656 15.4367 54.269 15.0425 54.269 14.517C54.269 13.7465 54.942 13.3464 56.1076 13.3464V13.2867C56.1076 12.8746 55.8853 12.6715 55.4527 12.6715C55.1403 12.6715 54.8699 12.7491 54.6295 12.9044L54.4853 12.4445C54.7737 12.2654 55.1403 12.1758 55.5669 12.1758C56.39 12.1758 56.8046 12.6058 56.8046 13.4718V14.6245C56.8046 14.941 56.8166 15.1859 56.8466 15.371H56.2218V15.3651ZM56.1256 13.8063C55.3506 13.8063 54.96 13.9914 54.96 14.4393C54.96 14.7678 55.1583 14.9291 55.4407 14.9291C55.7952 14.9291 56.1256 14.6603 56.1256 14.29V13.8063Z" fill="white"/>
<path d="M59.6403 15.4393C59.1957 15.4393 58.8652 15.2541 58.6489 14.8839H58.6369L58.5948 15.3676H58C58.018 15.1168 58.024 14.8361 58.024 14.5255V10.8047H58.727V12.6979H58.739C58.9493 12.3515 59.2798 12.1783 59.7424 12.1783C60.4995 12.1783 61.0282 12.8234 61.0282 13.761C61.0282 14.7286 60.4394 15.4393 59.6403 15.4393ZM59.4961 12.7218C59.0935 12.7218 58.727 13.0682 58.727 13.552V14.1015C58.727 14.5315 59.0575 14.8839 59.4841 14.8839C60.0068 14.8839 60.3192 14.4598 60.3192 13.7849C60.3192 13.1518 59.9948 12.7218 59.4961 12.7218Z" fill="white"/>
<path d="M62.0625 10.8047H62.7595V15.3616H62.0625V10.8047Z" fill="white"/>
<path d="M66.5628 13.9716H64.4659C64.4779 14.5629 64.8745 14.8974 65.4573 14.8974C65.7697 14.8974 66.0521 14.8436 66.3045 14.7481L66.4126 15.2318C66.1182 15.3632 65.7697 15.4229 65.3612 15.4229C64.3758 15.4229 63.793 14.8078 63.793 13.8462C63.793 12.8906 64.3878 12.168 65.283 12.168C66.0822 12.168 66.5929 12.7592 66.5929 13.6551C66.5929 13.7805 66.5869 13.888 66.5628 13.9716ZM65.9259 13.4759C65.9259 12.9922 65.6796 12.6517 65.235 12.6517C64.8324 12.6517 64.52 12.9981 64.4719 13.4759H65.9259Z" fill="white"/>
<path d="M70.7952 15.4367C69.876 15.4367 69.2811 14.7559 69.2811 13.8301C69.2811 12.8626 69.888 12.1758 70.8493 12.1758C71.7566 12.1758 72.3634 12.8268 72.3634 13.7764C72.3634 14.7499 71.7386 15.4367 70.7952 15.4367ZM70.8253 12.6834C70.3206 12.6834 69.9961 13.1553 69.9961 13.8063C69.9961 14.4513 70.3266 14.9171 70.8193 14.9171C71.312 14.9171 71.6424 14.4154 71.6424 13.7883C71.6364 13.1553 71.318 12.6834 70.8253 12.6834Z" fill="white"/>
<path d="M76.1229 15.3632H75.426V13.5655C75.426 13.0101 75.2097 12.7353 74.7891 12.7353C74.3745 12.7353 74.0921 13.0877 74.0921 13.4998V15.3572H73.3951V13.1295C73.3951 12.8548 73.3891 12.5562 73.3711 12.2337H73.9839L74.014 12.7174H74.032C74.2183 12.383 74.6028 12.168 75.0294 12.168C75.6903 12.168 76.1229 12.6697 76.1229 13.4879V15.3632Z" fill="white"/>
<path d="M80.6898 12.7629H79.9207V14.2799C79.9207 14.6681 80.0589 14.8592 80.3293 14.8592C80.4495 14.8592 80.5576 14.8473 80.6417 14.8294L80.6598 15.355C80.5216 15.4087 80.3413 15.4326 80.119 15.4326C79.5662 15.4326 79.2418 15.128 79.2418 14.3396V12.7629H78.7852V12.2433H79.2418V11.67L79.9267 11.4609V12.2374H80.6958V12.7629" fill="white"/>
<path d="M84.385 15.3676H83.688V13.5819C83.688 13.0205 83.4717 12.7398 83.0511 12.7398C82.6906 12.7398 82.3541 12.9846 82.3541 13.4803V15.3616H81.6572V10.8047H82.3541V12.68H82.3662C82.5885 12.3396 82.9009 12.1724 83.3095 12.1724C83.9764 12.1724 84.385 12.686 84.385 13.5042V15.3676Z" fill="white"/>
<path d="M87.9574 13.9716H85.8605C85.8725 14.5629 86.2691 14.8974 86.8519 14.8974C87.1643 14.8974 87.4467 14.8436 87.6991 14.7481L87.8072 15.2318C87.5128 15.3632 87.1643 15.4229 86.7558 15.4229C85.7704 15.4229 85.1876 14.8078 85.1876 13.8462C85.1876 12.8906 85.7824 12.168 86.6776 12.168C87.4768 12.168 87.9875 12.7592 87.9875 13.6551C87.9875 13.7805 87.9815 13.888 87.9574 13.9716ZM87.3205 13.4759C87.3205 12.9922 87.0742 12.6517 86.6296 12.6517C86.227 12.6517 85.9086 12.9981 85.8665 13.4759H87.3205Z" fill="white"/>
</svg>
