<svg width="118" height="41" viewBox="0 0 118 41" fill="none" xmlns="http://www.w3.org/2000/svg">
<rect y="0.753906" width="117.382" height="39.7301" rx="19.865" fill="black"/>
<path d="M52.9643 14.428C52.9643 15.0621 52.8051 15.6169 52.407 16.0132C51.9293 16.4887 51.372 16.7265 50.6555 16.7265C49.939 16.7265 49.3817 16.4887 48.904 16.0132C48.4263 15.5376 48.1875 14.9828 48.1875 14.2695C48.1875 13.5562 48.4263 13.0014 48.904 12.5258C49.3817 12.0503 49.939 11.8125 50.6555 11.8125C50.974 11.8125 51.2924 11.8918 51.6109 12.0503C51.9293 12.2088 52.1682 12.3673 52.3274 12.6051L51.9293 13.0014C51.6109 12.6051 51.2128 12.4466 50.6555 12.4466C50.1778 12.4466 49.7002 12.6051 49.3817 13.0014C48.9836 13.3184 48.8244 13.7939 48.8244 14.3487C48.8244 14.9036 48.9836 15.3791 49.3817 15.6961C49.7798 16.0132 50.1778 16.2509 50.6555 16.2509C51.2128 16.2509 51.6109 16.0924 52.0089 15.6961C52.2478 15.4584 52.407 15.1413 52.407 14.745H50.6555V14.111H52.9643V14.428ZM56.6265 12.4466H54.477V13.9525H56.4673V14.5073H54.477V16.0132H56.6265V16.6472H53.8401V11.8918H56.6265V12.4466ZM59.2538 16.6472H58.6169V12.4466H57.2634V11.8918H60.6072V12.4466H59.2538V16.6472ZM62.916 16.6472V11.8918H63.5529V16.6472H62.916ZM66.2598 16.6472H65.6229V12.4466H64.2694V11.8918H67.5336V12.4466H66.1802V16.6472H66.2598ZM73.8231 16.0132C73.3454 16.4887 72.7881 16.7265 72.0716 16.7265C71.355 16.7265 70.7977 16.4887 70.3201 16.0132C69.8424 15.5376 69.6035 14.9828 69.6035 14.2695C69.6035 13.5562 69.8424 13.0014 70.3201 12.5258C70.7977 12.0503 71.355 11.8125 72.0716 11.8125C72.7881 11.8125 73.3454 12.0503 73.8231 12.5258C74.3007 13.0014 74.5396 13.5562 74.5396 14.2695C74.5396 14.9828 74.3007 15.5376 73.8231 16.0132ZM70.7977 15.6169C71.1162 15.9339 71.5939 16.1717 72.0716 16.1717C72.5492 16.1717 73.0269 16.0132 73.3454 15.6169C73.6638 15.2998 73.9027 14.8243 73.9027 14.2695C73.9027 13.7147 73.7434 13.2391 73.3454 12.9221C73.0269 12.6051 72.5492 12.3673 72.0716 12.3673C71.5939 12.3673 71.1162 12.5258 70.7977 12.9221C70.4793 13.2391 70.2404 13.7147 70.2404 14.2695C70.2404 14.8243 70.3997 15.2998 70.7977 15.6169ZM75.4153 16.6472V11.8918H76.1319L78.4406 15.6169V11.8918H79.0776V16.6472H78.4406L75.9726 12.7636V16.6472H75.4153Z" fill="white" stroke="white" stroke-width="0.370767" stroke-miterlimit="10"/>
<path d="M64.3555 23.1434C62.9183 23.1434 61.7806 24.1901 61.7806 25.644C61.7806 27.0397 62.9183 28.1446 64.3555 28.1446C65.7926 28.1446 66.9304 27.0978 66.9304 25.644C66.9304 24.132 65.7926 23.1434 64.3555 23.1434ZM64.3555 27.0978C63.577 27.0978 62.9183 26.4581 62.9183 25.5858C62.9183 24.7135 63.577 24.0738 64.3555 24.0738C65.1339 24.0738 65.7926 24.6554 65.7926 25.5858C65.7926 26.4581 65.1339 27.0978 64.3555 27.0978ZM58.7865 23.1434C57.3494 23.1434 56.2116 24.1901 56.2116 25.644C56.2116 27.0397 57.3494 28.1446 58.7865 28.1446C60.2237 28.1446 61.3614 27.0978 61.3614 25.644C61.3614 24.132 60.2237 23.1434 58.7865 23.1434ZM58.7865 27.0978C58.0081 27.0978 57.3494 26.4581 57.3494 25.5858C57.3494 24.7135 58.0081 24.0738 58.7865 24.0738C59.565 24.0738 60.2237 24.6554 60.2237 25.5858C60.2237 26.4581 59.565 27.0978 58.7865 27.0978ZM52.1397 23.8994V24.9461H54.7146C54.6547 25.5277 54.4152 25.9929 54.1158 26.2837C53.7565 26.6326 53.1577 27.0397 52.1397 27.0397C50.5229 27.0397 49.3252 25.8184 49.3252 24.2483C49.3252 22.6781 50.5828 21.4569 52.1397 21.4569C52.978 21.4569 53.6367 21.8058 54.1158 22.2129L54.8942 21.4569C54.2355 20.8754 53.3972 20.4102 52.1996 20.4102C50.0438 20.4102 48.1875 22.1548 48.1875 24.2483C48.1875 26.3418 50.0438 28.0864 52.1996 28.0864C53.3972 28.0864 54.2355 27.7375 54.9541 26.9815C55.6727 26.2837 55.9122 25.2951 55.9122 24.5391C55.9122 24.3065 55.9122 24.0738 55.8523 23.8994H52.1397ZM79.3258 24.7135C79.0863 24.132 78.4875 23.1434 77.1701 23.1434C75.8527 23.1434 74.7749 24.132 74.7749 25.644C74.7749 27.0397 75.8527 28.1446 77.2899 28.1446C78.4276 28.1446 79.1462 27.4467 79.3857 27.0397L78.5474 26.4581C78.248 26.8652 77.8887 27.156 77.2899 27.156C76.6911 27.156 76.3318 26.9234 76.0324 26.4L79.4456 25.0043L79.3258 24.7135ZM75.8527 25.5277C75.8527 24.5972 76.6312 24.0738 77.1701 24.0738C77.5893 24.0738 78.0084 24.3064 78.1282 24.5972L75.8527 25.5277ZM73.0383 27.912H74.176V20.6428H73.0383V27.912ZM71.2418 23.6668C70.9424 23.376 70.4634 23.0852 69.8646 23.0852C68.6071 23.0852 67.4094 24.1901 67.4094 25.5858C67.4094 26.9815 68.5472 28.0283 69.8646 28.0283C70.4634 28.0283 70.9424 27.7375 71.182 27.4467H71.2418V27.7957C71.2418 28.7261 70.7029 29.2495 69.8646 29.2495C69.2059 29.2495 68.7268 28.7843 68.6071 28.3772L67.649 28.7843C67.9484 29.424 68.6669 30.2381 69.9245 30.2381C71.2418 30.2381 72.3197 29.4821 72.3197 27.6794V23.2597H71.2418V23.6668ZM69.9245 27.0978C69.146 27.0978 68.4873 26.4581 68.4873 25.5858C68.4873 24.7135 69.146 24.0738 69.9245 24.0738C70.7029 24.0738 71.3017 24.7135 71.3017 25.5858C71.3017 26.4581 70.7029 27.0978 69.9245 27.0978ZM84.5355 20.6428H81.8409V27.912H82.9786V25.1788H84.5355C85.793 25.1788 86.9907 24.3065 86.9907 22.9108C86.9907 21.5151 85.793 20.6428 84.5355 20.6428ZM84.5954 24.132H82.9786V21.6314H84.5954C85.4337 21.6314 85.9128 22.3292 85.9128 22.8526C85.8529 23.4923 85.3739 24.132 84.5954 24.132ZM91.4818 23.0852C90.6434 23.0852 89.8051 23.4341 89.5057 24.1901L90.5237 24.5972C90.7632 24.1901 91.1225 24.0738 91.5417 24.0738C92.1405 24.0738 92.6794 24.4228 92.7393 25.0043V25.0624C92.5596 24.9461 92.0806 24.7717 91.6015 24.7717C90.5237 24.7717 89.4458 25.3532 89.4458 26.4C89.4458 27.3886 90.344 28.0283 91.3021 28.0283C92.0806 28.0283 92.4399 27.6794 92.7393 27.3304H92.7992V27.912H93.877V25.1206C93.7573 23.8412 92.7393 23.0852 91.4818 23.0852ZM91.362 27.0978C91.0027 27.0978 90.4638 26.9234 90.4638 26.4581C90.4638 25.8766 91.1225 25.7021 91.6614 25.7021C92.1405 25.7021 92.38 25.8184 92.6794 25.9348C92.5596 26.6326 91.9608 27.0978 91.362 27.0978ZM97.6496 23.2597L96.392 26.4H96.3322L95.0148 23.2597H93.8172L95.7932 27.6794L94.6555 30.1218H95.7932L98.8472 23.2597H97.6496ZM87.5895 27.912H88.7272V20.6428H87.5895V27.912Z" fill="white"/>
<path d="M18.8947 9.66797C18.6244 9.93673 18.5343 10.3847 18.5343 10.9222V30.7208C18.5343 31.2583 18.7145 31.7062 18.9848 31.975L19.0749 32.0646L30.2479 20.9559V20.7767L18.8947 9.66797Z" fill="url(#paint0_linear_0_1)"/>
<path d="M33.8536 24.7242L30.1593 21.0512V20.7824L33.8536 17.1094L33.9437 17.199L38.3588 19.7074C39.6203 20.4241 39.6203 21.5887 38.3588 22.3054L33.8536 24.7242Z" fill="url(#paint1_linear_0_1)"/>
<path d="M33.9455 24.6298L30.1611 20.8672L18.898 32.0655C19.3485 32.5134 19.9793 32.5134 20.7902 32.1551L33.9455 24.6298Z" fill="url(#paint2_linear_0_1)"/>
<path d="M33.9455 17.1052L20.7902 9.66949C19.9793 9.22156 19.3485 9.31115 18.898 9.75908L30.1611 20.8678L33.9455 17.1052Z" fill="url(#paint3_linear_0_1)"/>
<path opacity="0.2" d="M33.8549 24.5391L20.7897 31.8851C20.0689 32.3331 19.4381 32.2435 18.9876 31.8851L18.8975 31.9747L18.9876 32.0643C19.4381 32.4227 20.0689 32.5123 20.7897 32.0643L33.8549 24.5391Z" fill="white"/>
<path opacity="0.2" d="M18.8951 31.8863C18.6248 31.6176 18.5347 31.1696 18.5347 30.6321V30.7217C18.5347 31.2592 18.7149 31.7071 18.9853 31.9759V31.8863H18.8951ZM38.3578 22.0318L33.8525 24.5402L33.9426 24.6298L38.3578 22.1214C38.9885 21.7631 39.2588 21.3151 39.2588 20.8672C39.2588 21.3151 38.8984 21.6735 38.3578 22.0318Z" fill="white"/>
<path opacity="0.2" d="M20.7869 9.76112L38.3573 19.7052C38.898 20.0636 39.2584 20.4219 39.2584 20.8698C39.2584 20.4219 38.9881 19.974 38.3573 19.6156L20.7869 9.67154C19.5255 8.95485 18.5343 9.49236 18.5343 10.9257V11.0153C18.5343 9.67154 19.5255 9.04443 20.7869 9.76112Z" fill="white"/>
<defs>
<linearGradient id="paint0_linear_0_1" x1="29.1666" y1="10.752" x2="14.1316" y2="25.8731" gradientUnits="userSpaceOnUse">
<stop stop-color="#00A0FF"/>
<stop offset="0.007" stop-color="#00A1FF"/>
<stop offset="0.26" stop-color="#00BEFF"/>
<stop offset="0.512" stop-color="#00D2FF"/>
<stop offset="0.76" stop-color="#00DFFF"/>
<stop offset="1" stop-color="#00E3FF"/>
</linearGradient>
<linearGradient id="paint1_linear_0_1" x1="40.0113" y1="20.8729" x2="18.2087" y2="20.8729" gradientUnits="userSpaceOnUse">
<stop stop-color="#FFE000"/>
<stop offset="0.409" stop-color="#FFBD00"/>
<stop offset="0.775" stop-color="#FFA500"/>
<stop offset="1" stop-color="#FF9C00"/>
</linearGradient>
<linearGradient id="paint2_linear_0_1" x1="31.8974" y1="22.9241" x2="11.5097" y2="43.4298" gradientUnits="userSpaceOnUse">
<stop stop-color="#FF3A44"/>
<stop offset="1" stop-color="#C31162"/>
</linearGradient>
<linearGradient id="paint3_linear_0_1" x1="16.1021" y1="3.10819" x2="25.2066" y2="12.2654" gradientUnits="userSpaceOnUse">
<stop stop-color="#32A071"/>
<stop offset="0.069" stop-color="#2DA771"/>
<stop offset="0.476" stop-color="#15CF74"/>
<stop offset="0.801" stop-color="#06E775"/>
<stop offset="1" stop-color="#00F076"/>
</linearGradient>
</defs>
</svg>
