<svg width="19" height="19" viewBox="0 0 19 19" fill="none" xmlns="http://www.w3.org/2000/svg">
    <g clip-path="url(#clip0_38_251)">
        <path d="M13.7242 2.39844H6.22599C4.15541 2.39844 2.47687 4.06732 2.47687 6.126V13.5811C2.47687 15.6398 4.15541 17.3087 6.22599 17.3087H13.7242C15.7948 17.3087 17.4734 15.6398 17.4734 13.5811V6.126C17.4734 4.06732 15.7948 2.39844 13.7242 2.39844Z" stroke="white" stroke-width="2" stroke-linecap="round" stroke-linejoin="round"/>
        <path d="M12.9743 9.38448C13.0668 10.0049 12.9602 10.6386 12.6697 11.1953C12.3791 11.7521 11.9194 12.2036 11.3559 12.4856C10.7924 12.7676 10.1538 12.8657 9.53092 12.7661C8.90807 12.6664 8.33268 12.374 7.8866 11.9305C7.44051 11.487 7.14644 10.9149 7.04621 10.2957C6.94599 9.67639 7.04471 9.04146 7.32834 8.4812C7.61197 7.92093 8.06606 7.46385 8.62603 7.17496C9.186 6.88607 9.82333 6.7801 10.4474 6.8721C11.0839 6.96595 11.6732 7.26086 12.1282 7.71327C12.5833 8.16568 12.8799 8.7516 12.9743 9.38448Z" stroke="white" stroke-width="2" stroke-linecap="round" stroke-linejoin="round"/>
        <ellipse cx="14.098" cy="5.75108" rx="1.125" ry="1.11827" fill="white"/>
    </g>
</svg>