<?xml version="1.0" encoding="UTF-8" standalone="no" ?>
<svg width="200" height="140" version="1.1" xmlns="http://www.w3.org/2000/svg" xmlns:xlink="http://www.w3.org/1999/xlink" preserveAspectRatio="xMidYMid">
 <g ng-preview="" ng-model="config" ng-shapes="indexedShapes" ng-etape="etape" class="ng-presentation ng-pristine ng-untouched ng-valid ng-isolate-scope ng-not-empty" transform="translate(0 16.200759887695312)">
                                    <g class="logo-preview ng-scope" transform="scale(0.39622641509433965)">
                                        <g class="logo-ctn"><g class="logo" id="item-jazo99ubz9kzy4vq38rnaave52dj2kz8" transform="translate(192.563720703125 0) scale(1.542921229035931)"><path fill-rule="evenodd" clip-rule="evenodd" d="M0 42.577c.027-.001.121.202.135.226.133.227.26.458.384.69.532.993 1.009 2.055 1.467 3.108.404.929.803 1.857 1.514 2.522 1.021.953 2.332 1.477 3.63 1.778.376.087.76.164 1.146.197 0 0-.53-3.792-4.53-5.958 0 0 3.732.96 5.288 4.824-.002.002.55-7.773-9.034-7.387zM86.237 68.01c-1.437-.133-3.074 2.903-6.222 6.289-3.205 3.439-5.715 5.483-12.664 7.825-1.533.52-5.361 1.136-6.1-1.274-.53-1.728 1.521-4.071 3.234-6.341 4.208-5.557.481-12.067-.979-8.405-2.139 5.375-3.313 5.046-7.898 9.813-8.199 8.521-10.135 20.282-1.213 31.023 1.985-13.829 10.108-16.041 17.962-19.429 6.226-2.693 12.046-11.454 14.14-15.771.314-.642 2.128-3.514-.26-3.73zm-10.672 8.984c1.088-3.163 2.184-6.456 1.618-7.033-.778-.792-2.646.029-4.152 5.479-.315 1.139-.771 2.382-1.303 3.639 1.514-.657 2.747-1.335 3.837-2.085zm4.221-3.684c.474-.484.91-.966 1.32-1.428.866-2.405 1.51-4.527 1.077-4.997-.761-.827-2.643-.087-4.295 5.3-.427 1.387-1.069 2.924-1.796 4.438 1.318-.961 2.455-2.039 3.694-3.313zm-7.141-.122c-.709-.728-2.402.02-3.769 4.965a24.698 24.698 0 0 1-.768 2.287 43.661 43.661 0 0 0 3.165-1.168c.957-2.777 1.865-5.585 1.372-6.084z" fill="#255562"></path><path fill-rule="evenodd" clip-rule="evenodd" d="M40.306 75.916c-4.585-4.767-5.764-4.438-7.901-9.813-1.461-3.662-5.188 2.849-.979 8.405 1.714 2.27 3.766 4.613 3.234 6.341-.738 2.41-4.562 1.794-6.099 1.274-6.949-2.342-9.46-4.386-12.66-7.825-3.151-3.386-4.789-6.422-6.227-6.289-2.388.216-.572 3.088-.26 3.73 2.093 4.316 7.913 13.077 14.139 15.771 7.854 3.388 15.978 5.6 17.962 19.429 8.922-10.741 6.987-22.502-1.209-31.023zm-16.124 3.163c-.526-1.257-.986-2.5-1.301-3.639-1.507-5.45-3.371-6.271-4.152-5.479-.565.577.529 3.87 1.618 7.033 1.091.75 2.322 1.428 3.835 2.085zm-8.056-5.769c1.238 1.274 2.375 2.353 3.693 3.313-.723-1.514-1.37-3.051-1.796-4.438-1.648-5.387-3.535-6.127-4.295-5.3-.433.47.21 2.592 1.076 4.997.411.462.851.943 1.322 1.428zm11.678 7.13a24.698 24.698 0 0 1-.768-2.287c-1.366-4.945-3.058-5.692-3.769-4.965-.493.498.414 3.307 1.37 6.084.937.392 1.985.779 3.167 1.168z" fill="#255562"></path><path fill-rule="evenodd" clip-rule="evenodd" d="M28.938 0c-.04.067.285.572.318.637.324.63.664 1.254 1.012 1.873 1.486 2.645 3.199 5.243 4.919 7.787 1.515 2.24 3.039 4.469 3.548 7.122.73 3.807.104 7.765-.997 11.395-.319 1.053-.671 2.109-1.124 3.112 0 0-7.718-6.367-7.08-19.201 0 0-2.958 10.563 3.521 19.578-.001 0-18.065-8.98-4.117-32.303zM80.352 17.68c-.063.003-.233.483-.26.539-.254.541-.494 1.09-.729 1.643-1.002 2.361-1.866 4.866-2.691 7.349-.727 2.187-1.441 4.374-2.917 6.026-2.119 2.371-4.986 3.824-7.867 4.772-.835.275-1.689.528-2.558.682 0 0 .43-8.706 9.058-14.435 0 0-8.268 2.939-11.008 12.019-.001-.001-2.837-17.517 18.972-18.595z" fill="#12abbd"></path><path fill-rule="evenodd" clip-rule="evenodd" d="M73.66 40.88c-.057.003-.209.431-.231.48-.226.481-.44.97-.649 1.461-.892 2.102-1.66 4.33-2.395 6.539-.646 1.946-1.283 3.893-2.596 5.362-1.885 2.109-4.437 3.402-7 4.247-.743.244-1.503.47-2.275.606 0 0 .382-7.747 8.059-12.844 0 0-7.355 2.615-9.794 10.693-.001.002-2.524-15.584 16.881-16.544z" fill="#89b067"></path><path fill-rule="evenodd" clip-rule="evenodd" d="M43.831 1.391c-.024.015.009.236.01.264.013.262.032.524.055.787.096 1.123.274 2.272.465 3.406.167.998.339 1.994.105 2.939-.335 1.355-1.149 2.509-2.073 3.469a7.984 7.984 0 0 1-.854.79s-1.622-3.468.551-7.465c0 0-2.605 2.84-1.805 6.928 0 0-4.699-6.218 3.546-11.118z" fill="#12abbd"></path><path fill-rule="evenodd" clip-rule="evenodd" d="M23.647 27.656c-.012.025.145.187.161.208.164.205.333.407.505.606.734.855 1.552 1.684 2.368 2.492.72.712 1.442 1.419 1.805 2.322.521 1.296.535 2.708.347 4.026a8.16 8.16 0 0 1-.229 1.14s-3.344-1.865-3.918-6.378c0 0-.454 3.828 2.587 6.676-.001.001-7.45-2.295-3.626-11.092z" fill="#255562"></path><path fill-rule="evenodd" clip-rule="evenodd" d="M19.232 59.094c.029.001.109.221.122.247.118.247.231.498.342.75.47 1.08.878 2.226 1.268 3.362.343 1 .681 2.001 1.365 2.753.983 1.079 2.306 1.733 3.632 2.156.385.123.778.235 1.178.302 0 0-.235-3.994-4.222-6.586 0 0 3.809 1.313 5.106 5.469 0 0 1.225-8.054-8.791-8.453z" fill="#12abbd"></path><path fill-rule="evenodd" clip-rule="evenodd" d="M58.37 28.352c-.054.014-.114.461-.127.514a44.042 44.042 0 0 0-.332 1.552c-.438 2.222-.731 4.544-.994 6.839-.231 2.021-.452 4.042-1.428 5.737-1.401 2.433-3.615 4.209-5.933 5.552-.673.389-1.364.763-2.087 1.053 0 0-1.208-7.603 5.21-14.117 0 0-6.612 4.039-7.334 12.383.001-.002-5.627-14.626 13.025-19.513z" fill="#255562"></path><path fill-rule="evenodd" clip-rule="evenodd" d="M93.846 47.024c-.049-.025-.395.265-.439.296a42.18 42.18 0 0 0-1.287.926c-1.818 1.353-3.594 2.876-5.33 4.4-1.529 1.342-3.049 2.691-4.911 3.291-2.672.862-5.505.691-8.124.129-.76-.163-1.523-.351-2.253-.621 0 0 4.21-6.443 13.341-6.961 0 0-7.611-1.447-13.75 4.249-.001 0 5.651-14.614 22.753-5.709z" fill="#12abbd"></path><path fill-rule="evenodd" clip-rule="evenodd" d="M10.958 27.452c-.017.079.444.466.495.518a55.23 55.23 0 0 0 1.526 1.497c2.208 2.096 4.612 4.072 7.006 5.992 2.107 1.691 4.221 3.367 5.523 5.793 1.87 3.48 2.528 7.557 2.642 11.468.033 1.134.037 2.282-.07 3.413 0 0-9.16-3.682-12.585-16.438 0 0 .56 11.301 9.397 17.979.001 0-19.584-2.825-13.934-30.222zM60.826 2.938c-.071.021-.137.609-.151.68a54.928 54.928 0 0 0-.39 2.05c-.507 2.936-.82 5.996-1.096 9.021-.241 2.665-.469 5.328-1.7 7.587-1.767 3.242-4.623 5.646-7.629 7.481-.871.532-1.77 1.045-2.711 1.448 0 0-1.821-9.957 6.414-18.72 0 0-8.567 5.515-9.259 16.505.001.001-7.849-19.051 16.522-26.052z" fill="#89b067"></path><path fill-rule="evenodd" clip-rule="evenodd" d="M51.271 53.359c.025.045-.237.378-.265.421-.269.416-.548.827-.833 1.235-1.218 1.745-2.598 3.456-3.979 5.13-1.217 1.474-2.439 2.939-2.95 4.705-.733 2.533-.491 5.188.111 7.631.175.709.373 1.42.647 2.098 0 0 5.93-4.137 6.154-12.725 0 0 1.577 7.105-3.597 13.031.001.001 13.56-5.723 4.712-21.526zM71.773 11.009c-.028 0-.112.208-.125.232-.121.231-.238.468-.352.706-.485 1.018-.912 2.1-1.322 3.174-.361.945-.716 1.892-1.396 2.589-.975.999-2.261 1.582-3.544 1.943a8.263 8.263 0 0 1-1.135.25s.354-3.813 4.251-6.161c0 0-3.685 1.132-5.062 5.063.002.001-.906-7.741 8.685-7.796z" fill="#255562"></path><path fill-rule="evenodd" clip-rule="evenodd" d="M41.518 27.273c-.02.02.067.227.075.252.077.251.162.5.249.749.373 1.063.834 2.132 1.301 3.183.411.925.827 1.847.837 2.819.014 1.396-.487 2.717-1.142 3.877a7.985 7.985 0 0 1-.629.979s-2.437-2.953-1.331-7.366c0 0-1.813 3.401-.017 7.159 0 0-6.104-4.847.657-11.652z" fill="#12abbd"></path><path fill-rule="evenodd" clip-rule="evenodd" d="M15.509 16.182c-.011.025.145.187.161.207.164.205.333.407.505.607.734.854 1.552 1.683 2.369 2.491.72.712 1.441 1.42 1.804 2.322.521 1.296.535 2.708.347 4.027a8.218 8.218 0 0 1-.229 1.14s-3.344-1.865-3.919-6.378c0 0-.453 3.827 2.588 6.675-.001 0-7.45-2.295-3.626-11.091z" fill="#89b067"></path><path fill-rule="evenodd" clip-rule="evenodd" d="M2.408 54.82c.031-.015.235.18.262.2.26.202.515.412.768.626 1.08.911 2.127 1.927 3.15 2.942.9.894 1.796 1.791 2.932 2.236 1.631.638 3.401.639 5.054.389.479-.072.961-.16 1.427-.301 0 0-2.377-4.172-8.042-4.842 0 0 4.794-.611 8.399 3.169-.001.001-2.963-9.312-13.95-4.419z" fill="#12abbd"></path><path fill-rule="evenodd" clip-rule="evenodd" d="M83.748 59.738c-.01.027-.244.039-.271.043-.271.04-.545.074-.818.104-1.17.129-2.386.18-3.586.215-1.058.031-2.114.058-3.035.489-1.321.619-2.338 1.688-3.135 2.83a8.503 8.503 0 0 0-.637 1.035s3.885.958 7.541-2.081c0 0-2.383 3.248-6.736 3.257-.001.001 7.328 3.556 10.677-5.892zM28.943 58.209c.028-.008.171.178.189.199.188.2.37.406.551.614.771.89 1.502 1.862 2.213 2.83.626.853 1.247 1.708 2.125 2.221 1.26.737 2.717.968 4.109.976a8.64 8.64 0 0 0 1.214-.063s-1.416-3.742-5.993-5.027c0 0 4.025.117 6.504 3.696 0-.001-1.232-8.052-10.912-5.446zM93.895 33.023c-.037-.018-.282.206-.314.229-.31.233-.616.475-.919.721-1.296 1.049-2.555 2.223-3.785 3.396-1.084 1.033-2.161 2.07-3.512 2.568-1.938.714-4.026.674-5.97.34a12.022 12.022 0 0 1-1.674-.389s2.9-4.864 9.598-5.521c0 0-5.641-.834-9.98 3.539-.001.001 3.713-10.914 16.556-4.883z" fill="#89b067"></path><path fill-rule="evenodd" clip-rule="evenodd" d="M36.961 39.859c-.023.034.161.31.18.345.184.342.377.681.574 1.018.843 1.438 1.813 2.859 2.788 4.252.858 1.227 1.723 2.447 2.012 3.857.415 2.024.062 4.083-.562 5.953-.18.542-.379 1.085-.636 1.598 0 0-4.373-3.6-4.015-10.319 0 0-1.673 5.451 1.999 10.399.001 0-10.233-5.313-2.34-17.103z" fill="#12abbd"></path></g></g><g class="main" transform="translate(0 176)"><g class="formes"></g><g class="inline-shape"><g class="contents"><g id="texts"><g class="firstLine" transform="translate(94.2109375 0) scale(1)"><text id="item-y307tvdvvul4jmzyeby7lbha7g6tszwu" key="0" dominant-baseline="auto" alignment-baseline="auto" font-family="Justus" font-size="80px" fill="white" letter-spacing="0" xml:space="preserve" class="" transform="translate(0 59)">SmartDApp</text><g class="ligne" id="item-a5uk5np2ozpkp5g4w2kii6tnph0tpcq2" transform="scale(0.6444870283018868 0.6444870283018868) translate(0 122)"><path d="M0,6.69h530C530,6.69,263.079-8.363,0,6.69z" fill="white"></path></g></g><g class="sndLine" transform="translate(265 94.32258064516128)  scale(1)"></g><g class="thirdLine" transform="translate(265 87.32258064516128)  scale(1)"></g><g class="initial"></g></g></g></g></g>
                                    </g>
                                </g> 
                        
</svg>
