<svg width="11" height="10" viewBox="0 0 11 10" fill="none" xmlns="http://www.w3.org/2000/svg">
<path d="M10.1129 0.111249L0.424567 4.14356C0.424567 4.14356 -0.0334547 4.31003 0.00195188 4.61717C0.0383837 4.9248 0.412123 5.06557 0.412123 5.06557L2.84992 5.93583C2.84992 5.93583 3.58579 8.49563 3.73056 8.98265C3.87533 9.46834 3.99158 9.47986 3.99158 9.47986C4.12646 9.54207 4.24907 9.44305 4.24907 9.44305L5.8241 7.91995L8.27894 9.91656C8.9429 10.2238 9.18459 9.58372 9.18459 9.58372L10.9094 0.354622C10.9094 -0.260051 10.1131 0.111013 10.1131 0.111013L10.1129 0.111249ZM8.39768 8.84164L5.77165 6.70606L4.95674 7.49387L5.13595 5.81783L8.63643 2.50022L3.86482 5.333L1.74826 4.57755L9.82336 1.21635L8.39768 8.84164Z" fill="#6DB8FF"/>
</svg>
